<?xml version="1.0" encoding="iso-8859-1"?>
<!-- Generator: Adobe Illustrator 29.4.0, SVG Export Plug-In . SVG Version: 9.03 Build 0)  -->
<svg version="1.1" id="Ebene_1" xmlns="http://www.w3.org/2000/svg" xmlns:xlink="http://www.w3.org/1999/xlink" x="0px" y="0px"
	 viewBox="0 0 512 512" style="enable-background:new 0 0 512 512;" xml:space="preserve">
<g>
	<g>
		<path style="fill:#F3EED8;" d="M218.269,63.2c1.11-1.383,1.506-1.074,1.3,0.65c1.764,1.904,2.717,10.814-0.65,10.404
			c-0.488,1.192-1.792,1.827-3.911,1.905l0.006,8.495c2.079-0.4,3.381,0.035,3.905,1.305c2.254-0.075,3.056,5.362,0.65,5.852
			c-0.167,1.836-0.041,3.663,0.379,5.478c0.598,0.854,15.922,1.093,17.812-0.313l1.315,0.687c0.703-1.396,2.278-2.203,4.724-2.421
			c1.489-2.389,3.599-2.883,6.329-1.481l1.524,0.235c1.044,5.385,19.319,5.663,20.293,0.049l1.591-0.283
			c2.77-1.328,4.771-0.923,6.005,1.214c2.564,0.342,4.247,1.238,5.048,2.687l1.55-0.941c5.741,1.161,11.984,1.869,17.661,0.683
			c0.593-11.239,0.908-22.641,0.945-34.205c0.159-0.578,0.378-0.563,0.65,0l0.619-1.301c61.065,0,122.141,0,183.228,0l0.806,1.301
			v316.026c-0.185,0.568-0.402,0.56-0.65,0c-9.129,5.734-21.143,7.473-31.817,9.018c-13.202,1.91-27.995,2.789-41.343,2.626
			c-0.588-0.007-1.176-0.194-1.775-0.402c-0.618-0.215-1.207-0.514-1.787-0.837c-1.081,1.902-4.081,1.824-5.202,0
			c-1.787,0.201-3.087-0.016-3.901-0.65c-0.679,1.854-3.277,1.939-3.901,0c-1.375,0.707-2.747,0.322-3.901-0.65
			c-0.705,0.261-1.416,0.495-2.145,0.635c-0.717,0.138-1.419,0.258-2.094,0.181c-17.656-2.032-36.407-7.175-52.516-14.279
			c0.73,9.048-2.199,19.178-5.093,27.901c-2.295,6.919-5.746,16.301-9.604,22.353c-0.635,0.996-1.663,1.647-2.67,2.225
			c-0.748,2.505-2.048,4.89-3.901,7.153c1.017,1.657-0.748,4.016-2.601,3.902c-12.241,20.951-31.15,37.266-51.198,50.775
			c-12.234,8.244-25.021,15.757-39.178,20.103c0.153,1.221-1.064,1.775-3.653,1.664c-66.255,0.143-132.44,0.022-198.556-0.363
			c-0.573-146.771-0.573-300.436,0-447.379l0.62-1.301c64.748,0,129.508,0,194.279,0L218.269,63.2z M44.018,74.254h-9.103v11.705
			h9.103V74.254z M69.376,74.254h-8.452v11.705h8.452V74.254z M86.281,74.254v11.705h9.103V74.254H86.281z M120.741,74.254h-9.103
			v11.705h9.103V74.254z M146.098,74.254h-9.103v11.705h9.103V74.254z M163.003,74.254v11.705h8.452V74.254H163.003z M188.36,74.254
			v11.705h9.103V74.254H188.36z M315.797,74.254v11.705h9.103V74.254H315.797z M341.155,74.254v11.705h9.103V74.254H341.155z
			 M366.512,74.254v11.705h9.103V74.254H366.512z M392.519,74.254v11.705h9.103V74.254H392.519z M417.877,74.254v11.705h9.103
			V74.254H417.877z M443.234,74.254v11.705h9.103V74.254H443.234z M467.941,74.254v11.705h9.103V74.254H467.941z"/>
		<path style="fill:#E3DDC6;" d="M489.397,379.226c-19.859,20.904-44.904,37.646-69.783,52.133
			c-60.226,35.068-127.766,59.399-194.844,77.919c26.017-11.307,54.02-29.731,73.488-50.378c6.076-6.444,11.133-13.8,16.888-20.5
			l0.728,1.484l-2.585,5.763l98.04-53.313c0.022-1.384,0.471-2.285,1.345-2.703C439.297,389.198,463.996,388.368,489.397,379.226z"
			/>
		<path style="fill:#DCD7C5;" d="M395.77,388.33c1.332,0.941,2.341,1.251,3.901,0.65c1.284,0.099,2.61-0.054,3.901,0
			c0.685,0.567,1.985,0.784,3.901,0.65c1.715-0.104,3.479,0.028,5.202,0l0.366,3.253l-100.688,54.753l-2.404,0.197
			c2.664-2.795,3.556-6.171,5.197-9.433c1.061-2.11,1.3-2.199,2.601-3.902c1.86-2.266,3.161-4.65,3.901-7.153
			c9.007-16.408,15.474-34.495,16.908-53.322C357.101,380.848,376.027,386.267,395.77,388.33z"/>
		<path style="fill:#E3DDC6;" d="M317.748,434.499c0.6-2.656,2.624-4.827,3.901-7.153
			C323.084,429.991,319.101,432.727,317.748,434.499z"/>
		<path style="fill:#E3DDC6;" d="M399.671,388.98c-1.506,1.568-2.824,1.221-3.901-0.65
			C397.136,388.473,398.864,388.918,399.671,388.98z"/>
		<path style="fill:#E3DDC6;" d="M407.474,389.631c-1.327,0.08-4.349,2.105-3.901-0.65
			C404.906,389.037,406.328,388.582,407.474,389.631z"/>
	</g>
	<g>
		<path style="fill:#C2C2C1;" d="M268.333,2.726c6.932,1.182,17.382,6.481,12.922,15.198c-1.845,3.607-10.321,6.361-10.321,11.137
			v9.754c0,3.472,0.902,10.07,1.3,13.981c2.298,2.775,3.547,9.099,1.951,12.355l1.575,1.967c0.27,2.634,3.192,23.224,5.347,24.709
			c1.768-0.251,2.928,0.177,3.482,1.286c1.968,0.226,1.881,4.161,0,4.552c-1.652-0.466-4.662-0.88-5.837-1.651
			c-1.744-1.145-1.008-3.265-5.216-2.251c-0.684-1.336-0.136-1.934,1.302-1.985c-2.085-8.062-3.734-16.225-4.804-24.491l0.901-2.786
			c-2.353-1.95-3.803-9.223-1.951-11.705l-1.411-0.916c-1.848-6.786-2.689-23.232,1.588-29.065c3.531-2.698,6.268-5.694,8.209-8.986
			c-0.593-1.646-0.571-2.962,0.066-3.95c0.2-0.328,0.363-0.58,0.393-0.564c0.761,0.41,1.869,1.487,2.524,2.136
			c0.186,0.184-3.437-3.504-3.567-2.222l-1.241,0.765c-11.496-5.499-43.754-3.239-20.861,12.776
			c4.279,5.618,3.136,22.216,1.426,28.937l-1.431,1.09c1.668,3.437,0.564,9.452-1.951,12.355l0.92,2.62
			c-1.158,8.092-2.429,16.212-4.972,24.002c1.42-0.01,1.906,0.586,1.451,1.99c-4.277-1.251-3.766,1.807-6.012,2.767
			c-1.312,0.561-3.371,0.683-5.041,1.134c-1.916-0.513-1.269-4.42,0.65-4.552c0.557-0.801,1.623-1.334,3.198-1.6
			c2.834-7.875,4.532-16.207,5.093-24.997l1.462-0.714c0.185-0.568,0.402-0.56,0.65,0c0.01,4.581,0.949,1.528,0.724-1.036
			c-0.004-0.041-0.319,0.141-0.724,0.386c-1.597-3.803-0.982-8.894,1.3-12.355c0.311-3.761,1.3-9.448,1.3-12.68V28.411
			c0-3.214-7.602-7.048-9.39-9.467c-3.893-5.269-0.63-11.554,4.841-13.94l7.15-2.278H268.333z M270.281,37.193
			c-1.692-0.269-1.344,0.296-1.323,1.639c0.191,12.558,3.414,36.248,7.1,48.212c0.325,1.056-0.53,1.839,1.377,1.512
			C273.446,71.742,270.9,54.51,270.281,37.193z"/>
		<path style="fill:#DFDFDE;" d="M250.128,65.151c0.961-3.188,1.423-6.854,1.858-10.171c0.881-6.709,3.016-19.589,1.892-25.767
			c-0.411-2.262-2.207-3.511-2.443-5.678c3.047,1.904,3.707,6.132,3.952,9.431l-5.912,47.791c-1.111,0.018-1.407,0.372-1.249-0.915
			c0.576-4.708,1.456-9.289,1.903-14.041C250.148,65.586,250.108,65.366,250.128,65.151z"/>
		<path style="fill:#DEDEDD;" d="M270.281,37.193c0.619,17.317,3.166,34.549,7.153,51.363c-1.907,0.327-1.051-0.456-1.377-1.512
			c-3.685-11.964-6.909-35.654-7.1-48.212C268.937,37.489,268.588,36.924,270.281,37.193z"/>
		<path style="fill:#E1E2E1;" d="M276.786,9.228c-5.295-6.205-21.042-5.353-27.958-1.957c8.107-6.136,26.523-4.885,31.859,4.552
			l-3.251-1.944C277.353,9.735,276.989,9.467,276.786,9.228z"/>
		<g>
			
				<linearGradient id="SVGID_1_" gradientUnits="userSpaceOnUse" x1="371.4524" y1="54.8591" x2="370.9281" y2="112.3796" gradientTransform="matrix(0.5312 0 0 0.5313 64.7513 36.2451)">
				<stop  offset="0" style="stop-color:#282823"/>
				<stop  offset="1" style="stop-color:#050606"/>
			</linearGradient>
			<path style="fill:url(#SVGID_1_);" d="M270.934,64.501c1.425,9.502,2.647,19.194,5.861,28.277c0.009,0.865-2.46-0.405-3.26,0.985
				c-1.195,2.074-0.719,3.758-4.008,4.77c-3.009,0.926-14.552,0.879-17.148-0.843c-1.757-1.165-1.558-2.719-2.251-3.928
				c-0.77-1.343-3.455-0.188-3.244-0.968c3.291-8.848,4.424-18.357,5.844-27.644l1.111-1.569c5.205-0.51,10.43-0.617,15.674-0.32
				L270.934,64.501z"/>
			
				<linearGradient id="SVGID_00000000202143265065481860000005829928399148620943_" gradientUnits="userSpaceOnUse" x1="317.8234" y1="54.7934" x2="317.3378" y2="102.5227" gradientTransform="matrix(0.5312 0 0 0.5313 64.7513 36.2451)">
				<stop  offset="0" style="stop-color:#282823"/>
				<stop  offset="1" style="stop-color:#0A0A0B"/>
			</linearGradient>
			<path style="fill:url(#SVGID_00000000202143265065481860000005829928399148620943_);" d="M219.569,63.85l1.048-1.089
				c9.027,0.703,18.168,0.823,27.423,0.361c1.856-0.145,1.997,1.334,1.437,2.679c-1.378,6.64-1.921,20.183-5.045,25.842
				c-0.952,1.724-2.865,1.878-4.708,1.469l-0.644,0.674c-5.697-0.996-11.741-1.188-18.131-0.578l-1.381-1.397
				c0.624-2.062-0.598-4.609-0.65-5.852c-2.182-2.704-2.19-9.005,0-11.705c0.004-0.086,0.63-0.736,0.677-1.574
				C219.759,69.756,219.429,66.773,219.569,63.85z"/>
			<path style="fill:#515153;" d="M251.428,52.796c-0.338,4.085-0.911,8.24-1.3,12.355c0.563,0.217,0.563,0.434,0,0.65h-0.65
				l-0.418-1.323c-8.596-0.537-18.133,0.786-26.61,0.05c-1.146-0.099-2.404-0.654-2.881-0.678c-0.305-0.016-0.89-0.552-1.3-0.65
				c0.364-2.69-1.214-9.262,1.893-10.119L251.428,52.796z"/>
			<path style="fill:#515153;" d="M305.394,63.2c-0.213,0.028-0.437-0.028-0.65,0c-0.07,0.573-0.287,0.79-0.65,0.65
				c-1.039,0.741-2.172,1.307-3.432,1.534c-7.286,1.314-19.279,0.666-26.477-0.234c-0.563-3.908-1.535-8.276-1.951-12.355
				l31.242,0.292C306.946,54.227,304.861,60.19,305.394,63.2z"/>
			<path style="fill:#525253;" d="M284.588,97.664v-4.552c-2.64-2.685,4.122-2.766,6.596-2.749l11.387,0.233
				c0.265-8.614,0.339-17.274,0.222-25.981l1.3-0.765c0.141-0.011,0.44-0.623,0.65-0.65l0.365,35.155
				c-0.463,0.666-1.262,0.557-1.959,0.64C297.523,99.671,289.817,99.139,284.588,97.664z"/>
			<path style="fill:#525253;" d="M239.725,93.112l-0.65,4.552c-0.495,0.134-0.956,1.109-2.905,1.318
				c-2.46,0.264-14.293,0.396-16.144-0.148c-2.133-0.627-2.141-4.129-1.621-5.943c0.218-0.759,1.142-1.003,1.165-1.079
				c5.424,0.517,12-0.69,17.265-0.031C238.447,91.982,239.097,92.973,239.725,93.112z"/>
			
				<linearGradient id="SVGID_00000043453159375335942750000011464683652689456769_" gradientUnits="userSpaceOnUse" x1="422.622" y1="54.2685" x2="422.1596" y2="103.222" gradientTransform="matrix(0.5312 0 0 0.5313 64.7513 36.2451)">
				<stop  offset="0" style="stop-color:#292823"/>
				<stop  offset="1" style="stop-color:#0B0B0B"/>
			</linearGradient>
			<path style="fill:url(#SVGID_00000043453159375335942750000011464683652689456769_);" d="M304.094,63.85l0.003,27.965
				c-6.113,0.468-12.857-0.801-18.835,0.338c-0.355,0.068-0.573,0.928-0.674,0.959c-0.582,0.18-3.521,0.116-4.138-0.088
				c-1.713-0.568-4.167-13.638-4.653-16.154c-0.752-3.887-1.05-7.817-1.612-11.718c0.674-1.077,2.467-0.65,3.567-0.662
				C286.659,64.395,295.317,64.547,304.094,63.85z"/>
			<path style="fill:#515153;" d="M268.984,52.796c0.387,3.474,1.4,8.032,1.951,11.705c-5.962,0.373-12.424-0.803-18.205,0.65
				c0.622-4.064,1.503-8.296,1.951-12.355H268.984z"/>
		</g>
	</g>
</g>
<g>
	<path d="M120.722,242.624c0,2.981-0.372,5.555-1.118,7.72c-0.746,2.166-1.669,4.011-2.769,5.537
		c-1.101,1.527-2.343,2.769-3.727,3.727c-1.384,0.959-2.716,1.704-3.993,2.236c-1.278,0.532-2.432,0.905-3.461,1.118
		c-1.03,0.213-1.756,0.319-2.182,0.319c-1.634,0-3.194-0.372-4.685-1.118c-1.49-0.745-2.805-1.756-3.939-3.035
		c-1.137-1.278-2.041-2.785-2.716-4.525c-0.675-1.738-1.012-3.602-1.012-5.59c0-1.704,0.213-3.389,0.639-5.058
		c0.425-1.667,0.868-3.229,1.331-4.685c0.461-1.455,0.905-2.75,1.331-3.887c0.426-1.135,0.639-2.058,0.639-2.768
		c0-0.142-0.019-0.32-0.053-0.532c-0.036-0.213-0.053-0.426-0.053-0.639c0-0.426,0.141-0.746,0.425-0.959
		c0.568-0.426,1.012-0.745,1.331-0.959c0.319-0.213,0.692-0.319,1.118-0.319c0.495,0,1.206,0.125,2.129,0.373
		c0.922,0.249,1.56,0.372,1.917,0.372c0.354,0,0.762,0,1.224,0c0.461,0,0.94-0.035,1.438-0.106c0.567-0.07,1.134-0.142,1.703-0.213
		c0.922,0,2.2,0.16,3.834,0.479c1.632,0.32,3.247,0.942,4.845,1.864c1.597,0.923,2.963,2.236,4.1,3.939
		C120.153,237.619,120.722,239.856,120.722,242.624z M104.005,258.276c1.917,0,3.62-0.408,5.111-1.224
		c1.491-0.815,2.75-1.933,3.78-3.354c1.028-1.419,1.792-3.069,2.289-4.951c0.496-1.88,0.745-3.85,0.745-5.91
		c0-1.56-0.284-2.91-0.852-4.046c-0.569-1.135-1.296-2.058-2.183-2.769c-0.888-0.709-1.9-1.224-3.035-1.544
		c-1.136-0.32-2.236-0.479-3.301-0.479c-1.421,0-2.662,0.106-3.727,0.319c-1.065,0.213-2.201,0.32-3.408,0.32
		c-0.213,0.639-0.497,1.49-0.852,2.555c-0.356,1.065-0.711,2.183-1.065,3.354c-0.356,1.171-0.657,2.307-0.905,3.407
		c-0.25,1.101-0.373,2.077-0.373,2.928c0,1.065,0.088,2.273,0.266,3.62c0.176,1.349,0.549,2.592,1.118,3.727
		c0.568,1.137,1.366,2.095,2.396,2.875C101.04,257.887,102.371,258.276,104.005,258.276z"/>
	<path d="M159.054,233.679c0,0.639-0.284,1.385-0.852,2.236c-0.569,0.852-1.224,1.917-1.97,3.194s-1.544,2.858-2.396,4.738
		c-0.852,1.882-1.562,4.206-2.129,6.975c-0.356,1.703-0.586,3.62-0.692,5.75c-0.107,2.13-0.516,4.011-1.224,5.643
		c-0.356,0.782-0.835,1.527-1.438,2.236c-0.604,0.71-1.331,1.065-2.182,1.065c-0.57,0-0.942-0.425-1.118-1.278
		c-0.178-0.852-0.267-1.561-0.267-2.13c0-0.922,0.213-2.537,0.639-4.845c0.426-2.306,0.959-4.792,1.597-7.453
		s1.348-5.252,2.13-7.773c0.78-2.519,1.525-4.419,2.236-5.696c-0.143-0.142-0.319-0.267-0.532-0.373
		c-0.213-0.106-0.675-0.16-1.384-0.16c-2.343,0.213-4.278,0.372-5.803,0.479c-1.527,0.106-3.071,0.213-4.631,0.319
		c-1.562,0.106-2.769,0.16-3.62,0.16c-1.349,0-2.592-0.035-3.727-0.106c-1.137-0.07-2.13-0.248-2.981-0.532
		c-0.852-0.283-1.527-0.709-2.023-1.278c-0.497-0.567-0.745-1.348-0.745-2.343c0-0.567,0.195-0.958,0.586-1.171
		c0.39-0.213,0.762-0.319,1.118-0.319c-0.072,0,0.762,0.16,2.502,0.479c1.738,0.319,3.743,0.479,6.016,0.479
		c3.975,0,7.648-0.23,11.02-0.693c3.371-0.461,5.767-0.975,7.187-1.544c0.426-0.142,0.674-0.213,0.745-0.213
		c0.213,0,0.496,0.143,0.852,0.426c0.78,0.426,1.49,0.905,2.129,1.438C158.734,231.922,159.054,232.686,159.054,233.679z"/>
	<path d="M176.623,261.151c0,0.425-0.213,0.835-0.639,1.224c-0.425,0.391-0.905,0.745-1.437,1.065
		c-0.532,0.319-1.048,0.569-1.544,0.745c-0.497,0.178-0.782,0.267-0.852,0.267c-0.639,0-1.118-0.159-1.437-0.479
		c-0.32-0.319-0.57-0.673-0.746-1.064c-0.178-0.39-0.284-0.762-0.319-1.118c-0.036-0.354-0.053-0.602-0.053-0.745
		c0-0.283,0.07-0.656,0.213-1.118c0.142-0.461,0.354-0.905,0.639-1.331c0.283-0.426,0.621-0.799,1.012-1.118
		c0.389-0.32,0.834-0.479,1.331-0.479c0.921,0,1.792,0.391,2.609,1.171C176.213,258.952,176.623,259.945,176.623,261.151z"/>
	<path d="M215.061,242.624c0,2.981-0.372,5.555-1.118,7.72c-0.746,2.166-1.669,4.011-2.769,5.537
		c-1.101,1.527-2.343,2.769-3.727,3.727c-1.384,0.959-2.716,1.704-3.993,2.236s-2.432,0.905-3.461,1.118
		c-1.03,0.213-1.756,0.319-2.182,0.319c-1.634,0-3.194-0.372-4.685-1.118c-1.49-0.745-2.805-1.756-3.939-3.035
		c-1.137-1.278-2.041-2.785-2.716-4.525c-0.675-1.738-1.012-3.602-1.012-5.59c0-1.704,0.213-3.389,0.639-5.058
		c0.425-1.667,0.868-3.229,1.331-4.685c0.461-1.455,0.905-2.75,1.331-3.887c0.426-1.135,0.639-2.058,0.639-2.768
		c0-0.142-0.019-0.32-0.053-0.532c-0.036-0.213-0.053-0.426-0.053-0.639c0-0.426,0.141-0.746,0.426-0.959
		c0.568-0.426,1.012-0.745,1.331-0.959c0.319-0.213,0.692-0.319,1.118-0.319c0.495,0,1.206,0.125,2.129,0.373
		c0.922,0.249,1.56,0.372,1.917,0.372c0.354,0,0.762,0,1.224,0c0.461,0,0.94-0.035,1.438-0.106c0.567-0.07,1.134-0.142,1.703-0.213
		c0.922,0,2.2,0.16,3.834,0.479c1.632,0.32,3.247,0.942,4.845,1.864c1.597,0.923,2.963,2.236,4.1,3.939
		C214.492,237.619,215.061,239.856,215.061,242.624z M198.344,258.276c1.917,0,3.62-0.408,5.111-1.224
		c1.491-0.815,2.75-1.933,3.78-3.354c1.028-1.419,1.792-3.069,2.289-4.951c0.496-1.88,0.745-3.85,0.745-5.91
		c0-1.56-0.284-2.91-0.852-4.046c-0.569-1.135-1.296-2.058-2.183-2.769c-0.888-0.709-1.9-1.224-3.035-1.544
		c-1.136-0.32-2.236-0.479-3.301-0.479c-1.421,0-2.662,0.106-3.727,0.319c-1.065,0.213-2.201,0.32-3.408,0.32
		c-0.213,0.639-0.497,1.49-0.852,2.555c-0.356,1.065-0.711,2.183-1.065,3.354c-0.356,1.171-0.657,2.307-0.905,3.407
		c-0.25,1.101-0.373,2.077-0.373,2.928c0,1.065,0.088,2.273,0.266,3.62c0.176,1.349,0.549,2.592,1.118,3.727
		c0.568,1.137,1.366,2.095,2.396,2.875C195.379,257.887,196.71,258.276,198.344,258.276z"/>
	<path d="M255.203,231.869c0,0.782-0.303,1.935-0.905,3.461c-0.604,1.527-1.314,3.55-2.129,6.069
		c-0.817,2.521-1.651,5.609-2.502,9.263c-0.852,3.657-1.491,7.97-1.917,12.937c-0.072,0.924-0.125,1.67-0.16,2.236
		c-0.036,0.569-0.071,1.065-0.106,1.49c-0.036,0.427-0.053,0.834-0.053,1.225c0,0.39,0,0.833,0,1.331
		c0,0.495,0.053,0.868,0.16,1.118c0.106,0.247,0.16,0.549,0.16,0.905c0,1.632-0.852,2.448-2.556,2.448
		c-0.782,0-1.509-0.391-2.182-1.171c-0.676-0.781-0.976-1.633-0.905-2.555c0.07-0.923,0.229-2.627,0.479-5.111
		c0.248-2.484,0.567-5.218,0.959-8.199c0.389-2.981,0.833-5.926,1.331-8.837c0.495-2.91,1.028-5.252,1.597-7.028
		c-0.782,0.426-1.669,0.852-2.662,1.278c-0.995,0.426-2.06,0.799-3.194,1.118c-1.137,0.32-2.236,0.586-3.301,0.798
		c-1.064,0.213-2.023,0.32-2.874,0.32c-2.981,0-5.467-1.028-7.454-3.088c-1.988-2.058-2.981-4.649-2.981-7.773
		c0-1.845,0.408-3.477,1.224-4.898c0.816-1.419,1.845-2.609,3.088-3.567c1.241-0.959,2.573-1.685,3.993-2.183
		c1.419-0.495,2.732-0.745,3.94-0.745c2.91,0,5.27,0.498,7.08,1.491c1.81,0.994,3.318,3.194,4.526,6.602
		c0.07,0.143,0.123,0.338,0.16,0.586c0.035,0.249,0.053,0.409,0.053,0.479c0,0.284-0.053,0.551-0.16,0.799
		c-0.106,0.249-0.16,0.516-0.16,0.798c0,0.072,0.07,0.32,0.213,0.745c0.78-0.426,1.437-1.206,1.97-2.343
		c0.532-1.134,1.188-2.165,1.97-3.088c0.142,0,0.39,0.106,0.746,0.32c0.354,0.213,0.727,0.479,1.118,0.798
		c0.389,0.32,0.727,0.657,1.011,1.012C255.06,231.268,255.203,231.587,255.203,231.869z M245.301,236.235
		c0-0.639-0.125-1.438-0.373-2.396c-0.25-0.959-0.675-1.88-1.278-2.769c-0.604-0.887-1.403-1.632-2.396-2.236
		c-0.995-0.602-2.236-0.905-3.727-0.905c-1.065,0-2.13,0.178-3.195,0.532c-1.064,0.356-2.023,0.817-2.874,1.384
		c-0.852,0.569-1.544,1.261-2.077,2.076c-0.532,0.817-0.798,1.687-0.798,2.609c0,2.059,0.639,3.425,1.917,4.1
		c1.278,0.675,2.839,1.011,4.685,1.011c0.922,0,1.97-0.106,3.141-0.319c1.171-0.213,2.271-0.479,3.301-0.799
		c1.028-0.319,1.899-0.673,2.609-1.064C244.944,237.07,245.301,236.661,245.301,236.235z"/>
	<path d="M272.024,261.151c0,0.425-0.213,0.835-0.638,1.224c-0.426,0.391-0.906,0.745-1.437,1.065
		c-0.533,0.319-1.049,0.569-1.544,0.745c-0.497,0.178-0.782,0.267-0.853,0.267c-0.638,0-1.116-0.159-1.437-0.479
		c-0.318-0.319-0.569-0.673-0.746-1.064c-0.177-0.39-0.284-0.762-0.318-1.118c-0.038-0.354-0.055-0.602-0.055-0.745
		c0-0.283,0.072-0.656,0.215-1.118c0.141-0.461,0.354-0.905,0.638-1.331c0.282-0.426,0.619-0.799,1.011-1.118
		c0.39-0.32,0.834-0.479,1.331-0.479c0.92,0,1.79,0.391,2.608,1.171C271.616,258.952,272.024,259.945,272.024,261.151z"/>
	<path d="M308.865,260.725c0,0.782-0.337,1.384-1.011,1.81c-0.675,0.426-1.224,0.639-1.651,0.639c-0.638,0-1.118-0.106-1.438-0.319
		c-0.319-0.213-0.675-0.461-1.064-0.746c-0.392-0.283-0.889-0.532-1.492-0.745c-0.604-0.213-1.474-0.319-2.608-0.319
		c-1.421,0-2.681,0.356-3.78,1.064c-1.101,0.711-2.13,1.474-3.087,2.29c-0.959,0.816-1.9,1.58-2.822,2.289
		c-0.924,0.71-1.882,1.065-2.876,1.065c-1.207,0-1.988-0.427-2.343-1.278c-0.355-0.852-0.532-1.952-0.532-3.301
		c0-0.283,0.461-1.331,1.384-3.141c0.922-1.81,2.004-3.815,3.247-6.016c1.242-2.2,2.431-4.312,3.568-6.336
		c1.134-2.023,1.916-3.424,2.343-4.205c0.425-0.78,1.028-1.88,1.81-3.301c0.78-1.419,1.579-2.857,2.396-4.312
		c0.815-1.454,1.507-2.732,2.076-3.833c0.568-1.1,0.852-1.757,0.852-1.97c0-0.495-0.108-0.815-0.32-0.958
		c-0.213-0.142-0.426-0.213-0.638-0.213c-0.497,0-1.581,0.284-3.247,0.852c-1.67,0.569-3.445,1.171-5.325,1.81
		c-1.881,0.639-3.656,1.242-5.323,1.81c-1.669,0.569-2.716,0.852-3.141,0.852c-0.072,0-0.284-0.176-0.639-0.532
		c-0.143-0.213-0.267-0.425-0.373-0.639c-0.106-0.213-0.159-0.425-0.159-0.639c0-0.283,0.833-0.887,2.502-1.81
		c1.667-0.922,3.674-1.863,6.017-2.821c2.343-0.959,4.738-1.81,7.187-2.556c2.449-0.745,4.455-1.118,6.017-1.118
		c0.922,0,1.738,0.285,2.449,0.852c0.709,0.569,1.065,1.349,1.065,2.343c0,1.065-0.392,2.521-1.171,4.365
		c-0.783,1.847-1.776,3.87-2.982,6.069c-1.207,2.201-2.502,4.472-3.887,6.814c-1.384,2.343-2.68,4.49-3.886,6.442
		c-1.208,1.953-2.236,3.62-3.088,5.004c-0.852,1.384-1.315,2.255-1.384,2.609c0.496-0.283,1.134-0.549,1.917-0.799
		c0.779-0.248,1.579-0.479,2.395-0.692c0.815-0.213,1.597-0.389,2.343-0.532c0.746-0.141,1.331-0.213,1.757-0.213
		c0.568,0,1.347,0.072,2.343,0.213c0.993,0.143,1.986,0.373,2.981,0.692c0.993,0.32,1.845,0.764,2.555,1.331
		C308.509,259.165,308.865,259.874,308.865,260.725z"/>
	<path d="M349.539,242.624c0,2.981-0.373,5.555-1.119,7.72c-0.745,2.166-1.669,4.011-2.768,5.537
		c-1.102,1.527-2.343,2.769-3.727,3.727c-1.384,0.959-2.716,1.704-3.993,2.236s-2.432,0.905-3.46,1.118
		c-1.03,0.213-1.757,0.319-2.184,0.319c-1.634,0-3.194-0.372-4.684-1.118c-1.492-0.745-2.805-1.756-3.941-3.035
		c-1.135-1.278-2.041-2.785-2.714-4.525c-0.676-1.738-1.012-3.602-1.012-5.59c0-1.704,0.213-3.389,0.639-5.058
		c0.426-1.667,0.868-3.229,1.33-4.685c0.461-1.455,0.906-2.75,1.331-3.887c0.425-1.135,0.638-2.058,0.638-2.768
		c0-0.142-0.018-0.32-0.053-0.532c-0.037-0.213-0.054-0.426-0.054-0.639c0-0.426,0.142-0.746,0.427-0.959
		c0.567-0.426,1.011-0.745,1.33-0.959c0.32-0.213,0.692-0.319,1.119-0.319c0.496,0,1.206,0.125,2.13,0.373
		c0.922,0.249,1.56,0.372,1.916,0.372c0.355,0,0.763,0,1.225,0c0.46,0,0.939-0.035,1.437-0.106c0.568-0.07,1.135-0.142,1.704-0.213
		c0.922,0,2.199,0.16,3.833,0.479c1.631,0.32,3.247,0.942,4.844,1.864c1.598,0.923,2.964,2.236,4.1,3.939
		C348.971,237.619,349.539,239.856,349.539,242.624z M332.822,258.276c1.916,0,3.62-0.408,5.111-1.224
		c1.49-0.815,2.75-1.933,3.78-3.354c1.028-1.419,1.792-3.069,2.289-4.951c0.496-1.88,0.746-3.85,0.746-5.91
		c0-1.56-0.284-2.91-0.852-4.046c-0.569-1.135-1.296-2.058-2.182-2.769c-0.889-0.709-1.9-1.224-3.035-1.544
		c-1.137-0.32-2.236-0.479-3.301-0.479c-1.421,0-2.662,0.106-3.727,0.319c-1.065,0.213-2.202,0.32-3.408,0.32
		c-0.213,0.639-0.497,1.49-0.852,2.555c-0.356,1.065-0.71,2.183-1.064,3.354c-0.356,1.171-0.657,2.307-0.906,3.407
		c-0.25,1.101-0.373,2.077-0.373,2.928c0,1.065,0.088,2.273,0.267,3.62c0.177,1.349,0.55,2.592,1.119,3.727
		c0.567,1.137,1.365,2.095,2.395,2.875C329.857,257.887,331.188,258.276,332.822,258.276z"/>
	<path d="M385.954,260.725c0,0.782-0.337,1.384-1.011,1.81c-0.675,0.426-1.224,0.639-1.651,0.639c-0.638,0-1.118-0.106-1.438-0.319
		c-0.319-0.213-0.675-0.461-1.064-0.746c-0.392-0.283-0.889-0.532-1.492-0.745c-0.604-0.213-1.474-0.319-2.608-0.319
		c-1.421,0-2.681,0.356-3.78,1.064c-1.101,0.711-2.13,1.474-3.087,2.29c-0.959,0.816-1.9,1.58-2.822,2.289
		c-0.924,0.71-1.882,1.065-2.876,1.065c-1.207,0-1.988-0.427-2.343-1.278c-0.355-0.852-0.532-1.952-0.532-3.301
		c0-0.283,0.461-1.331,1.384-3.141c0.922-1.81,2.004-3.815,3.247-6.016c1.242-2.2,2.431-4.312,3.568-6.336
		c1.134-2.023,1.916-3.424,2.343-4.205c0.426-0.78,1.028-1.88,1.81-3.301c0.78-1.419,1.579-2.857,2.396-4.312
		c0.815-1.454,1.507-2.732,2.076-3.833c0.568-1.1,0.852-1.757,0.852-1.97c0-0.495-0.108-0.815-0.32-0.958
		c-0.213-0.142-0.425-0.213-0.638-0.213c-0.497,0-1.581,0.284-3.247,0.852c-1.67,0.569-3.445,1.171-5.325,1.81
		c-1.881,0.639-3.656,1.242-5.323,1.81c-1.669,0.569-2.716,0.852-3.141,0.852c-0.072,0-0.284-0.176-0.639-0.532
		c-0.143-0.213-0.267-0.425-0.373-0.639c-0.106-0.213-0.159-0.425-0.159-0.639c0-0.283,0.833-0.887,2.502-1.81
		c1.667-0.922,3.674-1.863,6.017-2.821c2.343-0.959,4.738-1.81,7.187-2.556c2.449-0.745,4.455-1.118,6.017-1.118
		c0.922,0,1.738,0.285,2.449,0.852c0.709,0.569,1.065,1.349,1.065,2.343c0,1.065-0.392,2.521-1.171,4.365
		c-0.783,1.847-1.776,3.87-2.982,6.069c-1.207,2.201-2.502,4.472-3.887,6.814c-1.384,2.343-2.68,4.49-3.886,6.442
		c-1.208,1.953-2.236,3.62-3.088,5.004c-0.852,1.384-1.315,2.255-1.384,2.609c0.496-0.283,1.134-0.549,1.917-0.799
		c0.779-0.248,1.579-0.479,2.395-0.692c0.815-0.213,1.597-0.389,2.343-0.532c0.746-0.141,1.331-0.213,1.757-0.213
		c0.568,0,1.347,0.072,2.343,0.213c0.993,0.143,1.986,0.373,2.981,0.692c0.993,0.32,1.845,0.764,2.555,1.331
		C385.598,259.165,385.954,259.874,385.954,260.725z"/>
	<path d="M434.613,230.379c0,0.284-0.816,0.711-2.449,1.278c-3.408,1.065-6.495,1.988-9.263,2.769
		c-2.769,0.782-5.503,1.775-8.199,2.981c-2.486,1.137-4.331,2.13-5.537,2.981c-1.207,0.852-1.916,1.278-2.13,1.278
		c-0.142,0-0.284-0.054-0.425-0.16c-0.143-0.106-0.25-0.16-0.319-0.16c-0.356,0.356-0.924,0.905-1.704,1.651
		c-0.782,0.745-1.348,1.403-1.703,1.97c0.141,0.143,0.355,0.25,0.639,0.32c0.282,0.071,0.601,0.143,0.957,0.213
		c0.355,0.072,0.746,0.106,1.171,0.106c0.709,0,1.917,0.143,3.62,0.426c1.704,0.284,3.442,0.782,5.218,1.49
		c1.774,0.711,3.354,1.722,4.738,3.035c1.384,1.315,2.076,2.965,2.076,4.951c0,1.208-0.586,2.273-1.757,3.195
		c-1.171,0.923-2.485,1.704-3.939,2.343c-1.456,0.639-2.874,1.118-4.259,1.437c-1.385,0.319-2.29,0.479-2.716,0.479
		c-1.349,0-2.555-0.549-3.62-1.651c-1.065-1.1-1.597-2.324-1.597-3.673c0-0.283,0.213-0.426,0.638-0.426
		c0.496,0,1.047,0.09,1.651,0.267c0.602,0.178,1.188,0.266,1.757,0.266c0.141,0,0.638-0.088,1.49-0.266
		c0.852-0.176,1.757-0.461,2.716-0.852c0.959-0.389,1.81-0.834,2.555-1.331c0.746-0.496,1.118-1.065,1.118-1.704
		c0-0.425-0.337-0.815-1.011-1.171c-0.675-0.354-1.438-0.674-2.289-0.958c-0.852-0.283-1.688-0.496-2.503-0.639
		c-0.816-0.142-1.402-0.213-1.757-0.213c-0.425,0-0.852,0.037-1.278,0.106c-0.425,0.072-1.137,0.107-2.13,0.107
		c-0.638,0-1.384-0.053-2.236-0.16c-0.851-0.106-1.686-0.319-2.502-0.639c-0.818-0.319-1.51-0.815-2.076-1.49
		c-0.569-0.674-0.852-1.544-0.852-2.609c0-0.496,0.426-1.366,1.278-2.609c0.852-1.241,1.863-2.484,3.035-3.727
		c1.171-1.241,2.359-2.343,3.566-3.301c1.207-0.959,2.2-1.438,2.982-1.438c0.213,0,0.354,0.09,0.425,0.267
		c0.071,0.178,0.213,0.266,0.427,0.266c1.065-0.495,2.502-1.1,4.312-1.81c1.81-0.709,3.708-1.384,5.696-2.023
		c1.986-0.639,3.939-1.188,5.857-1.651c1.916-0.461,3.477-0.692,4.685-0.692c1.49,0,2.803,0.09,3.939,0.266
		C434.044,229.652,434.613,229.953,434.613,230.379z"/>
</g>
<g>
	<path d="M188.082,328.682c0,1.443-0.393,2.672-1.177,3.691c-0.785,1.018-2.132,1.527-4.041,1.527c-1.316,0-2.641-0.232-3.978-0.699
		c-1.337-0.467-2.641-1.083-3.914-1.847c-1.273-0.764-2.493-1.654-3.659-2.672c-1.168-1.018-2.218-2.078-3.151-3.182
		c-0.085,0.381-0.213,0.933-0.382,1.654c-0.17,0.722-0.382,1.443-0.636,2.163c-0.255,0.722-0.541,1.348-0.859,1.878
		c-0.319,0.532-0.648,0.796-0.987,0.796c-0.552,0-1.156-0.276-1.814-0.827c-0.659-0.551-1.316-1.284-1.973-2.196
		c-0.658-0.912-1.294-1.963-1.909-3.151c-0.616-1.188-1.156-2.419-1.622-3.692c-1.231-3.521-2.016-6.289-2.355-8.304
		c-0.34-2.015-0.509-3.108-0.509-3.278c0-0.255,0.042-0.486,0.127-0.699c0.085-0.213,0.275-0.319,0.573-0.319
		c0.466,0,0.816,0.139,1.05,0.414c0.233,0.277,0.392,0.627,0.477,1.051c0.212,0.892,0.498,1.921,0.859,3.087
		c0.36,1.167,0.764,2.365,1.209,3.595c0.445,1.231,0.912,2.43,1.4,3.596c0.487,1.167,0.965,2.217,1.432,3.149
		c0.466,0.935,0.912,1.686,1.336,2.26c0.424,0.573,0.785,0.859,1.082,0.859c0.296,0,0.519-0.244,0.668-0.733
		c0.148-0.488,0.265-1.049,0.35-1.686c0.084-0.636,0.137-1.251,0.159-1.845c0.021-0.594,0.032-0.997,0.032-1.21
		c-0.213-0.381-0.372-0.827-0.477-1.336c-0.106-0.509-0.16-0.932-0.16-1.273c0-0.551,0.137-1.018,0.414-1.4
		c0.275-0.382,0.541-0.574,0.795-0.574c0.169,0,0.286,0.023,0.35,0.065c0.063,0.042,0.159,0.085,0.286,0.127
		c0.127,0,0.232-0.01,0.318-0.032c0.085-0.02,0.191-0.031,0.319-0.031c0.084,0,0.18,0.031,0.286,0.096
		c0.105,0.063,0.223,0.244,0.35,0.54c0.551,1.444,1.336,2.928,2.355,4.456c1.018,1.527,2.164,2.907,3.437,4.137
		c1.273,1.231,2.651,2.249,4.137,3.055c1.484,0.806,2.991,1.208,4.518,1.208c0.551,0,1.06-0.179,1.527-0.54
		c0.467-0.36,0.7-0.838,0.7-1.432c0-1.782-0.181-3.606-0.541-5.474c-0.361-1.866-0.849-3.776-1.464-5.727
		c-0.616-1.951-1.327-3.935-2.132-5.951c-0.806-2.014-1.634-4.083-2.482-6.204c-0.722-1.782-1.411-3.192-2.068-4.232
		c-0.659-1.04-1.231-1.867-1.718-2.482c-0.489-0.614-0.881-1.124-1.178-1.527c-0.297-0.403-0.445-0.901-0.445-1.495
		c0-0.721,0.264-1.251,0.795-1.591c0.53-0.339,1.092-0.509,1.686-0.509c0.339,0,0.721,0.329,1.146,0.986
		c0.424,0.659,0.869,1.506,1.337,2.546c0.466,1.04,0.932,2.196,1.4,3.468c0.467,1.273,0.933,2.546,1.4,3.819
		c0.678,1.867,1.442,3.872,2.291,6.014c0.849,2.143,1.644,4.286,2.387,6.428c0.742,2.143,1.369,4.211,1.877,6.204
		C187.828,325.394,188.082,327.154,188.082,328.682z"/>
	<path d="M204.566,322.063c0,0.933-0.127,1.825-0.382,2.674c-0.255,0.849-0.595,1.591-1.018,2.227
		c-0.425,0.637-0.923,1.135-1.496,1.496c-0.573,0.361-1.199,0.54-1.878,0.54c-1.188,0-2.122-0.338-2.8-1.018
		c-0.679-0.678-1.199-1.463-1.56-2.355c-0.361-0.89-0.595-1.792-0.7-2.705c-0.106-0.912-0.159-1.6-0.159-2.069
		c0-0.764,0.116-1.622,0.35-2.577c0.233-0.955,0.551-1.835,0.955-2.641c0.403-0.806,0.859-1.484,1.369-2.037
		c0.509-0.551,1.039-0.827,1.591-0.827c0.127,0,0.328,0.043,0.605,0.127c0.275,0.086,0.562,0.214,0.859,0.382
		c0.296,0.17,0.562,0.381,0.796,0.636c0.232,0.255,0.391,0.552,0.477,0.892c0.467,0.043,0.933,0.213,1.4,0.509
		c0.467,0.298,0.721,0.531,0.764,0.7c0.339,1.103,0.562,2.206,0.668,3.31C204.512,320.43,204.566,321.342,204.566,322.063z
		 M201.701,320.918c0-0.637-0.063-1.305-0.191-2.006c-0.127-0.699-0.382-1.409-0.764-2.131c-0.085,0.042-0.191,0.063-0.319,0.063
		c-0.17,0-0.308-0.022-0.414-0.063c-0.106-0.042-0.202-0.065-0.286-0.065c-0.509,0-0.913,0.139-1.209,0.414
		c-0.298,0.277-0.521,0.637-0.669,1.083c-0.149,0.445-0.244,0.923-0.286,1.432c-0.042,0.509-0.063,0.997-0.063,1.463
		c0,0.469,0.021,0.987,0.063,1.56c0.042,0.572,0.137,1.114,0.286,1.623c0.148,0.509,0.35,0.944,0.605,1.304
		c0.255,0.361,0.593,0.541,1.018,0.541c0.424,0,0.785-0.222,1.082-0.668c0.296-0.446,0.53-0.965,0.7-1.56
		c0.169-0.593,0.286-1.177,0.35-1.75C201.67,321.586,201.701,321.172,201.701,320.918z"/>
	<path d="M216.466,318.054c0,0.255-0.127,0.498-0.381,0.731s-0.541,0.446-0.859,0.636c-0.319,0.191-0.626,0.341-0.923,0.446
		c-0.298,0.106-0.467,0.159-0.509,0.159c-0.382,0-0.669-0.096-0.859-0.286c-0.191-0.191-0.34-0.403-0.446-0.637
		c-0.106-0.233-0.17-0.455-0.191-0.668c-0.022-0.212-0.032-0.36-0.032-0.446c0-0.169,0.042-0.391,0.127-0.668
		c0.084-0.275,0.212-0.54,0.382-0.795c0.169-0.255,0.371-0.478,0.604-0.668c0.233-0.191,0.498-0.287,0.796-0.287
		c0.55,0,1.071,0.233,1.559,0.7C216.222,316.739,216.466,317.332,216.466,318.054z M215.576,325.945
		c0.212,0,0.434,0.128,0.668,0.382c0.232,0.255,0.434,0.552,0.604,0.89c0.169,0.341,0.308,0.711,0.414,1.114
		c0.105,0.404,0.159,0.731,0.159,0.986c0,0.467-0.223,0.87-0.668,1.21c-0.446,0.341-1.22,0.509-2.323,0.509
		c-0.34,0-0.69-0.105-1.051-0.318c-0.361-0.212-0.541-0.531-0.541-0.955c0-0.127,0.096-0.392,0.286-0.795
		c0.191-0.403,0.424-0.828,0.7-1.273c0.275-0.446,0.573-0.849,0.891-1.21C215.034,326.126,215.321,325.945,215.576,325.945z"/>
	<path d="M267.443,331.291c0,2.291-0.532,3.809-1.592,4.55c-1.06,0.742-2.842,1.114-5.345,1.114c-0.85,0-1.857-0.117-3.024-0.35
		c-1.167-0.233-2.291-0.583-3.372-1.049c-1.082-0.466-1.995-1.04-2.737-1.719c-0.743-0.678-1.113-1.464-1.113-2.355
		c0-0.042,0.032-0.264,0.096-0.668c0.063-0.403,0.159-0.827,0.286-1.273s0.286-0.849,0.477-1.21c0.191-0.36,0.391-0.54,0.604-0.54
		c0.424,0,0.668,0.117,0.732,0.349c0.063,0.234,0.096,0.628,0.096,1.177c0,0.764,0.264,1.444,0.795,2.037
		c0.53,0.595,1.177,1.104,1.941,1.527c0.764,0.426,1.58,0.743,2.45,0.955c0.869,0.213,1.645,0.318,2.323,0.318
		c0.551,0,1.114-0.031,1.686-0.096c0.573-0.063,1.091-0.201,1.559-0.414c0.467-0.212,0.838-0.509,1.114-0.89
		c0.276-0.382,0.414-0.892,0.414-1.527c0-0.551-0.053-1.114-0.159-1.686c-0.106-0.573-0.318-1.325-0.636-2.259
		c-0.318-0.933-0.774-2.132-1.368-3.596c-0.595-1.464-1.358-3.362-2.291-5.696c-1.995-4.921-3.288-8.601-3.882-11.041
		c-0.595-2.439-0.913-3.745-0.954-3.914c-0.34,0.043-0.722,0.149-1.146,0.318c-0.424,0.171-0.859,0.35-1.305,0.541
		c-0.446,0.191-0.881,0.372-1.305,0.54c-0.425,0.171-0.786,0.319-1.082,0.446c-0.891,0.341-1.697,0.733-2.419,1.177
		c-0.722,0.446-1.357,0.87-1.909,1.273c-0.551,0.404-1.018,0.743-1.4,1.018c-0.382,0.277-0.7,0.414-0.955,0.414
		c-0.636,0-1.018-0.296-1.146-0.89c-0.127-0.594-0.191-1.103-0.191-1.527c0-0.466,0.531-1.008,1.591-1.623
		c1.061-0.614,2.398-1.241,4.009-1.878c1.612-0.636,3.362-1.262,5.251-1.878c1.888-0.614,3.66-1.155,5.314-1.622
		c1.655-0.467,3.055-0.849,4.201-1.146c1.145-0.296,1.781-0.446,1.909-0.446c0.296,0,0.477,0.086,0.541,0.255
		c0.063,0.171,0.094,0.319,0.094,0.446c0,0.255-0.307,0.552-0.923,0.892s-1.336,0.699-2.163,1.082
		c-0.827,0.381-1.686,0.742-2.578,1.082c-0.89,0.341-1.612,0.616-2.163,0.827l-0.7,0.255c0.211,0.341,0.402,0.659,0.572,0.955
		c0.17,0.298,0.35,0.679,0.541,1.145c0.191,0.469,0.423,1.072,0.7,1.814c0.275,0.743,0.668,1.708,1.177,2.896
		c0.932,2.291,1.845,4.582,2.737,6.874c0.89,2.291,1.686,4.422,2.386,6.396c0.7,1.973,1.251,3.714,1.655,5.218
		C267.241,329.393,267.443,330.527,267.443,331.291z"/>
	<path d="M293.981,325.246c0,0.381-0.255,0.785-0.764,1.208c-0.509,0.426-1.104,0.818-1.782,1.177
		c-0.679,0.361-1.369,0.668-2.069,0.923c-0.699,0.255-1.22,0.382-1.559,0.382c-0.382,0-0.796-0.105-1.242-0.318
		c-0.445-0.212-0.87-0.466-1.273-0.764c-0.403-0.296-0.753-0.573-1.049-0.827c-0.298-0.255-0.489-0.424-0.572-0.509
		c-0.128,0.127-0.319,0.381-0.574,0.764c-0.255,0.381-0.563,0.795-0.923,1.241c-0.361,0.446-0.742,0.838-1.145,1.177
		c-0.404,0.339-0.818,0.509-1.242,0.509c-1.103,0-2.058-0.594-2.864-1.782c-0.806-1.187-1.475-2.546-2.004-4.073
		c-0.531-1.527-0.933-3.001-1.21-4.423c-0.276-1.421-0.414-2.386-0.414-2.895c0-0.296,0.159-0.541,0.478-0.733
		c0.318-0.191,0.562-0.286,0.731-0.286c0.594,0,0.997,0.202,1.21,0.604c0.212,0.404,0.318,0.839,0.318,1.305
		c0,0.382,0.116,1.061,0.35,2.037c0.232,0.977,0.519,1.973,0.859,2.992c0.338,1.018,0.699,1.919,1.082,2.705
		c0.381,0.785,0.721,1.177,1.018,1.177c0.551,0,1.028-0.35,1.432-1.051c0.403-0.7,0.731-1.505,0.986-2.418
		c0.255-0.912,0.446-1.782,0.572-2.609c0.128-0.828,0.191-1.369,0.191-1.623c0-0.042,0.01-0.18,0.032-0.414
		c0.02-0.233,0.053-0.478,0.096-0.733c0.042-0.255,0.073-0.486,0.094-0.699c0.022-0.213,0.032-0.361,0.032-0.446
		c0-0.296-0.063-0.498-0.191-0.605c-0.127-0.105-0.19-0.329-0.19-0.668c0-0.255,0.127-0.498,0.381-0.731s0.806-0.35,1.655-0.35
		c0.338,0,0.604,0.096,0.795,0.286c0.191,0.191,0.329,0.414,0.414,0.668s0.137,0.5,0.159,0.733s0.032,0.392,0.032,0.477
		c0,0.043-0.021,0.341-0.063,0.892c-0.043,0.551-0.075,1.156-0.096,1.813c-0.022,0.659-0.054,1.284-0.096,1.878
		c-0.043,0.594-0.063,0.955-0.063,1.082c0,0.128,0.063,0.382,0.191,0.764c0.127,0.382,0.286,0.774,0.477,1.177
		c0.191,0.404,0.414,0.764,0.668,1.082c0.255,0.319,0.529,0.478,0.827,0.478c0.509,0,0.987-0.074,1.432-0.223
		c0.446-0.148,0.869-0.318,1.273-0.509c0.403-0.19,0.775-0.36,1.114-0.509c0.339-0.147,0.657-0.222,0.955-0.222
		c0.381,0,0.731,0.086,1.049,0.255C293.822,324.778,293.981,324.991,293.981,325.246z"/>
	<path d="M327.011,339.246c0.085,0.255,0.169,0.488,0.255,0.7c0.085,0.212,0.159,0.446,0.222,0.7
		c0.065,0.255,0.096,0.486,0.096,0.699c0,0.296-0.106,0.541-0.318,0.733c-0.213,0.19-0.457,0.35-0.731,0.477
		c-0.277,0.128-0.541,0.212-0.796,0.255c-0.255,0.042-0.404,0.063-0.446,0.063c-0.255,0-0.722-0.775-1.4-2.322
		c-0.679-1.55-1.412-3.723-2.196-6.523c-0.786-2.8-1.581-6.13-2.387-9.992c-0.807-3.861-1.464-8.104-1.973-12.729
		c-0.085,0.977-0.244,2.112-0.477,3.405c-0.234,1.294-0.583,2.514-1.051,3.66c-0.467,1.145-1.072,2.111-1.813,2.896
		c-0.743,0.785-1.686,1.177-2.833,1.177c-0.807,0-1.718-0.424-2.736-1.273s-2.006-1.856-2.959-3.024
		c-0.955-1.167-1.825-2.355-2.61-3.563c-0.785-1.21-1.367-2.197-1.75-2.959c0.169,1.867,0.455,4.115,0.859,6.746
		c0.403,2.631,1.028,5.41,1.878,8.337c0.084,0.298,0.179,0.52,0.286,0.668c0.105,0.149,0.213,0.308,0.319,0.478
		c0.105,0.17,0.19,0.35,0.255,0.54c0.063,0.191,0.094,0.478,0.094,0.859c0,0.552-0.213,0.955-0.636,1.21
		c-0.424,0.255-0.827,0.381-1.21,0.381c-0.213,0-0.488-0.327-0.827-0.986c-0.341-0.657-0.7-1.517-1.082-2.577
		c-0.382-1.06-0.764-2.237-1.146-3.533c-0.381-1.293-0.731-2.577-1.049-3.85c-0.319-1.273-0.584-2.472-0.796-3.596
		c-0.213-1.123-0.318-2.026-0.318-2.705c0-1.102,0.053-1.866,0.159-2.291c0.105-0.423,0.264-0.741,0.477-0.954v-3.883
		c0-0.593,0.159-1.049,0.478-1.367c0.318-0.319,0.731-0.478,1.241-0.478c0.423,0,0.912,0.361,1.464,1.082
		c0.551,0.722,1.156,1.634,1.813,2.737c0.657,1.104,1.347,2.291,2.069,3.564c0.721,1.273,1.432,2.461,2.132,3.564
		c0.699,1.103,1.378,2.015,2.037,2.737c0.657,0.722,1.282,1.082,1.876,1.082c0.551,0,1.083-0.52,1.592-1.56
		c0.509-1.039,0.986-2.407,1.432-4.104c0.445-1.697,0.837-3.627,1.177-5.792c0.339-2.163,0.614-4.37,0.827-6.619
		c0-0.255-0.022-0.54-0.063-0.859c-0.043-0.318-0.063-0.668-0.063-1.049c0-0.509,0.116-1.06,0.349-1.655
		c0.233-0.593,0.69-0.89,1.368-0.89c0.382,0,0.69,0.106,0.923,0.318c0.233,0.213,0.392,0.478,0.478,0.796
		c0.084,0.318,0.137,0.636,0.159,0.955c0.02,0.318,0.031,0.583,0.031,0.795c0,0.341-0.031,0.902-0.094,1.686
		c-0.065,0.785-0.096,1.984-0.096,3.596c0,1.4,0.105,3.023,0.318,4.868c0.212,1.845,0.498,3.798,0.859,5.855
		c0.36,2.058,0.784,4.18,1.273,6.365c0.486,2.186,1.018,4.317,1.591,6.396c0.573,2.08,1.145,4.041,1.719,5.888
		C325.834,336.223,326.416,337.847,327.011,339.246z"/>
	<path d="M359.404,322.572c0,0.764-0.349,1.709-1.049,2.833c-0.7,1.125-1.645,2.217-2.833,3.277
		c-1.188,1.061-2.567,1.963-4.138,2.705c-1.568,0.743-3.203,1.114-4.9,1.114c-0.763,0-1.568-0.128-2.417-0.382
		c-0.851-0.255-1.678-0.625-2.484-1.113s-1.527-1.083-2.163-1.782c-0.636-0.7-1.104-1.496-1.401-2.387
		c-0.253,0.255-0.562,0.679-0.923,1.273c-0.361,0.594-0.753,1.199-1.176,1.813c-0.426,0.616-0.892,1.146-1.401,1.592
		c-0.509,0.445-1.04,0.668-1.591,0.668s-1.008-0.287-1.369-0.859c-0.361-0.572-0.647-1.21-0.858-1.91
		c-0.213-0.699-0.361-1.368-0.446-2.004c-0.086-0.636-0.128-0.997-0.128-1.082c0-0.509,0.148-1.474,0.446-2.896
		c0.296-1.421,0.742-2.896,1.336-4.423c0.594-1.527,1.347-2.884,2.26-4.073c0.911-1.187,1.982-1.782,3.213-1.782
		c0.466,0,0.775,0.202,0.923,0.605c0.148,0.404,0.222,0.796,0.222,1.177v1.91c0.213,0.17,0.435,0.286,0.669,0.35
		c0.232,0.063,0.445,0.149,0.636,0.255c0.191,0.106,0.339,0.265,0.447,0.477c0.105,0.213,0.158,0.552,0.158,1.018
		c0,0.298-0.022,0.563-0.062,0.796c-0.043,0.233-0.065,0.457-0.065,0.668c0,1.103,0.084,2.185,0.253,3.245
		c0.17,1.061,0.509,2.006,1.018,2.833c0.509,0.827,1.21,1.506,2.101,2.037c0.892,0.531,2.077,0.795,3.564,0.795
		c1.867,0,3.447-0.391,4.74-1.177c1.296-0.784,2.376-1.654,3.246-2.609c0.87-0.955,1.561-1.824,2.07-2.609
		c0.509-0.784,0.932-1.177,1.272-1.177C359.126,321.745,359.404,322.021,359.404,322.572z M337.065,319.771
		c0-0.169-0.043-0.327-0.127-0.477c-0.086-0.148-0.127-0.287-0.127-0.414c0-0.17,0.041-0.318,0.127-0.446
		c0.084-0.127,0.127-0.296,0.127-0.509c0-0.127-0.043-0.222-0.127-0.287c-0.086-0.063-0.127-0.136-0.127-0.222
		c-0.382,0.086-0.774,0.446-1.178,1.082c-0.404,0.637-0.786,1.379-1.145,2.228c-0.361,0.85-0.648,1.708-0.859,2.578
		c-0.214,0.87-0.319,1.58-0.319,2.131c0,0.298,0.086,0.786,0.256,1.464c0.169,0.679,0.359,1.125,0.571,1.336
		c0.722-1.484,1.391-2.927,2.006-4.328C336.757,322.508,337.065,321.13,337.065,319.771z"/>
</g>
</svg>
