<?xml version="1.0" encoding="iso-8859-1"?>
<!-- Generator: Adobe Illustrator 29.4.0, SVG Export Plug-In . SVG Version: 9.03 Build 0)  -->
<svg version="1.1" id="Ebene_1" xmlns="http://www.w3.org/2000/svg" xmlns:xlink="http://www.w3.org/1999/xlink" x="0px" y="0px"
	 viewBox="0 0 512 512" style="enable-background:new 0 0 512 512;" xml:space="preserve">
<g>
	<g>
		<path style="fill:#F3EED8;" d="M218.269,63.2c1.11-1.383,1.506-1.074,1.3,0.65c1.764,1.904,2.717,10.814-0.65,10.404
			c-0.488,1.192-1.792,1.827-3.911,1.905l0.006,8.495c2.079-0.4,3.381,0.035,3.905,1.305c2.254-0.075,3.056,5.362,0.65,5.852
			c-0.167,1.836-0.041,3.663,0.379,5.478c0.598,0.854,15.922,1.093,17.812-0.313l1.315,0.687c0.703-1.396,2.278-2.203,4.724-2.421
			c1.489-2.389,3.599-2.883,6.329-1.481l1.524,0.235c1.044,5.385,19.319,5.663,20.293,0.049l1.591-0.283
			c2.77-1.328,4.771-0.923,6.005,1.214c2.564,0.342,4.247,1.238,5.048,2.687l1.55-0.941c5.741,1.161,11.984,1.869,17.661,0.683
			c0.593-11.239,0.908-22.641,0.945-34.205c0.159-0.578,0.378-0.563,0.65,0l0.619-1.301c61.065,0,122.141,0,183.228,0l0.806,1.301
			v316.026c-0.185,0.568-0.402,0.56-0.65,0c-9.129,5.734-21.143,7.473-31.817,9.018c-13.202,1.91-27.995,2.789-41.343,2.626
			c-0.588-0.007-1.176-0.194-1.775-0.402c-0.618-0.215-1.207-0.514-1.787-0.837c-1.081,1.902-4.081,1.824-5.202,0
			c-1.787,0.201-3.087-0.016-3.901-0.65c-0.679,1.854-3.277,1.939-3.901,0c-1.375,0.707-2.747,0.322-3.901-0.65
			c-0.705,0.261-1.416,0.495-2.145,0.635c-0.717,0.138-1.419,0.258-2.094,0.181c-17.656-2.032-36.407-7.175-52.516-14.279
			c0.73,9.048-2.199,19.178-5.093,27.901c-2.295,6.919-5.746,16.301-9.604,22.353c-0.635,0.996-1.663,1.647-2.67,2.225
			c-0.748,2.505-2.048,4.89-3.901,7.153c1.017,1.657-0.748,4.016-2.601,3.902c-12.241,20.951-31.15,37.266-51.198,50.775
			c-12.234,8.244-25.021,15.757-39.178,20.103c0.153,1.221-1.064,1.775-3.653,1.664c-66.255,0.143-132.44,0.022-198.556-0.363
			c-0.573-146.771-0.573-300.436,0-447.379l0.62-1.301c64.748,0,129.508,0,194.279,0L218.269,63.2z M44.018,74.254h-9.103v11.705
			h9.103V74.254z M69.376,74.254h-8.452v11.705h8.452V74.254z M86.281,74.254v11.705h9.103V74.254H86.281z M120.741,74.254h-9.103
			v11.705h9.103V74.254z M146.098,74.254h-9.103v11.705h9.103V74.254z M163.003,74.254v11.705h8.452V74.254H163.003z M188.36,74.254
			v11.705h9.103V74.254H188.36z M315.797,74.254v11.705h9.103V74.254H315.797z M341.155,74.254v11.705h9.103V74.254H341.155z
			 M366.512,74.254v11.705h9.103V74.254H366.512z M392.519,74.254v11.705h9.103V74.254H392.519z M417.877,74.254v11.705h9.103
			V74.254H417.877z M443.234,74.254v11.705h9.103V74.254H443.234z M467.941,74.254v11.705h9.103V74.254H467.941z"/>
		<path style="fill:#E3DDC6;" d="M489.397,379.226c-19.859,20.904-44.904,37.646-69.783,52.133
			c-60.226,35.068-127.766,59.399-194.844,77.919c26.017-11.307,54.02-29.731,73.488-50.378c6.076-6.444,11.133-13.8,16.888-20.5
			l0.728,1.484l-2.585,5.763l98.04-53.313c0.022-1.384,0.471-2.285,1.345-2.703C439.297,389.198,463.996,388.368,489.397,379.226z"
			/>
		<path style="fill:#DCD7C5;" d="M395.77,388.33c1.332,0.941,2.341,1.251,3.901,0.65c1.284,0.099,2.61-0.054,3.901,0
			c0.685,0.567,1.985,0.784,3.901,0.65c1.715-0.104,3.479,0.028,5.202,0l0.366,3.253l-100.688,54.753l-2.404,0.197
			c2.664-2.795,3.556-6.171,5.197-9.433c1.061-2.11,1.3-2.199,2.601-3.902c1.86-2.266,3.161-4.65,3.901-7.153
			c9.007-16.408,15.474-34.495,16.908-53.322C357.101,380.848,376.027,386.267,395.77,388.33z"/>
		<path style="fill:#E3DDC6;" d="M317.748,434.499c0.6-2.656,2.624-4.827,3.901-7.153
			C323.084,429.991,319.101,432.727,317.748,434.499z"/>
		<path style="fill:#E3DDC6;" d="M399.671,388.98c-1.506,1.568-2.824,1.221-3.901-0.65
			C397.136,388.473,398.864,388.918,399.671,388.98z"/>
		<path style="fill:#E3DDC6;" d="M407.474,389.631c-1.327,0.08-4.349,2.105-3.901-0.65
			C404.906,389.037,406.328,388.582,407.474,389.631z"/>
	</g>
	<g>
		<path style="fill:#C2C2C1;" d="M268.333,2.726c6.932,1.182,17.382,6.481,12.922,15.198c-1.845,3.607-10.321,6.361-10.321,11.137
			v9.754c0,3.472,0.902,10.07,1.3,13.981c2.298,2.775,3.547,9.099,1.951,12.355l1.575,1.967c0.27,2.634,3.192,23.224,5.347,24.709
			c1.768-0.251,2.928,0.177,3.482,1.286c1.968,0.226,1.881,4.161,0,4.552c-1.652-0.466-4.662-0.88-5.837-1.651
			c-1.744-1.145-1.008-3.265-5.216-2.251c-0.684-1.336-0.136-1.934,1.302-1.985c-2.085-8.062-3.734-16.225-4.804-24.491l0.901-2.786
			c-2.353-1.95-3.803-9.223-1.951-11.705l-1.411-0.916c-1.848-6.786-2.689-23.232,1.588-29.065c3.531-2.698,6.268-5.694,8.209-8.986
			c-0.593-1.646-0.571-2.962,0.066-3.95c0.2-0.328,0.363-0.58,0.393-0.564c0.761,0.41,1.869,1.487,2.524,2.136
			c0.186,0.184-3.437-3.504-3.567-2.222l-1.241,0.765c-11.496-5.499-43.754-3.239-20.861,12.776
			c4.279,5.618,3.136,22.216,1.426,28.937l-1.431,1.09c1.668,3.437,0.564,9.452-1.951,12.355l0.92,2.62
			c-1.158,8.092-2.429,16.212-4.972,24.002c1.42-0.01,1.906,0.586,1.451,1.99c-4.277-1.251-3.766,1.807-6.012,2.767
			c-1.312,0.561-3.371,0.683-5.041,1.134c-1.916-0.513-1.269-4.42,0.65-4.552c0.557-0.801,1.623-1.334,3.198-1.6
			c2.834-7.875,4.532-16.207,5.093-24.997l1.462-0.714c0.185-0.568,0.402-0.56,0.65,0c0.01,4.581,0.949,1.528,0.724-1.036
			c-0.004-0.041-0.319,0.141-0.724,0.386c-1.597-3.803-0.982-8.894,1.3-12.355c0.311-3.761,1.3-9.448,1.3-12.68V28.411
			c0-3.214-7.602-7.048-9.39-9.467c-3.893-5.269-0.63-11.554,4.841-13.94l7.15-2.278C255.328,2.726,268.333,2.726,268.333,2.726z
			 M270.281,37.193c-1.692-0.269-1.344,0.296-1.323,1.639c0.191,12.558,3.414,36.248,7.1,48.212c0.325,1.056-0.53,1.839,1.377,1.512
			C273.446,71.742,270.9,54.51,270.281,37.193z"/>
		<path style="fill:#DFDFDE;" d="M250.128,65.151c0.961-3.188,1.423-6.854,1.858-10.171c0.881-6.709,3.016-19.589,1.892-25.767
			c-0.411-2.262-2.207-3.511-2.443-5.678c3.047,1.904,3.707,6.132,3.952,9.431l-5.912,47.791c-1.111,0.018-1.407,0.372-1.249-0.915
			c0.576-4.708,1.456-9.289,1.903-14.041C250.148,65.586,250.108,65.366,250.128,65.151z"/>
		<path style="fill:#DEDEDD;" d="M270.281,37.193c0.619,17.317,3.166,34.549,7.153,51.363c-1.907,0.327-1.051-0.456-1.377-1.512
			c-3.685-11.964-6.909-35.654-7.1-48.212C268.937,37.489,268.588,36.924,270.281,37.193z"/>
		<path style="fill:#E1E2E1;" d="M276.786,9.228c-5.295-6.205-21.042-5.353-27.958-1.957c8.107-6.136,26.523-4.885,31.859,4.552
			l-3.251-1.944C277.353,9.735,276.989,9.467,276.786,9.228z"/>
		<g>
			
				<linearGradient id="SVGID_1_" gradientUnits="userSpaceOnUse" x1="371.4841" y1="457.1406" x2="370.9598" y2="399.6201" gradientTransform="matrix(0.5312 0 0 -0.5313 64.7513 308.2707)">
				<stop  offset="0" style="stop-color:#282823"/>
				<stop  offset="1" style="stop-color:#050606"/>
			</linearGradient>
			<path style="fill:url(#SVGID_1_);" d="M270.934,64.501c1.425,9.502,2.647,19.194,5.861,28.277c0.009,0.865-2.46-0.405-3.26,0.985
				c-1.195,2.074-0.719,3.758-4.008,4.77c-3.009,0.926-14.552,0.879-17.148-0.843c-1.757-1.165-1.558-2.719-2.251-3.928
				c-0.77-1.343-3.455-0.188-3.244-0.968c3.291-8.848,4.424-18.357,5.844-27.644l1.111-1.569c5.205-0.51,10.43-0.617,15.674-0.32
				L270.934,64.501z"/>
			
				<linearGradient id="SVGID_00000159433165490413027580000011518827582885223576_" gradientUnits="userSpaceOnUse" x1="317.849" y1="457.2063" x2="317.3634" y2="409.4771" gradientTransform="matrix(0.5312 0 0 -0.5313 64.7513 308.2707)">
				<stop  offset="0" style="stop-color:#282823"/>
				<stop  offset="1" style="stop-color:#0A0A0B"/>
			</linearGradient>
			<path style="fill:url(#SVGID_00000159433165490413027580000011518827582885223576_);" d="M219.569,63.85l1.048-1.089
				c9.027,0.703,18.168,0.823,27.423,0.361c1.856-0.145,1.997,1.334,1.437,2.679c-1.378,6.64-1.921,20.183-5.045,25.842
				c-0.952,1.724-2.865,1.878-4.708,1.469l-0.644,0.674c-5.697-0.996-11.741-1.188-18.131-0.578l-1.381-1.397
				c0.624-2.062-0.598-4.609-0.65-5.852c-2.182-2.704-2.19-9.005,0-11.705c0.004-0.086,0.63-0.736,0.677-1.574
				C219.759,69.756,219.429,66.773,219.569,63.85z"/>
			<path style="fill:#515153;" d="M251.428,52.796c-0.338,4.085-0.911,8.24-1.3,12.355c0.563,0.217,0.563,0.434,0,0.65h-0.65
				l-0.418-1.323c-8.596-0.537-18.133,0.786-26.61,0.05c-1.146-0.099-2.404-0.654-2.881-0.678c-0.305-0.016-0.89-0.552-1.3-0.65
				c0.364-2.69-1.214-9.262,1.893-10.119L251.428,52.796z"/>
			<path style="fill:#515153;" d="M305.394,63.2c-0.213,0.028-0.437-0.028-0.65,0c-0.07,0.573-0.287,0.79-0.65,0.65
				c-1.039,0.741-2.172,1.307-3.432,1.534c-7.286,1.314-19.279,0.666-26.477-0.234c-0.563-3.908-1.535-8.276-1.951-12.355
				l31.242,0.292C306.946,54.227,304.861,60.19,305.394,63.2z"/>
			<path style="fill:#525253;" d="M284.588,97.664v-4.552c-2.64-2.685,4.122-2.766,6.596-2.749l11.387,0.233
				c0.265-8.614,0.339-17.274,0.222-25.981l1.3-0.765c0.141-0.011,0.44-0.623,0.65-0.65l0.365,35.155
				c-0.463,0.666-1.262,0.557-1.959,0.64C297.523,99.671,289.817,99.139,284.588,97.664z"/>
			<path style="fill:#525253;" d="M239.725,93.112l-0.65,4.552c-0.495,0.134-0.956,1.109-2.905,1.318
				c-2.46,0.264-14.293,0.396-16.144-0.148c-2.133-0.627-2.141-4.129-1.621-5.943c0.218-0.759,1.142-1.003,1.165-1.079
				c5.424,0.517,12-0.69,17.265-0.031C238.447,91.982,239.097,92.973,239.725,93.112z"/>
			
				<linearGradient id="SVGID_00000121993904178535853570000002738089039290077344_" gradientUnits="userSpaceOnUse" x1="422.6587" y1="457.7311" x2="422.1963" y2="408.7776" gradientTransform="matrix(0.5312 0 0 -0.5313 64.7513 308.2707)">
				<stop  offset="0" style="stop-color:#292823"/>
				<stop  offset="1" style="stop-color:#0B0B0B"/>
			</linearGradient>
			<path style="fill:url(#SVGID_00000121993904178535853570000002738089039290077344_);" d="M304.094,63.85l0.003,27.965
				c-6.113,0.468-12.857-0.801-18.835,0.338c-0.355,0.068-0.573,0.928-0.674,0.959c-0.582,0.18-3.521,0.116-4.138-0.088
				c-1.713-0.568-4.167-13.638-4.653-16.154c-0.752-3.887-1.05-7.817-1.612-11.718c0.674-1.077,2.467-0.65,3.567-0.662
				C286.659,64.395,295.317,64.547,304.094,63.85z"/>
			<path style="fill:#515153;" d="M268.984,52.796c0.387,3.474,1.4,8.032,1.951,11.705c-5.962,0.373-12.424-0.803-18.205,0.65
				c0.622-4.064,1.503-8.296,1.951-12.355H268.984z"/>
		</g>
	</g>
</g>
</svg>
