<?xml version="1.0" encoding="iso-8859-1"?>
<!-- Generator: Adobe Illustrator 29.4.0, SVG Export Plug-In . SVG Version: 9.03 Build 0)  -->
<svg version="1.1" id="Ebene_1" xmlns="http://www.w3.org/2000/svg" xmlns:xlink="http://www.w3.org/1999/xlink" x="0px" y="0px"
	 viewBox="0 0 512 256" style="enable-background:new 0 0 512 256;" xml:space="preserve">
<g>
	<path style="fill:#FBDF83;" d="M505.517,28.745l-4.605,208.83c-0.526,2.279-1.041,4.552-1.986,6.699
		c-2.25,5.11-6.379,9.018-11.835,10.524l-4.935,0.867L24.428,245.57c-10.586-0.944-17.289-9.314-17.933-19.565l4.576-207.497
		C12.039,7.728,20.5,1.402,30.881,0.729l455.814,10.054C496.52,11.826,504.797,18.521,505.517,28.745z M31.407,6.204
		c-8.82,0.703-14.268,5.396-14.971,14.349c-1.334,68.757-3.359,137.552-4.295,206.286c0.928,7.114,5.502,12.482,12.883,13.164
		l456.972,10.076c8.096-0.456,12.911-6.746,13.557-14.444l4.524-205.187c-0.398-8.812-6.612-13.604-15.045-14.307L31.407,6.204z"/>
	<path style="fill:#040505;" d="M31.407,6.204l453.625,9.937c8.433,0.703,14.647,5.495,15.045,14.307l-4.524,205.187
		c-0.646,7.698-5.46,13.987-13.557,14.444L25.025,240.003c-7.381-0.682-11.955-6.05-12.883-13.164
		c0.936-68.734,2.961-137.528,4.295-206.286C17.139,11.6,22.588,6.907,31.407,6.204z M31.417,14.491
		c-4.247,0.43-6.309,2.623-6.689,6.823c-1.121,12.391,0.251,25.692-1.036,38.139c-0.998,47.453-2.216,94.942-2.929,142.372
		c-0.114,7.554-1.014,16.55-0.542,23.903c0.228,3.553,2.977,5.598,6.339,6.02l454.267,10.017c3.072-0.248,5.777-2.063,6.366-5.188
		c1.629-60.255,3.087-120.608,4.002-180.866c0.12-7.876,0.99-16.968,0.559-24.673c-0.232-4.142-2.895-6.241-6.905-6.611
		L31.417,14.491z"/>
	<path style="fill:#FBDF83;" d="M31.417,14.491l453.432,9.934c4.01,0.37,6.673,2.469,6.905,6.611
		c0.431,7.706-0.439,16.798-0.559,24.673c-0.915,60.259-2.373,120.611-4.002,180.866c-0.589,3.125-3.294,4.94-6.366,5.188
		L26.56,231.748c-3.362-0.422-6.111-2.466-6.339-6.02c-0.472-7.353,0.428-16.349,0.542-23.903
		c0.713-47.431,1.931-94.919,2.929-142.372c1.287-12.447-0.085-25.747,1.036-38.139C25.108,17.114,27.17,14.922,31.417,14.491z"/>
</g>
<g>
	<path d="M74.118,105.888l7.179,15.75c-0.944,0.184-1.964,0.234-3.063,0.152c-1.098-0.083-2.117-0.149-3.054-0.2
		c-0.6-0.716-1.154-1.569-1.66-2.562c-0.506-0.992-0.99-2.021-1.45-3.085c-0.46-1.063-0.915-2.113-1.361-3.147
		c-0.447-1.035-0.896-1.967-1.346-2.797c-0.049,0.849-0.076,1.763-0.083,2.743c-0.008,0.981-0.007,1.969,0,2.964
		c0.007,0.996,0.007,1.977,0.001,2.942c-0.007,0.966-0.019,1.859-0.037,2.678c-0.414,0.109-0.899,0.178-1.458,0.21
		c-0.558,0.032-1.145,0.041-1.761,0.027s-1.208-0.056-1.78-0.127c-0.57-0.071-1.045-0.155-1.424-0.251
		c-0.125-5.038-0.049-10.094,0.225-15.168c0.272-5.073,0.451-10.171,0.535-15.293c0.968-0.007,1.958,0.021,2.969,0.087
		c1.011,0.066,1.985,0.11,2.924,0.13c0.022,1.669-0.003,3.426-0.072,5.269c-0.07,1.843-0.094,3.599-0.072,5.269
		c0,0.03,0.022,0.008,0.067-0.064c0.046-0.072,0.099-0.136,0.159-0.194c0.633-0.777,1.208-1.583,1.726-2.421
		c0.517-0.838,1.013-1.69,1.487-2.559c0.474-0.868,0.962-1.735,1.465-2.603c0.504-0.867,1.073-1.733,1.708-2.598
		c0.936,0.08,1.934,0.102,2.991,0.066c1.058-0.035,2.052,0.031,2.988,0.198c-0.378,1.221-0.898,2.44-1.556,3.654
		c-0.658,1.215-1.358,2.43-2.104,3.643c-0.746,1.213-1.484,2.426-2.215,3.64C75.316,103.456,74.673,104.671,74.118,105.888z"/>
	<path d="M86.947,110.915l-0.018,0.79c0.009,0.878,0.03,1.597,0.062,2.154s0.203,1.102,0.515,1.636
		c0.336,0.681,0.824,1.189,1.462,1.525c0.639,0.337,1.267,0.453,1.885,0.349c0.619-0.103,1.147-0.45,1.585-1.042
		c0.438-0.589,0.642-1.485,0.61-2.687c0.292,0.036,0.688,0.052,1.187,0.048c0.499-0.003,1.019-0.014,1.563-0.032
		c0.542-0.017,1.063-0.013,1.562,0.013c0.498,0.026,0.908,0.086,1.229,0.181c-0.076,0.76-0.151,1.504-0.226,2.235
		c-0.075,0.73-0.163,1.409-0.265,2.036c-0.102,0.627-0.224,1.167-0.366,1.617c-0.142,0.452-0.317,0.761-0.526,0.933
		c-0.515,0.691-1.17,1.175-1.969,1.45c-0.797,0.275-1.667,0.431-2.607,0.469c-0.939,0.038-1.9,0.016-2.881-0.063
		c-0.982-0.081-1.883-0.129-2.704-0.147c-0.817-0.135-1.574-0.416-2.27-0.84c-0.78-0.573-1.424-1.312-1.932-2.217
		c-0.507-0.904-0.912-1.894-1.21-2.969c-0.3-1.075-0.494-2.214-0.585-3.417c-0.091-1.202-0.094-2.403-0.009-3.601
		c0.112-1.081,0.229-2.125,0.355-3.133c0.125-1.007,0.374-1.99,0.747-2.947c0.399-0.84,1.002-1.552,1.808-2.135
		c0.805-0.582,1.71-1.017,2.713-1.301c1.003-0.286,2.062-0.43,3.178-0.435c1.115-0.004,2.197,0.137,3.247,0.423
		c1.344,0.265,2.418,0.756,3.224,1.477c0.806,0.72,1.41,1.583,1.814,2.587c0.403,1.004,0.636,2.108,0.698,3.309
		c0.062,1.202,0.035,2.416-0.08,3.644c-0.208,0.054-0.598,0.104-1.17,0.149c-0.574,0.046-1.25,0.09-2.028,0.131
		c-0.778,0.042-1.607,0.068-2.487,0.077c-0.881,0.01-1.725,0.006-2.53-0.012c-0.808-0.018-1.533-0.048-2.177-0.092
		C87.706,111.034,87.238,110.98,86.947,110.915z M92.42,104.228c-0.232-0.151-0.464-0.266-0.697-0.344
		c-0.234-0.078-0.511-0.122-0.833-0.128c-0.704-0.016-1.278,0.045-1.722,0.182c-0.443,0.137-0.8,0.333-1.069,0.591
		c-0.27,0.258-0.474,0.561-0.614,0.909c-0.14,0.348-0.244,0.712-0.311,1.091c-0.066,0.321-0.093,0.547-0.082,0.679
		c0.012,0.132,0.149,0.223,0.412,0.272c0.264,0.05,0.682,0.074,1.253,0.072c0.573-0.002,1.416,0.009,2.53,0.034
		c0.763,0.017,1.334,0.044,1.715,0.082c0.38,0.038,0.651,0.052,0.814,0.04c0.161-0.011,0.243-0.053,0.245-0.126
		c0.002-0.073,0.005-0.226,0.01-0.461c0.013-0.585-0.129-1.145-0.425-1.678C93.351,104.907,92.941,104.503,92.42,104.228z"/>
	<path d="M106.81,100.286l0.747,0.017l-0.003,0.131c-0.107,3.541-0.253,7.153-0.437,10.838c-0.185,3.685-0.213,7.301-0.085,10.846
		c-0.151,0.172-0.519,0.259-1.106,0.261c-0.587,0.001-1.225-0.013-1.914-0.042c-0.689-0.03-1.34-0.066-1.956-0.109
		c-0.614-0.042-1.026-0.037-1.232,0.017c0.187-1.841,0.294-3.712,0.322-5.615c0.026-1.902,0.032-3.791,0.015-5.665
		c-0.019-1.874-0.006-3.725,0.035-5.555c0.04-1.828,0.167-3.604,0.381-5.327l0.001-0.044c0.118-0.026,0.316-0.022,0.594,0.013
		c0.279,0.036,0.49,0.055,0.638,0.058c0.379,0.038,0.906,0.079,1.581,0.123C105.063,100.276,105.87,100.294,106.81,100.286z
		 M101.61,90.597l5.979,0.264c-0.004,0.176-0.004,0.491,0,0.944c0.005,0.455,0.008,0.952,0.011,1.494
		c0.002,0.542,0.005,1.098,0.007,1.669c0.002,0.571-0.001,1.076-0.011,1.515c-0.122,0.173-0.395,0.284-0.821,0.333
		c-0.427,0.05-0.926,0.061-1.498,0.033c-0.571-0.027-1.18-0.07-1.824-0.128c-0.644-0.058-1.245-0.078-1.802-0.062
		c0.019-0.848,0.001-1.735-0.051-2.658C101.547,93.077,101.551,91.942,101.61,90.597z"/>
	<path d="M116.342,102.999c0.148-0.084,0.334-0.183,0.558-0.295c0.223-0.111,0.408-0.225,0.558-0.338
		c0.626-0.426,1.322-0.762,2.09-1.009c0.769-0.246,1.556-0.375,2.364-0.387c0.807-0.011,1.588,0.094,2.347,0.315
		c0.758,0.222,1.439,0.603,2.044,1.143c0.287,0.27,0.502,0.823,0.646,1.661c0.143,0.837,0.224,1.842,0.242,3.013
		c0.018,1.172,0.003,2.453-0.041,3.842c-0.046,1.39-0.099,2.794-0.16,4.213c-0.061,1.419-0.12,2.786-0.178,4.102
		c-0.059,1.317-0.069,2.473-0.033,3.469c-1.029,0.124-1.948,0.168-2.754,0.137c-0.806-0.033-1.722-0.06-2.749-0.082
		c-0.043-0.674-0.056-1.436-0.038-2.285c0.019-0.849,0.045-1.726,0.081-2.633c0.034-0.907,0.054-1.814,0.06-2.722
		c0.004-0.907-0.013-1.757-0.054-2.548c-0.021-0.352-0.042-0.74-0.062-1.166c-0.02-0.425-0.062-0.842-0.127-1.254
		c-0.064-0.412-0.159-0.779-0.283-1.104c-0.125-0.325-0.303-0.577-0.533-0.758c-0.03-0.029-0.059-0.045-0.087-0.046
		c-0.03,0-0.06-0.016-0.088-0.046c-0.232-0.122-0.575-0.225-1.026-0.308c-0.453-0.083-0.901-0.063-1.345,0.058
		c-0.442,0.122-0.844,0.377-1.205,0.764c-0.361,0.387-0.58,0.976-0.656,1.765c-0.081,1.023-0.118,2.025-0.11,3.005
		c0.007,0.982,0.023,1.962,0.045,2.944s0.022,1.955,0.001,2.92c-0.021,0.966-0.101,1.93-0.24,2.894l-0.004,0.175
		c-0.502,0.136-0.936,0.213-1.303,0.235c-0.368,0.021-0.742,0.02-1.123-0.003c-0.381-0.023-0.807-0.055-1.275-0.094
		c-0.468-0.04-1.055-0.038-1.76,0.005c0.08-3.6,0.122-7.2,0.128-10.801c0.006-3.601,0.111-7.331,0.313-11.192
		c0.352,0.038,0.643,0.066,0.877,0.085c0.234,0.02,0.455,0.032,0.66,0.036c0.205,0.005,0.425,0.003,0.661-0.007
		c0.234-0.009,0.529-0.024,0.881-0.046c0.117,0.002,0.323-0.014,0.618-0.052c0.294-0.038,0.587-0.067,0.882-0.09
		c0.293-0.022,0.557-0.024,0.792-0.005c0.234,0.021,0.35,0.074,0.349,0.161c0.047,0.5,0.061,0.909,0.039,1.23
		C116.322,102.223,116.322,102.589,116.342,102.999z"/>
	<path d="M156.866,97.48c0.195,0.443,0.34,0.894,0.433,1.35c0.092,0.457,0.163,0.918,0.211,1.388
		c0.042,0.733,0.063,1.458,0.062,2.175c-0.001,0.718-0.025,1.441-0.07,2.172c-0.122,1.549-0.185,3.055-0.188,4.52
		c-0.003,1.464-0.08,2.956-0.231,4.474l-0.164,1.446c-0.082,1.023-0.265,2.052-0.553,3.084c-0.287,1.033-0.703,1.968-1.249,2.805
		c-0.515,0.691-1.179,1.24-1.995,1.647c-0.817,0.407-1.682,0.717-2.595,0.931c-0.826,0.216-1.658,0.343-2.496,0.384
		c-0.837,0.04-1.679,0.021-2.528-0.056c-0.615-0.073-1.207-0.166-1.777-0.281c-0.57-0.115-1.108-0.295-1.616-0.541
		c-0.508-0.245-0.964-0.555-1.366-0.93c-0.403-0.375-0.729-0.857-0.981-1.449c-0.395-0.741-0.648-1.53-0.761-2.367
		c-0.113-0.837-0.176-1.679-0.187-2.53c-0.038-2.285-0.083-4.576-0.134-6.875c-0.052-2.299,0.02-4.603,0.219-6.913
		c0.057-1.315,0.255-2.636,0.593-3.961c0.336-1.324,0.971-2.488,1.903-3.493c0.299-0.286,0.642-0.542,1.029-0.769
		c0.978-0.446,2.033-0.767,3.167-0.962s2.265-0.25,3.393-0.167c1.127,0.084,2.223,0.306,3.286,0.666
		c1.063,0.36,2.013,0.872,2.85,1.535C155.955,95.543,156.537,96.449,156.866,97.48z M151.922,108.087l-0.022-2.987
		c0-0.029-0.014-0.33-0.045-0.901c-0.032-0.572-0.057-1.106-0.075-1.605c-0.041-0.82-0.25-1.571-0.631-2.253
		c-0.382-0.682-0.906-1.19-1.573-1.528c-0.582-0.247-1.182-0.304-1.801-0.171c-0.618,0.133-1.167,0.37-1.643,0.71
		c-1.045,0.768-1.756,1.763-2.135,2.984c-0.26,1.107-0.424,2.274-0.496,3.502c-0.071,1.229-0.091,2.458-0.059,3.688
		c0.124,1.028,0.203,2.076,0.238,3.146s0.188,2.09,0.461,3.062c0.28,0.592,0.695,1.055,1.246,1.389
		c0.55,0.334,1.148,0.53,1.792,0.588c0.643,0.058,1.29-0.016,1.94-0.221s1.201-0.551,1.651-1.04c0.272-0.345,0.469-0.626,0.59-0.843
		c0.122-0.217,0.201-0.457,0.236-0.72c0.035-0.262,0.05-0.577,0.043-0.943c-0.007-0.366,0.026-0.855,0.098-1.469
		c0.042-0.584,0.075-1.096,0.1-1.535c0.024-0.438,0.037-0.687,0.038-0.746L151.922,108.087z"/>
	<path d="M166.376,103.268c0.118-0.056,0.392-0.167,0.821-0.333c0.429-0.166,0.849-0.317,1.264-0.456
		c0.562-0.163,1.195-0.288,1.902-0.375c0.706-0.086,1.367-0.138,1.983-0.154c0.617-0.015,1.137-0.011,1.563,0.013
		c0.424,0.024,0.637,0.051,0.636,0.08c-0.022,0.996-0.049,1.873-0.08,2.634c-0.033,0.761-0.055,1.441-0.068,2.041
		c-0.013,0.6-0.025,1.149-0.036,1.646c-0.011,0.498-0.007,0.966,0.013,1.406l-0.393-0.14c-0.146-0.062-0.299-0.117-0.459-0.164
		c-0.161-0.047-0.313-0.102-0.459-0.164c-0.35-0.096-0.707-0.176-1.073-0.243c-0.365-0.066-0.562-0.1-0.591-0.101
		c-0.79-0.105-1.515-0.166-2.175-0.18s-1.234,0.076-1.722,0.27c-0.489,0.195-0.87,0.508-1.143,0.941
		c-0.273,0.433-0.405,1.061-0.394,1.879c0.006,1.025,0.015,1.992,0.025,2.899c0.008,0.908,0.003,1.823-0.017,2.745
		c-0.021,0.921-0.034,1.859-0.041,2.81c-0.006,0.952-0.021,1.969-0.045,3.052l-0.004,0.175c-0.502,0.136-0.959,0.213-1.37,0.233
		c-0.412,0.02-0.836,0.018-1.277-0.006c-0.438-0.025-0.915-0.058-1.427-0.097c-0.513-0.041-1.122-0.04-1.827,0.003
		c0.08-3.6,0.122-7.2,0.128-10.801c0.006-3.601,0.111-7.331,0.313-11.192c0.352,0.038,0.643,0.066,0.878,0.085
		c0.234,0.02,0.455,0.032,0.66,0.036c0.205,0.005,0.425,0.003,0.661-0.007c0.234-0.009,0.529-0.024,0.881-0.046
		c0.117,0.002,0.329-0.007,0.638-0.029c0.309-0.022,0.632-0.045,0.97-0.066c0.337-0.021,0.631-0.023,0.881-0.003
		c0.249,0.021,0.373,0.059,0.372,0.118c-0.005,0.234-0.009,0.41-0.012,0.527c-0.003,0.117-0.005,0.212-0.006,0.285
		c-0.001,0.073,0.003,0.154,0.016,0.242C166.376,102.917,166.381,103.063,166.376,103.268z"/>
	<path d="M184.623,94.053l-0.129,5.882c-0.009,0.38-0.01,0.775-0.004,1.185c0.005,0.411,0.003,0.835-0.006,1.273
		c0.91-0.009,1.872-0.032,2.885-0.068c1.013-0.036,2.268-0.082,3.766-0.136c0.199,0.238,0.31,0.584,0.329,1.039
		c0.019,0.455,0.008,0.944-0.032,1.47c-0.041,0.526-0.09,1.06-0.146,1.6c-0.056,0.541-0.059,1.002-0.008,1.384l-6.819-0.15
		c-0.035,1.58-0.069,3.124-0.102,4.631c-0.034,1.508-0.05,2.919-0.05,4.237c0.284,0.417,0.703,0.748,1.255,0.994
		c0.551,0.247,1.149,0.443,1.792,0.589c0.642,0.146,1.292,0.241,1.952,0.285s1.239,0.056,1.738,0.039
		c0.049,0.411,0.098,0.866,0.146,1.364c0.048,0.499,0.081,1.011,0.098,1.539c0.018,0.528-0.001,1.055-0.056,1.581
		c-0.056,0.526-0.162,1.006-0.318,1.442c-1.175,0.032-2.393-0.002-3.651-0.103c-1.26-0.101-2.444-0.296-3.552-0.583
		c-1.108-0.289-2.09-0.705-2.943-1.251c-0.854-0.545-1.46-1.276-1.821-2.192c-0.333-2.261-0.505-4.395-0.52-6.401
		c-0.015-2.005,0.016-4.077,0.093-6.212c-0.471,0.019-0.963,0.023-1.476,0.012c-0.514-0.011-1.078-0.024-1.692-0.038l0.25-5.353
		c0.584,0.043,1.134,0.069,1.647,0.081s1.005,0.022,1.475,0.032c0.014-0.643,0.014-1.338,0.002-2.086
		c-0.014-0.747-0.011-1.5,0.006-2.261c0.017-0.761,0.04-1.492,0.07-2.194s0.08-1.33,0.152-1.885
		c0.382-0.049,0.801-0.055,1.254-0.016c0.454,0.039,0.929,0.086,1.427,0.141c0.498,0.055,0.996,0.103,1.494,0.142
		C183.625,94.104,184.123,94.1,184.623,94.053z"/>
	<path d="M209.431,118.579l-0.13,5.882c-0.498-0.069-0.996-0.095-1.495-0.077c-0.499,0.019-0.998,0.044-1.498,0.077
		c-0.5,0.033-0.977,0.06-1.432,0.078c-0.456,0.019-0.873-0.004-1.253-0.071c-0.052-0.353-0.074-0.931-0.071-1.737
		c0.003-0.805,0.008-1.713,0.016-2.722c0.008-1.01,0.024-2.07,0.049-3.183c0.024-1.112,0.055-2.188,0.093-3.226
		c0.038-1.039,0.073-1.967,0.105-2.787c0.033-0.819,0.054-1.448,0.064-1.887c-0.47-0.01-0.961-0.021-1.475-0.033
		s-1.064-0.008-1.65,0.008l-0.014-5.358c0.615,0.013,1.18,0.026,1.693,0.037c0.513,0.011,1.004,0.038,1.474,0.077
		c-0.043-0.733-0.01-1.522,0.096-2.37c0.105-0.846,0.336-1.668,0.691-2.466c0.354-0.797,0.848-1.519,1.478-2.164
		c0.631-0.644,1.448-1.117,2.452-1.417c1.241-0.382,2.589-0.608,4.042-0.679c1.455-0.07,2.87-0.061,4.247,0.028
		c0.137,0.442,0.222,0.927,0.254,1.455s0.027,1.054-0.014,1.581c-0.041,0.526-0.096,1.038-0.166,1.533
		c-0.069,0.497-0.138,0.949-0.206,1.357c-0.352-0.037-0.754-0.045-1.209-0.027c-0.456,0.02-0.934,0.053-1.433,0.101
		c-0.501,0.047-1.001,0.103-1.5,0.164c-0.501,0.063-0.957,0.118-1.368,0.168c-0.678,0.102-1.103,0.437-1.277,1.004
		c-0.175,0.567-0.196,1.218-0.065,1.953l6.73,0.148c-0.067,0.321-0.087,0.635-0.065,0.943c0.021,0.308,0.014,0.667-0.023,1.076
		c-0.007,0.322-0.013,0.578-0.017,0.768c-0.004,0.19-0.016,0.388-0.036,0.592c-0.019,0.205-0.047,0.468-0.083,0.789
		c-0.038,0.322-0.091,0.76-0.161,1.314c-1.493-0.121-2.746-0.221-3.757-0.303c-1.009-0.081-1.969-0.146-2.878-0.195L209.431,118.579
		z"/>
	<path d="M228.881,122.696c-0.149,0.084-0.334,0.184-0.557,0.295c-0.223,0.112-0.409,0.225-0.557,0.338
		c-0.625,0.426-1.323,0.762-2.091,1.008c-0.77,0.247-1.557,0.376-2.363,0.387c-0.807,0.012-1.59-0.093-2.348-0.315
		c-0.759-0.222-1.438-0.603-2.043-1.144c-0.318-0.271-0.54-0.824-0.668-1.662c-0.128-0.837-0.202-1.841-0.22-3.013
		c-0.018-1.171-0.005-2.452,0.041-3.842c0.045-1.389,0.099-2.793,0.16-4.212c0.06-1.418,0.12-2.786,0.178-4.103
		c0.058-1.316,0.069-2.472,0.033-3.469c1.029-0.123,1.946-0.168,2.753-0.136c0.807,0.033,1.722,0.06,2.75,0.083
		c0.044,0.674,0.057,1.436,0.038,2.284c-0.019,0.849-0.046,1.727-0.081,2.633c-0.035,0.907-0.055,1.814-0.06,2.722
		c-0.005,0.907,0.013,1.757,0.054,2.548c0.021,0.352,0.042,0.741,0.061,1.166c0.02,0.425,0.062,0.843,0.127,1.254
		c0.064,0.412,0.158,0.78,0.283,1.104c0.125,0.325,0.303,0.577,0.534,0.758c0.028,0.03,0.057,0.045,0.087,0.046
		c0.028,0.001,0.058,0.017,0.087,0.046c0.232,0.123,0.575,0.225,1.028,0.308c0.453,0.083,0.9,0.064,1.344-0.058
		c0.442-0.123,0.844-0.377,1.204-0.764c0.361-0.388,0.58-0.976,0.655-1.765c0.081-0.993,0.117-1.988,0.11-2.984
		c-0.007-0.995-0.021-1.983-0.045-2.965c-0.022-0.981-0.03-1.955-0.023-2.921c0.006-0.966,0.093-1.931,0.262-2.893l0.004-0.176
		c0.502-0.135,0.936-0.213,1.303-0.234c0.368-0.021,0.741-0.021,1.123,0.002c0.38,0.024,0.805,0.055,1.274,0.094
		c0.468,0.04,1.056,0.039,1.761-0.005c-0.079,3.599-0.123,7.2-0.127,10.8c-0.007,3.602-0.111,7.333-0.313,11.192
		c-0.351-0.036-0.644-0.065-0.878-0.085c-0.235-0.02-0.455-0.032-0.66-0.037s-0.426-0.001-0.661,0.007
		c-0.234,0.01-0.528,0.025-0.88,0.046c-0.117-0.002-0.324,0.015-0.618,0.052c-0.294,0.038-0.588,0.067-0.882,0.091
		c-0.293,0.022-0.558,0.023-0.792,0.004c-0.234-0.02-0.35-0.073-0.348-0.161c-0.048-0.499-0.061-0.909-0.039-1.231
		C228.9,123.473,228.9,123.107,228.881,122.696z M219.711,91.488l5.979,0.264c-0.004,0.176-0.004,0.491,0,0.944
		c0.005,0.454,0.008,0.952,0.011,1.494c0.003,0.542,0.005,1.098,0.007,1.669c0.002,0.571-0.001,1.076-0.011,1.515
		c-0.121,0.173-0.395,0.285-0.822,0.333c-0.426,0.05-0.924,0.061-1.496,0.033c-0.572-0.027-1.181-0.07-1.824-0.128
		c-0.645-0.059-1.246-0.079-1.803-0.062c0.019-0.848,0.001-1.735-0.051-2.658C219.648,93.969,219.652,92.834,219.711,91.488z
		 M227.805,91.667l5.979,0.264c-0.004,0.176-0.004,0.491,0.001,0.944c0.004,0.454,0.007,0.952,0.011,1.494
		c0.002,0.542,0.004,1.098,0.007,1.669c0.002,0.571-0.002,1.076-0.012,1.515c-0.121,0.173-0.395,0.284-0.821,0.333
		c-0.427,0.05-0.924,0.061-1.497,0.033c-0.572-0.027-1.181-0.07-1.824-0.128c-0.645-0.058-1.246-0.078-1.802-0.062
		c0.019-0.848,0.001-1.735-0.052-2.658C227.743,94.147,227.746,93.012,227.805,91.667z"/>
	<path d="M244.28,104.986c0.117-0.056,0.391-0.167,0.82-0.334c0.429-0.166,0.85-0.317,1.265-0.455
		c0.562-0.163,1.195-0.288,1.902-0.375c0.705-0.086,1.366-0.138,1.983-0.154c0.617-0.015,1.137-0.011,1.563,0.013
		c0.424,0.024,0.636,0.051,0.635,0.08c-0.022,0.996-0.049,1.873-0.08,2.634c-0.032,0.761-0.054,1.441-0.067,2.041
		c-0.013,0.6-0.025,1.149-0.036,1.646c-0.011,0.498-0.007,0.966,0.012,1.406l-0.392-0.14c-0.146-0.062-0.299-0.116-0.459-0.164
		c-0.161-0.047-0.313-0.102-0.459-0.164c-0.35-0.096-0.707-0.177-1.073-0.243c-0.365-0.067-0.562-0.101-0.592-0.101
		c-0.79-0.105-1.514-0.165-2.174-0.18s-1.234,0.076-1.723,0.269c-0.489,0.195-0.87,0.508-1.143,0.941
		c-0.272,0.433-0.404,1.06-0.393,1.879c0.006,1.025,0.015,1.992,0.025,2.899c0.008,0.908,0.003,1.823-0.017,2.745
		c-0.021,0.921-0.034,1.859-0.041,2.81c-0.006,0.952-0.021,1.969-0.045,3.052l-0.004,0.175c-0.502,0.135-0.959,0.213-1.37,0.233
		c-0.412,0.02-0.836,0.018-1.277-0.006c-0.439-0.024-0.916-0.057-1.427-0.097c-0.513-0.041-1.122-0.04-1.827,0.003
		c0.08-3.6,0.122-7.199,0.128-10.801c0.006-3.601,0.111-7.331,0.313-11.192c0.352,0.038,0.643,0.066,0.878,0.085
		c0.234,0.021,0.455,0.032,0.66,0.037s0.425,0.002,0.66-0.007c0.234-0.009,0.529-0.024,0.881-0.046
		c0.117,0.002,0.33-0.007,0.639-0.03c0.309-0.022,0.632-0.044,0.97-0.066c0.337-0.021,0.631-0.023,0.881-0.002
		c0.249,0.021,0.373,0.059,0.372,0.118c-0.005,0.234-0.009,0.41-0.012,0.527c-0.003,0.117-0.005,0.212-0.006,0.285
		c-0.001,0.073,0.003,0.154,0.016,0.242C244.28,104.634,244.284,104.782,244.28,104.986z"/>
	<path d="M283.335,126.137l0.044,0.001c-1.027-0.023-2.172-0.011-3.434,0.034c-1.264,0.045-2.554,0.01-3.87-0.107l-0.044-0.001
		c-0.279-0.679-0.628-1.492-1.048-2.439c-0.419-0.946-0.882-1.936-1.387-2.973c-0.505-1.036-1.056-2.058-1.648-3.067
		c-0.595-1.008-1.19-1.899-1.79-2.674l-0.085-0.134c-0.103,0.672-0.164,1.497-0.187,2.478c-0.021,0.98-0.022,1.991-0.001,3.03
		c0.021,1.041,0.05,2.029,0.089,2.967c0.038,0.938,0.065,1.685,0.083,2.242c-0.504,0.194-1.159,0.312-1.967,0.352
		c-0.809,0.042-1.608,0.06-2.4,0.057c-0.792-0.003-1.503-0.026-2.132-0.069c-0.631-0.043-1.02-0.051-1.166-0.026
		c0.059,0.001,0.111-0.399,0.158-1.205c0.047-0.804,0.085-1.864,0.114-3.181c0.028-1.317,0.062-2.832,0.1-4.543
		c0.038-1.712,0.07-3.482,0.096-5.312c0.025-1.829,0.037-3.645,0.032-5.445c-0.004-1.801-0.005-3.455-0.001-4.962
		c0.004-1.507-0.004-2.796-0.024-3.866c-0.021-1.069-0.056-1.794-0.105-2.176c1.647-0.198,3.455-0.377,5.425-0.539
		c1.969-0.161,4.022-0.102,6.157,0.18c1.729,0.125,3.271,0.658,4.631,1.595c1.357,0.938,2.402,2.088,3.136,3.451
		c0.732,1.363,1.104,2.857,1.112,4.482c0.008,1.625-0.46,3.189-1.403,4.69c-0.58,1.042-1.339,1.903-2.278,2.585
		s-2.114,1.051-3.523,1.108l-0.176-0.004l-0.044-0.001l-0.001,0.044c0.592,1.097,1.241,2.187,1.952,3.271
		c0.709,1.084,1.404,2.176,2.084,3.274s1.33,2.218,1.95,3.358C282.403,123.752,282.921,124.928,283.335,126.137z M269.048,101.404
		c0.021,0.382,0.032,0.813,0.038,1.296c0.003,0.483,0,0.974-0.012,1.471c-0.011,0.498-0.015,0.981-0.009,1.45
		c0.003,0.468,0.031,0.864,0.083,1.188l0.044,0.001c0.673,0.074,1.405,0.134,2.197,0.18c0.791,0.047,1.539,0.02,2.246-0.082
		c0.559-0.104,0.999-0.38,1.316-0.828c0.318-0.447,0.513-0.939,0.583-1.48c0.07-0.54,0.023-1.082-0.14-1.628
		c-0.164-0.545-0.448-0.983-0.852-1.314c-0.633-0.6-1.448-0.889-2.445-0.867C271.1,100.812,270.083,101.018,269.048,101.404z"/>
	<path d="M302.422,104.818c0.024,0.176,0.043,0.353,0.054,0.529s0.015,0.352,0.011,0.527l-0.009,0.439
		c-0.158,3.158-0.213,6.269-0.162,9.329c0.049,3.061-0.063,6.154-0.337,9.281c-0.008,0.381-0.024,0.762-0.047,1.141
		c-0.023,0.381-0.212,0.596-0.564,0.646l-0.528-0.011c-0.47-0.011-0.945-0.043-1.428-0.098c-0.483-0.055-0.959-0.087-1.428-0.098
		c-0.323-0.007-0.64,0.008-0.948,0.045c-0.31,0.037-0.625,0.052-0.946,0.045c-0.204-0.063-0.341-0.184-0.41-0.36
		c-0.069-0.177-0.103-0.383-0.098-0.617c0.008-0.322,0.043-0.585,0.106-0.789c0.062-0.203,0.099-0.451,0.104-0.744
		c-0.72,0.687-1.62,1.268-2.702,1.741c-1.081,0.474-2.135,0.7-3.161,0.677c-1.144-0.025-2.109-0.442-2.899-1.25
		c-0.789-0.809-1.435-1.803-1.937-2.985c-0.503-1.182-0.862-2.463-1.081-3.845c-0.22-1.381-0.315-2.656-0.29-3.827
		c0.032-1.463,0.253-2.805,0.661-4.026c0.407-1.22,0.951-2.27,1.631-3.148c0.681-0.878,1.479-1.563,2.401-2.055
		c0.919-0.492,1.894-0.741,2.92-0.749c0.528,0.012,1.02,0.031,1.474,0.055c0.453,0.025,0.87,0.107,1.249,0.248
		c0.378,0.14,0.711,0.353,0.998,0.637c0.287,0.285,0.528,0.678,0.723,1.18c-0.02-0.468,0.011-0.87,0.093-1.206
		c0.08-0.335,0.124-0.678,0.132-1.029c0.001-0.029,0.097-0.049,0.288-0.06c0.19-0.01,0.403-0.006,0.638,0.014
		c0.233,0.02,0.468,0.032,0.702,0.038c0.235,0.005,0.396,0.009,0.484,0.01c0.498,0.041,1.106,0.084,1.824,0.128
		C300.658,104.677,301.484,104.74,302.422,104.818z M289.428,113.272c-0.126,0.378-0.207,0.764-0.245,1.159
		c-0.038,0.394-0.062,0.782-0.07,1.162c-0.028,1.316,0.291,2.444,0.961,3.38c0.668,0.938,1.618,1.419,2.85,1.447
		c0.732,0.016,1.286-0.096,1.659-0.337c0.371-0.24,0.643-0.585,0.815-1.036c0.17-0.45,0.27-1.004,0.3-1.662
		c0.029-0.658,0.053-1.396,0.07-2.216c0.022-1.024,0.034-1.836,0.032-2.437c-0.002-0.6-0.064-1.062-0.188-1.388
		c-0.126-0.325-0.342-0.535-0.647-0.629c-0.307-0.095-0.768-0.148-1.384-0.162c-1.202-0.027-2.153,0.238-2.855,0.793
		S289.591,112.544,289.428,113.272z"/>
	<path d="M323.082,111.95c-0.942,0.126-1.979,0.191-3.106,0.195c-1.131,0.004-2.192-0.106-3.184-0.334
		c0.096-0.349,0.065-0.701-0.087-1.056c-0.154-0.354-0.382-0.667-0.684-0.938c-0.303-0.271-0.649-0.476-1.042-0.616
		c-0.394-0.14-0.781-0.2-1.163-0.179c-0.679,0.103-1.188,0.347-1.534,0.735c-0.347,0.388-0.524,0.816-0.535,1.284
		c-0.01,0.468,0.155,0.941,0.498,1.417c0.341,0.477,0.845,0.838,1.516,1.087c1.637,0.271,3.169,0.619,4.598,1.045
		c1.429,0.427,2.469,1.087,3.126,1.979c0.621,1.068,0.992,2.152,1.116,3.252c0.122,1.101-0.114,2.45-0.706,4.047
		c-0.706,1.419-1.784,2.42-3.234,3.003c-1.451,0.583-3.026,0.84-4.727,0.774c-1.498,0.025-2.844-0.137-4.038-0.485
		c-1.196-0.348-2.219-0.854-3.069-1.517c-0.852-0.663-1.508-1.467-1.972-2.416c-0.463-0.946-0.681-2.005-0.655-3.176l0.003-0.132
		l0.002-0.088c0.97-0.095,2.07-0.108,3.302-0.037c1.229,0.071,2.3,0.117,3.209,0.137c0.014,0.674,0.318,1.229,0.91,1.667
		c0.591,0.438,1.223,0.701,1.896,0.789c0.673,0.088,1.291-0.022,1.856-0.333c0.563-0.31,0.84-0.889,0.83-1.738
		c0.104-0.701-0.046-1.231-0.449-1.591s-0.939-0.643-1.61-0.848c-0.67-0.205-1.43-0.39-2.275-0.556
		c-0.848-0.165-1.678-0.432-2.491-0.801c-1.63-0.592-2.806-1.49-3.527-2.691c-0.723-1.202-1.047-2.438-0.975-3.71
		c0.072-1.272,0.508-2.44,1.31-3.506c0.801-1.065,1.925-1.773,3.369-2.122c0.56-0.134,1.245-0.236,2.054-0.306
		c0.809-0.07,1.666-0.095,2.576-0.075c0.909,0.02,1.817,0.092,2.725,0.214c0.905,0.123,1.738,0.28,2.498,0.472
		c1.365,0.616,2.326,1.566,2.885,2.852C322.855,108.937,323.116,110.37,323.082,111.95z"/>
	<path d="M342.877,112.386c-0.942,0.126-1.978,0.191-3.106,0.195c-1.131,0.004-2.192-0.106-3.184-0.334
		c0.097-0.349,0.066-0.701-0.087-1.056c-0.154-0.354-0.382-0.667-0.684-0.938c-0.303-0.271-0.649-0.476-1.042-0.616
		c-0.394-0.14-0.781-0.2-1.163-0.179c-0.678,0.103-1.188,0.347-1.534,0.735c-0.347,0.388-0.524,0.816-0.535,1.284
		c-0.01,0.468,0.155,0.941,0.498,1.417c0.341,0.477,0.846,0.838,1.516,1.087c1.637,0.271,3.17,0.619,4.598,1.045
		c1.429,0.427,2.47,1.087,3.126,1.979c0.621,1.068,0.992,2.152,1.116,3.252c0.122,1.101-0.114,2.45-0.706,4.047
		c-0.706,1.419-1.784,2.42-3.234,3.003c-1.451,0.583-3.026,0.84-4.727,0.774c-1.497,0.025-2.844-0.137-4.038-0.485
		c-1.195-0.348-2.219-0.854-3.069-1.517c-0.852-0.663-1.508-1.467-1.972-2.416c-0.463-0.946-0.681-2.005-0.655-3.176l0.003-0.132
		l0.002-0.088c0.97-0.095,2.07-0.108,3.302-0.037c1.23,0.071,2.3,0.117,3.209,0.137c0.014,0.674,0.318,1.229,0.91,1.667
		c0.591,0.438,1.224,0.701,1.896,0.789c0.673,0.088,1.291-0.022,1.856-0.333c0.563-0.31,0.84-0.889,0.83-1.738
		c0.104-0.701-0.046-1.231-0.449-1.591s-0.939-0.643-1.61-0.848c-0.67-0.205-1.429-0.39-2.275-0.556
		c-0.848-0.165-1.678-0.432-2.491-0.801c-1.63-0.592-2.806-1.49-3.527-2.691c-0.723-1.202-1.046-2.438-0.974-3.71
		c0.072-1.272,0.507-2.441,1.309-3.507c0.801-1.065,1.925-1.773,3.369-2.122c0.56-0.134,1.245-0.236,2.054-0.306
		c0.809-0.07,1.667-0.095,2.576-0.075s1.817,0.092,2.725,0.214c0.905,0.123,1.738,0.28,2.498,0.472
		c1.365,0.616,2.326,1.566,2.885,2.852C342.65,109.374,342.911,110.806,342.877,112.386z"/>
	<path d="M350.595,105.662l0.748,0.016l-0.003,0.132c-0.107,3.541-0.253,7.153-0.438,10.838c-0.185,3.685-0.212,7.3-0.084,10.846
		c-0.151,0.172-0.521,0.259-1.107,0.261c-0.587,0.001-1.224-0.013-1.913-0.042c-0.689-0.03-1.341-0.066-1.956-0.109
		c-0.615-0.042-1.026-0.037-1.231,0.017c0.186-1.841,0.293-3.711,0.321-5.615c0.025-1.902,0.031-3.791,0.015-5.665
		c-0.018-1.873-0.006-3.725,0.035-5.555c0.04-1.828,0.167-3.604,0.38-5.327l0.001-0.044c0.118-0.026,0.316-0.021,0.594,0.013
		c0.279,0.036,0.49,0.055,0.638,0.058c0.381,0.038,0.907,0.079,1.582,0.123C348.85,105.653,349.655,105.67,350.595,105.662z
		 M345.396,95.973l5.979,0.264c-0.004,0.176-0.004,0.491,0.001,0.944c0.005,0.454,0.009,0.952,0.011,1.494
		c0.003,0.542,0.006,1.098,0.008,1.668s-0.002,1.077-0.012,1.515c-0.121,0.172-0.396,0.284-0.821,0.333
		c-0.428,0.05-0.926,0.061-1.497,0.033c-0.571-0.027-1.18-0.07-1.824-0.128s-1.246-0.079-1.803-0.062
		c0.019-0.848,0.001-1.734-0.051-2.658C345.333,98.453,345.337,97.319,345.396,95.973z"/>
	<path d="M371.777,113.023c-0.942,0.126-1.979,0.191-3.106,0.195c-1.131,0.004-2.192-0.106-3.185-0.334
		c0.097-0.349,0.066-0.701-0.087-1.056c-0.154-0.354-0.381-0.667-0.683-0.938c-0.303-0.27-0.649-0.475-1.042-0.616
		c-0.394-0.141-0.781-0.2-1.163-0.18c-0.679,0.103-1.189,0.348-1.534,0.735c-0.347,0.387-0.524,0.816-0.535,1.284
		c-0.01,0.468,0.155,0.941,0.498,1.417c0.34,0.476,0.845,0.838,1.516,1.087c1.637,0.271,3.169,0.619,4.598,1.046
		c1.429,0.427,2.469,1.086,3.126,1.979c0.621,1.067,0.992,2.152,1.116,3.252c0.122,1.101-0.114,2.451-0.706,4.047
		c-0.706,1.419-1.784,2.419-3.234,3.002c-1.451,0.583-3.026,0.841-4.727,0.774c-1.498,0.025-2.844-0.137-4.038-0.485
		c-1.196-0.348-2.219-0.854-3.069-1.517c-0.852-0.663-1.508-1.467-1.972-2.415c-0.464-0.946-0.681-2.006-0.655-3.176l0.003-0.132
		l0.002-0.088c0.97-0.095,2.07-0.108,3.302-0.037c1.229,0.071,2.3,0.117,3.209,0.137c0.014,0.674,0.318,1.229,0.91,1.667
		c0.591,0.438,1.223,0.701,1.896,0.788c0.673,0.089,1.291-0.022,1.856-0.332c0.563-0.31,0.84-0.889,0.83-1.739
		c0.104-0.701-0.046-1.231-0.449-1.591s-0.939-0.643-1.61-0.848c-0.67-0.205-1.43-0.39-2.275-0.555
		c-0.848-0.165-1.678-0.432-2.491-0.801c-1.63-0.592-2.806-1.49-3.527-2.691c-0.723-1.201-1.047-2.438-0.975-3.71
		c0.072-1.272,0.508-2.441,1.31-3.507c0.801-1.065,1.925-1.773,3.369-2.122c0.56-0.133,1.245-0.236,2.054-0.306
		c0.809-0.07,1.666-0.095,2.576-0.075c0.909,0.02,1.817,0.092,2.724,0.214c0.906,0.123,1.739,0.28,2.499,0.472
		c1.364,0.616,2.326,1.566,2.885,2.853C371.551,110.011,371.812,111.443,371.777,113.023z"/>
	<path d="M379.88,108.811c0.148-0.084,0.334-0.183,0.558-0.295c0.222-0.111,0.407-0.225,0.558-0.338
		c0.625-0.426,1.32-0.762,2.089-1.009s1.557-0.375,2.364-0.387c0.807-0.011,1.589,0.094,2.347,0.316
		c0.759,0.222,1.439,0.603,2.044,1.143c0.143,0.15,0.284,0.401,0.424,0.755c0.148-0.084,0.326-0.175,0.533-0.273
		c0.207-0.097,0.386-0.203,0.536-0.317c0.626-0.426,1.321-0.762,2.091-1.008c0.767-0.247,1.556-0.375,2.362-0.387
		c0.808-0.011,1.59,0.094,2.348,0.315c0.758,0.222,1.438,0.603,2.044,1.144c0.287,0.27,0.502,0.823,0.646,1.661
		c0.143,0.837,0.224,1.842,0.242,3.013c0.018,1.172,0.004,2.453-0.041,3.842c-0.046,1.391-0.099,2.795-0.159,4.213
		c-0.061,1.419-0.12,2.787-0.179,4.103c-0.059,1.316-0.069,2.473-0.032,3.469c-1.03,0.124-1.948,0.169-2.755,0.137
		c-0.806-0.032-1.722-0.06-2.748-0.082c-0.044-0.674-0.057-1.436-0.038-2.285s0.045-1.726,0.081-2.633
		c0.034-0.907,0.055-1.814,0.06-2.722c0.005-0.907-0.013-1.757-0.054-2.548c-0.021-0.352-0.043-0.74-0.062-1.166
		c-0.021-0.424-0.062-0.842-0.127-1.254c-0.064-0.411-0.158-0.779-0.283-1.104c-0.125-0.325-0.303-0.577-0.533-0.758
		c-0.029-0.03-0.059-0.045-0.087-0.046c-0.03-0.001-0.06-0.016-0.087-0.046c-0.175-0.092-0.394-0.169-0.654-0.234
		c-0.264-0.064-0.548-0.1-0.856-0.106c-0.308-0.007-0.617,0.038-0.928,0.133c-0.31,0.096-0.6,0.244-0.868,0.443
		c0.004,1.141-0.022,2.348-0.08,3.621c-0.058,1.272-0.114,2.53-0.171,3.773c-0.057,1.243-0.105,2.442-0.146,3.598
		c-0.041,1.156-0.041,2.173-0.001,3.052c-1.031,0.123-1.947,0.168-2.754,0.136s-1.723-0.059-2.748-0.082
		c-0.044-0.674-0.057-1.436-0.038-2.285s0.045-1.726,0.081-2.633c0.033-0.907,0.054-1.814,0.06-2.722
		c0.005-0.907-0.013-1.757-0.054-2.548c-0.021-0.352-0.044-0.74-0.062-1.166c-0.021-0.424-0.062-0.842-0.127-1.254
		c-0.064-0.411-0.158-0.779-0.283-1.104s-0.303-0.578-0.533-0.758c-0.03-0.03-0.059-0.045-0.087-0.046
		c-0.03-0.001-0.06-0.016-0.088-0.046c-0.232-0.122-0.574-0.225-1.027-0.308c-0.453-0.083-0.901-0.064-1.344,0.058
		c-0.442,0.123-0.845,0.377-1.205,0.764c-0.361,0.387-0.579,0.976-0.655,1.765c-0.081,1.023-0.118,2.025-0.11,3.005
		c0.008,0.982,0.023,1.962,0.046,2.944s0.022,1.955,0.001,2.92c-0.021,0.966-0.102,1.93-0.239,2.894l-0.004,0.175
		c-0.503,0.135-0.938,0.213-1.304,0.234c-0.368,0.021-0.742,0.02-1.122-0.002c-0.382-0.024-0.807-0.055-1.274-0.094
		c-0.47-0.04-1.056-0.039-1.761,0.005c0.079-3.6,0.121-7.2,0.128-10.801c0.006-3.601,0.11-7.332,0.312-11.192
		c0.352,0.037,0.644,0.066,0.879,0.085c0.233,0.021,0.453,0.032,0.659,0.037c0.205,0.004,0.425,0.002,0.661-0.007
		c0.234-0.009,0.528-0.024,0.881-0.046c0.117,0.002,0.322-0.015,0.617-0.052c0.294-0.038,0.588-0.067,0.882-0.09
		c0.294-0.022,0.558-0.024,0.793-0.004c0.233,0.021,0.35,0.074,0.348,0.161c0.048,0.5,0.062,0.909,0.04,1.23
		C379.859,108.035,379.859,108.401,379.88,108.811z"/>
	<path d="M414.56,126.791c-0.149,0.085-0.334,0.184-0.557,0.296s-0.409,0.225-0.559,0.338c-0.624,0.425-1.322,0.762-2.09,1.008
		c-0.769,0.247-1.557,0.376-2.362,0.387c-0.808,0.012-1.591-0.093-2.348-0.315c-0.76-0.222-1.439-0.603-2.044-1.144
		c-0.288-0.27-0.503-0.823-0.646-1.661c-0.144-0.838-0.224-1.842-0.242-3.014c-0.018-1.171-0.004-2.452,0.041-3.842
		s0.099-2.794,0.159-4.212c0.06-1.419,0.12-2.787,0.179-4.103c0.059-1.316,0.069-2.473,0.032-3.469
		c1.03-0.123,1.946-0.169,2.754-0.136c0.806,0.033,1.722,0.06,2.749,0.083c0.044,0.675,0.057,1.436,0.038,2.284
		c-0.019,0.849-0.046,1.727-0.081,2.633c-0.034,0.907-0.055,1.814-0.06,2.722c-0.006,0.908,0.012,1.757,0.053,2.548
		c0.021,0.352,0.043,0.741,0.062,1.166c0.02,0.425,0.062,0.843,0.127,1.254c0.063,0.412,0.158,0.78,0.283,1.104
		c0.125,0.325,0.303,0.577,0.534,0.758c0.027,0.03,0.057,0.045,0.087,0.046c0.028,0,0.058,0.016,0.087,0.046
		c0.231,0.122,0.574,0.225,1.028,0.308c0.452,0.083,0.9,0.064,1.344-0.058c0.441-0.122,0.844-0.376,1.204-0.764
		c0.36-0.388,0.579-0.976,0.655-1.765c0.08-0.993,0.117-1.988,0.109-2.984c-0.007-0.995-0.021-1.983-0.045-2.965
		c-0.022-0.981-0.03-1.955-0.023-2.921s0.094-1.93,0.262-2.893l0.004-0.176c0.503-0.135,0.937-0.213,1.304-0.234
		c0.368-0.021,0.741-0.021,1.123,0.003c0.379,0.023,0.805,0.055,1.273,0.094c0.469,0.04,1.056,0.039,1.761-0.005
		c-0.079,3.599-0.122,7.199-0.128,10.8c-0.007,3.601-0.11,7.332-0.312,11.192c-0.352-0.036-0.645-0.064-0.879-0.085
		c-0.235-0.02-0.454-0.032-0.659-0.036c-0.205-0.005-0.427-0.002-0.661,0.007c-0.234,0.01-0.528,0.025-0.88,0.047
		c-0.117-0.003-0.324,0.015-0.618,0.052c-0.294,0.038-0.589,0.067-0.882,0.091c-0.294,0.021-0.559,0.023-0.793,0.004
		s-0.35-0.073-0.348-0.161c-0.049-0.499-0.062-0.909-0.04-1.231C414.579,127.567,414.579,127.202,414.56,126.791z"/>
	<path d="M441.456,114.56c-0.942,0.126-1.979,0.191-3.107,0.195c-1.13,0.004-2.191-0.106-3.184-0.334
		c0.097-0.349,0.066-0.701-0.087-1.056c-0.154-0.354-0.382-0.667-0.684-0.938c-0.303-0.27-0.648-0.475-1.041-0.616
		c-0.394-0.141-0.781-0.2-1.163-0.18c-0.679,0.103-1.189,0.348-1.535,0.735c-0.347,0.387-0.524,0.816-0.535,1.284
		c-0.01,0.468,0.155,0.941,0.498,1.417c0.341,0.476,0.846,0.838,1.517,1.087c1.636,0.271,3.169,0.619,4.598,1.046
		c1.428,0.427,2.469,1.086,3.126,1.979c0.621,1.067,0.992,2.152,1.116,3.252c0.122,1.101-0.114,2.451-0.706,4.047
		c-0.706,1.419-1.785,2.419-3.234,3.003c-1.451,0.582-3.027,0.84-4.727,0.773c-1.498,0.025-2.845-0.136-4.038-0.484
		c-1.196-0.348-2.22-0.854-3.069-1.517c-0.852-0.663-1.508-1.467-1.972-2.415c-0.464-0.946-0.682-2.006-0.656-3.176l0.003-0.132
		l0.002-0.088c0.971-0.095,2.071-0.108,3.302-0.037s2.301,0.117,3.21,0.137c0.014,0.674,0.318,1.229,0.909,1.667
		s1.224,0.701,1.897,0.788c0.673,0.089,1.291-0.022,1.855-0.332c0.563-0.31,0.84-0.889,0.83-1.739
		c0.104-0.701-0.046-1.231-0.449-1.591s-0.938-0.643-1.609-0.848c-0.67-0.205-1.43-0.39-2.276-0.555
		c-0.847-0.165-1.677-0.432-2.49-0.801c-1.631-0.592-2.806-1.49-3.527-2.691c-0.723-1.201-1.047-2.438-0.975-3.71
		c0.072-1.272,0.508-2.441,1.31-3.507c0.801-1.065,1.924-1.772,3.369-2.122c0.56-0.133,1.245-0.236,2.053-0.306
		c0.809-0.07,1.667-0.095,2.577-0.075c0.909,0.02,1.816,0.092,2.724,0.214c0.906,0.123,1.739,0.28,2.499,0.472
		c1.364,0.616,2.326,1.566,2.885,2.853S441.49,112.98,441.456,114.56z"/>
	<path d="M447.281,129.797l-3.3-0.028c-0.088-0.002-0.128-0.193-0.12-0.574c0.009-0.38,0.032-0.841,0.075-1.381
		c0.04-0.541,0.097-1.103,0.169-1.688c0.071-0.583,0.111-1.08,0.121-1.491l0.001-0.044c0.354-0.138,0.753-0.217,1.194-0.237
		c0.438-0.019,0.9-0.009,1.385,0.031c0.482,0.04,0.958,0.087,1.427,0.141c0.468,0.054,0.923,0.086,1.363,0.096
		c-0.048,0.819-0.098,1.688-0.146,2.61c-0.051,0.92-0.084,1.807-0.103,2.655l-0.309-0.007c-0.352-0.008-0.638-0.021-0.857-0.041
		c-0.221-0.019-0.491-0.033-0.813-0.04L447.281,129.797z M444.527,98.994l0.133,0.002c0.764-0.042,1.651-0.11,2.666-0.205
		s1.93-0.016,2.746,0.236c-0.142,3.745-0.277,7.613-0.41,11.607c-0.132,3.994-0.15,7.865-0.058,11.615
		c-0.766,0.071-1.69,0.102-2.775,0.093c-1.086-0.009-2.054-0.009-2.904,0.001l-0.044-0.001c0.071-1.931,0.121-3.862,0.149-5.793
		c0.028-1.932,0.048-3.864,0.062-5.796c0.013-1.932,0.048-3.878,0.107-5.838C444.257,102.955,444.366,100.981,444.527,98.994z"/>
</g>
<g>
	<path d="M94.068,152.439c-0.59-0.273-1.051-0.653-1.381-1.14c-0.332-0.487-0.49-1.049-0.476-1.688l1.951,0.043
		c0.033,0.48,0.213,0.878,0.542,1.193c0.329,0.316,0.797,0.481,1.406,0.494c0.629,0.015,1.124-0.127,1.481-0.422
		c0.359-0.296,0.543-0.683,0.553-1.161c0.008-0.373-0.093-0.679-0.307-0.918c-0.214-0.238-0.482-0.426-0.805-0.561
		s-0.77-0.283-1.342-0.444c-0.722-0.208-1.306-0.415-1.755-0.622s-0.829-0.521-1.139-0.943c-0.312-0.422-0.459-0.979-0.444-1.671
		c0.014-0.638,0.187-1.193,0.517-1.665c0.33-0.473,0.786-0.829,1.367-1.071c0.582-0.243,1.25-0.356,2.008-0.34
		c1.077,0.023,1.954,0.312,2.629,0.865c0.677,0.552,1.041,1.298,1.096,2.235l-2.016-0.045c-0.022-0.404-0.207-0.755-0.552-1.05
		c-0.346-0.295-0.807-0.449-1.383-0.462c-0.522-0.011-0.952,0.112-1.289,0.371c-0.336,0.259-0.509,0.639-0.521,1.139
		c-0.007,0.341,0.09,0.622,0.293,0.845c0.203,0.223,0.463,0.401,0.78,0.536s0.752,0.283,1.303,0.443
		c0.731,0.219,1.327,0.435,1.786,0.646c0.459,0.213,0.847,0.533,1.163,0.961c0.316,0.427,0.466,0.992,0.451,1.694
		c-0.013,0.564-0.177,1.093-0.491,1.586c-0.315,0.494-0.767,0.886-1.355,1.176c-0.586,0.29-1.275,0.427-2.064,0.409
		C95.329,152.859,94.66,152.714,94.068,152.439z"/>
	<path d="M103.653,152.508c-0.664-0.393-1.179-0.937-1.549-1.631c-0.368-0.695-0.542-1.495-0.521-2.399
		c0.02-0.894,0.234-1.683,0.643-2.365c0.41-0.684,0.959-1.203,1.651-1.562c0.69-0.356,1.458-0.525,2.299-0.507
		s1.601,0.222,2.275,0.608c0.674,0.388,1.202,0.932,1.581,1.632c0.378,0.7,0.558,1.498,0.539,2.392
		c-0.02,0.894-0.239,1.683-0.659,2.364c-0.42,0.684-0.985,1.206-1.691,1.568s-1.482,0.534-2.323,0.516
		C105.065,153.105,104.318,152.9,103.653,152.508z M107.258,151.237c0.416-0.214,0.756-0.542,1.022-0.983s0.406-0.981,0.42-1.619
		c0.014-0.639-0.096-1.182-0.332-1.629c-0.236-0.446-0.554-0.786-0.955-1.019s-0.835-0.354-1.303-0.364
		c-0.47-0.011-0.907,0.092-1.312,0.307c-0.404,0.214-0.729,0.54-0.973,0.976c-0.245,0.438-0.374,0.975-0.388,1.613
		c-0.021,0.947,0.205,1.684,0.68,2.21c0.474,0.527,1.079,0.799,1.815,0.815C106.4,151.554,106.843,151.452,107.258,151.237z"/>
	<path d="M124.313,144.587l-2.929,8.734l-1.92-0.042l-1.631-6.535l-1.919,6.457l-1.919-0.042l-2.558-8.856l1.855,0.041l1.684,7.112
		l2.027-7.03l1.903,0.042l1.637,7.079l1.979-6.999L124.313,144.587z"/>
	<path d="M127.497,144.657l-0.194,8.795l-1.823-0.04l0.194-8.795L127.497,144.657z M125.803,143.119
		c-0.219-0.229-0.325-0.508-0.318-0.838c0.007-0.329,0.126-0.604,0.354-0.822s0.508-0.325,0.838-0.317
		c0.32,0.007,0.589,0.125,0.809,0.354c0.219,0.229,0.325,0.508,0.317,0.837c-0.007,0.33-0.125,0.604-0.354,0.823
		c-0.229,0.218-0.503,0.324-0.824,0.316C126.296,143.465,126.021,143.347,125.803,143.119z"/>
	<path d="M137.798,149.963l-6.734-0.148c0.037,0.703,0.287,1.273,0.746,1.709c0.46,0.436,1.032,0.661,1.715,0.677
		c0.98,0.021,1.682-0.373,2.106-1.184l1.968,0.044c-0.285,0.803-0.782,1.454-1.492,1.955c-0.709,0.501-1.583,0.739-2.616,0.717
		c-0.843-0.019-1.593-0.224-2.252-0.616c-0.658-0.393-1.168-0.937-1.531-1.631c-0.364-0.694-0.536-1.494-0.516-2.398
		s0.222-1.696,0.604-2.375c0.383-0.678,0.911-1.195,1.586-1.554c0.674-0.357,1.444-0.527,2.308-0.508
		c0.831,0.019,1.568,0.216,2.211,0.592s1.138,0.896,1.487,1.558c0.348,0.662,0.513,1.419,0.494,2.271
		C137.875,149.4,137.847,149.698,137.798,149.963z M135.991,148.454c0.004-0.671-0.224-1.214-0.684-1.629
		c-0.461-0.414-1.037-0.629-1.73-0.645c-0.63-0.014-1.172,0.174-1.629,0.563c-0.457,0.389-0.735,0.923-0.835,1.603L135.991,148.454z
		"/>
	<path d="M147.315,149.502l3.966,4.479l-2.463-0.055l-3.179-3.855l-0.083,3.783l-1.824-0.04l0.26-11.812l1.824,0.04l-0.151,6.863
		l3.283-3.776l2.527,0.057L147.315,149.502z"/>
	<path d="M160.688,150.468l-6.733-0.148c0.037,0.703,0.287,1.273,0.745,1.709c0.46,0.436,1.032,0.661,1.715,0.677
		c0.981,0.021,1.683-0.373,2.107-1.184l1.967,0.044c-0.285,0.803-0.782,1.454-1.492,1.955c-0.708,0.501-1.582,0.739-2.616,0.717
		c-0.843-0.019-1.593-0.224-2.251-0.616s-1.169-0.937-1.532-1.631c-0.364-0.694-0.536-1.495-0.516-2.399s0.222-1.695,0.604-2.374
		c0.383-0.678,0.912-1.196,1.587-1.555c0.673-0.356,1.443-0.526,2.307-0.507c0.832,0.019,1.569,0.216,2.211,0.592
		c0.643,0.376,1.138,0.896,1.487,1.558c0.348,0.662,0.513,1.419,0.494,2.271C160.765,149.905,160.737,150.203,160.688,150.468z
		 M158.88,148.959c0.004-0.671-0.224-1.214-0.683-1.629c-0.461-0.414-1.038-0.629-1.731-0.645c-0.63-0.014-1.172,0.174-1.629,0.563
		c-0.456,0.389-0.734,0.923-0.834,1.602L158.88,148.959z"/>
	<path d="M164.479,145.473l-0.194,8.795l-1.823-0.04l0.194-8.795L164.479,145.473z M162.784,143.935
		c-0.218-0.229-0.324-0.508-0.317-0.838c0.007-0.329,0.126-0.604,0.354-0.822c0.229-0.219,0.508-0.324,0.839-0.317
		c0.32,0.007,0.589,0.125,0.809,0.354c0.219,0.229,0.325,0.508,0.317,0.838s-0.125,0.604-0.354,0.822
		c-0.229,0.218-0.503,0.324-0.824,0.317C163.278,144.28,163.003,144.162,162.784,143.935z"/>
	<path d="M173.182,145.952c0.543,0.299,0.963,0.734,1.26,1.306c0.297,0.571,0.436,1.255,0.418,2.053l-0.114,5.188l-1.807-0.039
		l0.108-4.916c0.017-0.788-0.167-1.396-0.552-1.825s-0.92-0.651-1.603-0.666c-0.682-0.016-1.227,0.184-1.637,0.595
		s-0.623,1.011-0.64,1.799l-0.108,4.916l-1.824-0.041l0.194-8.795l1.824,0.041l-0.022,1.005c0.306-0.355,0.694-0.629,1.162-0.82
		c0.468-0.192,0.962-0.282,1.486-0.271C172.021,145.495,172.64,145.653,173.182,145.952z"/>
	<path d="M183.454,154.076c-0.858-0.504-1.531-1.194-2.019-2.073c-0.487-0.878-0.719-1.859-0.695-2.945
		c0.024-1.085,0.299-2.054,0.824-2.904c0.526-0.851,1.229-1.509,2.108-1.974c0.879-0.466,1.837-0.687,2.872-0.664
		c1.044,0.023,1.996,0.286,2.854,0.79c0.859,0.503,1.529,1.191,2.011,2.064s0.711,1.853,0.688,2.938
		c-0.024,1.086-0.296,2.057-0.816,2.913c-0.52,0.855-1.22,1.517-2.1,1.981c-0.88,0.465-1.842,0.686-2.886,0.663
		C185.259,154.842,184.312,154.579,183.454,154.076z M188.307,152.825c0.583-0.322,1.044-0.791,1.383-1.406s0.518-1.333,0.536-2.152
		s-0.129-1.541-0.44-2.166c-0.312-0.624-0.751-1.107-1.32-1.45s-1.222-0.522-1.956-0.538c-0.736-0.017-1.396,0.134-1.979,0.451
		s-1.044,0.781-1.383,1.391c-0.338,0.61-0.517,1.325-0.535,2.145s0.129,1.544,0.44,2.174c0.312,0.63,0.751,1.118,1.32,1.466
		s1.221,0.53,1.958,0.547C187.063,153.301,187.723,153.147,188.307,152.825z"/>
	<path d="M196.842,146.418c0.448-0.24,0.976-0.354,1.584-0.34l-0.042,1.883l-0.464-0.01c-0.715-0.016-1.26,0.153-1.636,0.507
		s-0.574,0.978-0.593,1.871l-0.102,4.629l-1.823-0.04l0.194-8.795l1.823,0.04l-0.028,1.277
		C196.031,146.999,196.394,146.658,196.842,146.418z"/>
	<path d="M202.197,147.79l-0.107,4.868c-0.007,0.33,0.064,0.568,0.216,0.715c0.152,0.147,0.414,0.226,0.786,0.233l1.12,0.025
		l-0.033,1.516l-1.438-0.031c-0.821-0.019-1.447-0.224-1.876-0.616c-0.429-0.393-0.633-1.021-0.614-1.882l0.107-4.869l-1.04-0.022
		l0.033-1.484l1.04,0.022l0.048-2.187l1.84,0.04l-0.048,2.188l2.143,0.047l-0.033,1.484L202.197,147.79z"/>
	<path d="M213.875,148.047l-1.633-0.035l-0.161,7.311l-1.839-0.041l0.161-7.311l-1.04-0.022l0.033-1.484l1.04,0.022l0.014-0.622
		c0.022-1.011,0.308-1.742,0.856-2.193s1.399-0.664,2.55-0.639l-0.033,1.517c-0.555-0.012-0.946,0.083-1.175,0.286
		c-0.229,0.202-0.349,0.559-0.36,1.069l-0.014,0.623l1.633,0.035L213.875,148.047z"/>
	<path d="M223.503,146.774l-0.194,8.795l-1.822-0.04l0.023-1.037c-0.296,0.355-0.679,0.632-1.147,0.829
		c-0.469,0.197-0.965,0.29-1.486,0.278c-0.693-0.016-1.311-0.173-1.855-0.472c-0.542-0.3-0.965-0.734-1.268-1.306
		c-0.302-0.571-0.444-1.256-0.427-2.054l0.114-5.172l1.808,0.04l-0.108,4.9c-0.018,0.787,0.167,1.396,0.552,1.824
		c0.385,0.43,0.919,0.651,1.601,0.666c0.683,0.016,1.229-0.183,1.638-0.595c0.41-0.411,0.623-1.01,0.641-1.798l0.108-4.9
		L223.503,146.774z M217.495,145.261c-0.182-0.19-0.27-0.418-0.264-0.685s0.104-0.49,0.294-0.673c0.19-0.182,0.42-0.27,0.687-0.264
		s0.491,0.104,0.674,0.294c0.182,0.19,0.271,0.419,0.265,0.685c-0.006,0.267-0.104,0.49-0.295,0.673
		c-0.19,0.182-0.419,0.27-0.686,0.264S217.678,145.451,217.495,145.261z M220.247,145.321c-0.183-0.19-0.271-0.418-0.265-0.685
		c0.006-0.266,0.104-0.49,0.295-0.673c0.189-0.182,0.419-0.27,0.686-0.264s0.491,0.104,0.674,0.294
		c0.182,0.19,0.271,0.419,0.265,0.685c-0.006,0.267-0.104,0.49-0.295,0.673c-0.19,0.182-0.419,0.27-0.686,0.264
		S220.429,145.512,220.247,145.321z"/>
	<path d="M228.785,147.123c0.448-0.24,0.976-0.354,1.584-0.341l-0.042,1.884l-0.464-0.011c-0.715-0.016-1.26,0.153-1.636,0.508
		c-0.376,0.353-0.574,0.977-0.593,1.871l-0.102,4.629l-1.823-0.041l0.194-8.795l1.823,0.041l-0.028,1.276
		C227.974,147.703,228.337,147.363,228.785,147.123z"/>
	<path d="M247.964,145.015l-0.245,11.093l-1.823-0.04l0.167-7.598l-3.558,7.523l-1.265-0.028l-3.239-7.673l-0.167,7.598l-1.824-0.04
		l0.245-11.094l1.968,0.044l3.711,8.785l4.079-8.613L247.964,145.015z"/>
	<path d="M258.215,152.618l-6.734-0.148c0.037,0.704,0.287,1.274,0.746,1.709c0.46,0.437,1.032,0.662,1.715,0.677
		c0.981,0.021,1.682-0.372,2.106-1.183l1.968,0.043c-0.285,0.803-0.783,1.455-1.493,1.955c-0.709,0.501-1.582,0.74-2.616,0.717
		c-0.843-0.019-1.593-0.224-2.252-0.616c-0.657-0.392-1.168-0.936-1.531-1.631c-0.364-0.694-0.536-1.494-0.516-2.398
		s0.222-1.696,0.604-2.374c0.383-0.679,0.912-1.196,1.586-1.555c0.674-0.357,1.444-0.526,2.308-0.508
		c0.832,0.019,1.568,0.216,2.211,0.592s1.138,0.896,1.487,1.558c0.348,0.662,0.513,1.42,0.494,2.271
		C258.292,152.056,258.264,152.354,258.215,152.618z M256.408,151.109c0.004-0.671-0.224-1.214-0.684-1.628
		c-0.46-0.415-1.037-0.63-1.73-0.646c-0.63-0.014-1.172,0.175-1.629,0.563c-0.457,0.39-0.735,0.923-0.835,1.603L256.408,151.109z"/>
	<path d="M266.486,148.01c0.544,0.299,0.963,0.734,1.26,1.306s0.437,1.255,0.419,2.054l-0.115,5.188l-1.807-0.04l0.108-4.916
		c0.018-0.788-0.166-1.396-0.552-1.825c-0.385-0.429-0.919-0.651-1.602-0.666c-0.682-0.016-1.228,0.184-1.638,0.595
		c-0.409,0.411-0.622,1.011-0.64,1.799l-0.108,4.916l-1.824-0.041l0.194-8.795l1.824,0.041l-0.022,1.005
		c0.306-0.355,0.694-0.628,1.162-0.82s0.963-0.282,1.486-0.271C265.325,147.554,265.944,147.711,266.486,148.01z"/>
	<path d="M271.711,156.405c-0.544-0.262-0.971-0.612-1.28-1.05c-0.312-0.438-0.472-0.924-0.481-1.456l1.888,0.042
		c0.023,0.372,0.195,0.688,0.515,0.945c0.321,0.257,0.726,0.391,1.217,0.401c0.512,0.012,0.911-0.078,1.197-0.269
		c0.288-0.19,0.436-0.44,0.442-0.749c0.007-0.329-0.146-0.578-0.457-0.744c-0.311-0.167-0.806-0.354-1.484-0.561
		c-0.657-0.194-1.191-0.383-1.604-0.562c-0.411-0.18-0.766-0.448-1.062-0.806c-0.297-0.358-0.438-0.825-0.426-1.399
		c0.01-0.468,0.158-0.894,0.444-1.275c0.286-0.383,0.689-0.681,1.211-0.892c0.522-0.212,1.119-0.311,1.791-0.296
		c1.003,0.022,1.806,0.293,2.406,0.812c0.603,0.519,0.915,1.215,0.938,2.088l-1.823-0.04c-0.023-0.394-0.176-0.711-0.458-0.952
		c-0.283-0.24-0.67-0.365-1.16-0.377c-0.48-0.01-0.851,0.072-1.111,0.248c-0.26,0.175-0.393,0.411-0.399,0.709
		c-0.005,0.234,0.076,0.433,0.243,0.597c0.167,0.163,0.373,0.293,0.615,0.389c0.243,0.096,0.604,0.218,1.081,0.367
		c0.636,0.185,1.157,0.369,1.564,0.554c0.405,0.185,0.755,0.45,1.046,0.797c0.291,0.348,0.437,0.804,0.435,1.367
		c-0.011,0.5-0.159,0.944-0.445,1.332c-0.287,0.388-0.686,0.688-1.196,0.899c-0.511,0.213-1.109,0.312-1.791,0.296
		C272.872,156.806,272.254,156.667,271.711,156.405z"/>
	<path d="M279.006,150.003c0.383-0.679,0.903-1.196,1.562-1.555c0.658-0.357,1.409-0.527,2.252-0.509
		c1.065,0.023,1.943,0.296,2.63,0.815c0.688,0.521,1.144,1.253,1.368,2.194l-1.968-0.043c-0.15-0.439-0.398-0.785-0.745-1.038
		s-0.785-0.385-1.318-0.396c-0.747-0.017-1.348,0.233-1.802,0.75c-0.454,0.518-0.692,1.249-0.713,2.196
		c-0.021,0.947,0.185,1.692,0.615,2.233c0.431,0.542,1.02,0.821,1.767,0.838c1.055,0.022,1.763-0.425,2.125-1.343l1.968,0.043
		c-0.275,0.889-0.771,1.589-1.486,2.1s-1.597,0.755-2.641,0.732c-0.843-0.019-1.586-0.224-2.228-0.616
		c-0.643-0.392-1.14-0.936-1.492-1.63s-0.52-1.494-0.499-2.398C278.421,151.473,278.623,150.681,279.006,150.003z"/>
	<path d="M295.055,148.641c0.522,0.298,0.928,0.732,1.22,1.304s0.429,1.255,0.411,2.054l-0.115,5.188l-1.807-0.04l0.108-4.916
		c0.018-0.788-0.166-1.396-0.552-1.825c-0.385-0.429-0.919-0.651-1.602-0.666s-1.228,0.184-1.638,0.595
		c-0.409,0.411-0.622,1.011-0.64,1.799l-0.108,4.916l-1.824-0.04l0.261-11.812l1.824,0.04l-0.089,4.039
		c0.316-0.366,0.716-0.645,1.194-0.836s1-0.281,1.565-0.27C293.937,148.185,294.534,148.341,295.055,148.641z"/>
	<path d="M306.986,153.693l-6.734-0.148c0.038,0.704,0.287,1.274,0.746,1.71c0.461,0.436,1.032,0.661,1.715,0.677
		c0.981,0.021,1.682-0.373,2.105-1.184l1.969,0.043c-0.285,0.803-0.783,1.455-1.492,1.956c-0.71,0.501-1.583,0.739-2.616,0.717
		c-0.843-0.019-1.594-0.224-2.252-0.617c-0.658-0.392-1.169-0.936-1.531-1.63c-0.364-0.694-0.536-1.495-0.516-2.399
		c0.02-0.904,0.222-1.696,0.604-2.374s0.911-1.196,1.587-1.555c0.674-0.356,1.443-0.526,2.308-0.507
		c0.832,0.018,1.568,0.216,2.211,0.591c0.643,0.376,1.138,0.896,1.487,1.559c0.348,0.662,0.513,1.419,0.494,2.271
		C307.063,153.131,307.035,153.429,306.986,153.693z M305.18,152.185c0.004-0.67-0.225-1.213-0.685-1.628
		c-0.461-0.414-1.036-0.63-1.729-0.645c-0.63-0.014-1.173,0.174-1.63,0.562c-0.457,0.39-0.735,0.924-0.835,1.603L305.18,152.185z"/>
	<path d="M315.258,149.086c0.544,0.299,0.962,0.733,1.26,1.305c0.297,0.571,0.437,1.255,0.419,2.054l-0.115,5.188l-1.807-0.04
		l0.108-4.916c0.018-0.787-0.166-1.396-0.552-1.824c-0.385-0.43-0.919-0.651-1.602-0.667c-0.683-0.015-1.228,0.184-1.638,0.596
		c-0.409,0.411-0.622,1.011-0.64,1.798l-0.108,4.916l-1.824-0.04l0.194-8.795l1.824,0.04l-0.022,1.006
		c0.306-0.355,0.694-0.629,1.162-0.821c0.468-0.191,0.963-0.282,1.486-0.271C314.097,148.629,314.716,148.786,315.258,149.086z"/>
	<path d="M322.998,150.454l-1.633-0.036l-0.161,7.311l-1.839-0.041l0.161-7.311l-1.04-0.022l0.033-1.484l1.04,0.022l0.014-0.622
		c0.022-1.011,0.309-1.742,0.856-2.193s1.399-0.664,2.551-0.639l-0.034,1.517c-0.555-0.012-0.945,0.084-1.175,0.286
		c-0.228,0.202-0.348,0.559-0.359,1.069l-0.014,0.623l1.633,0.036L322.998,150.454z"/>
	<path d="M332.547,154.258l-6.733-0.148c0.038,0.703,0.287,1.273,0.746,1.709c0.461,0.436,1.032,0.661,1.714,0.677
		c0.981,0.021,1.683-0.373,2.107-1.184l1.967,0.044c-0.285,0.803-0.782,1.454-1.491,1.955c-0.71,0.501-1.583,0.739-2.617,0.717
		c-0.842-0.019-1.593-0.224-2.251-0.616s-1.17-0.937-1.532-1.631c-0.364-0.694-0.535-1.495-0.515-2.399
		c0.02-0.904,0.221-1.695,0.604-2.374c0.383-0.678,0.912-1.196,1.588-1.555c0.674-0.356,1.443-0.526,2.307-0.507
		c0.832,0.019,1.569,0.216,2.212,0.592s1.138,0.896,1.486,1.558c0.348,0.662,0.513,1.419,0.494,2.271
		C332.624,153.695,332.596,153.993,332.547,154.258z M330.741,152.749c0.004-0.671-0.225-1.214-0.685-1.629
		c-0.461-0.414-1.037-0.629-1.73-0.645c-0.629-0.014-1.172,0.174-1.629,0.563c-0.457,0.389-0.735,0.923-0.835,1.602L330.741,152.749
		z"/>
	<path d="M336.339,149.263l-0.194,8.795l-1.823-0.04l0.194-8.795L336.339,149.263z M334.645,147.725
		c-0.219-0.229-0.325-0.508-0.317-0.838c0.007-0.329,0.125-0.604,0.354-0.822s0.509-0.324,0.84-0.317
		c0.32,0.007,0.589,0.125,0.808,0.354s0.325,0.508,0.318,0.838c-0.008,0.33-0.126,0.604-0.354,0.822s-0.503,0.324-0.823,0.317
		C335.138,148.07,334.863,147.952,334.645,147.725z"/>
	<path d="M345.041,149.742c0.544,0.299,0.963,0.734,1.261,1.306c0.297,0.571,0.437,1.255,0.419,2.054l-0.115,5.188l-1.808-0.04
		l0.108-4.916c0.018-0.788-0.166-1.396-0.552-1.825c-0.384-0.429-0.918-0.651-1.601-0.666c-0.683-0.016-1.229,0.184-1.639,0.595
		c-0.409,0.411-0.622,1.011-0.64,1.799l-0.108,4.916l-1.823-0.041l0.194-8.795l1.823,0.041l-0.022,1.005
		c0.306-0.355,0.694-0.628,1.162-0.82c0.469-0.192,0.964-0.282,1.487-0.271C343.881,149.286,344.499,149.443,345.041,149.742z"/>
	<path d="M349.019,151.555c0.383-0.673,0.896-1.191,1.539-1.555c0.643-0.364,1.354-0.537,2.131-0.521
		c0.576,0.013,1.142,0.15,1.696,0.413s0.993,0.604,1.313,1.027l0.094-4.246l1.84,0.04l-0.261,11.812l-1.84-0.041l0.029-1.324
		c-0.308,0.419-0.729,0.762-1.262,1.025c-0.535,0.266-1.144,0.391-1.826,0.375c-0.767-0.017-1.464-0.227-2.09-0.628
		c-0.626-0.403-1.116-0.957-1.469-1.662c-0.352-0.705-0.519-1.499-0.499-2.382C348.435,153.006,348.636,152.228,349.019,151.555z
		 M355.288,152.491c-0.24-0.452-0.562-0.8-0.961-1.043c-0.4-0.243-0.835-0.37-1.305-0.38c-0.47-0.011-0.908,0.095-1.318,0.314
		s-0.746,0.548-1.007,0.983c-0.261,0.437-0.397,0.957-0.41,1.564c-0.014,0.605,0.1,1.142,0.341,1.604
		c0.24,0.463,0.562,0.818,0.969,1.066c0.405,0.249,0.837,0.378,1.295,0.389c0.47,0.01,0.909-0.097,1.32-0.322
		c0.41-0.225,0.746-0.562,1.006-1.008c0.261-0.447,0.397-0.974,0.411-1.58S355.528,152.944,355.288,152.491z"/>
	<path d="M361.854,146.808l-0.261,11.812l-1.823-0.04l0.261-11.812L361.854,146.808z"/>
	<path d="M366.011,149.917l-0.194,8.795l-1.823-0.04l0.194-8.795L366.011,149.917z M364.316,148.379
		c-0.219-0.229-0.325-0.508-0.317-0.838c0.007-0.329,0.125-0.604,0.354-0.822c0.228-0.219,0.508-0.324,0.839-0.317
		c0.32,0.007,0.589,0.125,0.809,0.354c0.219,0.229,0.325,0.508,0.318,0.838c-0.008,0.33-0.126,0.604-0.354,0.822
		c-0.229,0.218-0.504,0.324-0.824,0.317C364.809,148.725,364.534,148.606,364.316,148.379z"/>
	<path d="M368.31,151.973c0.382-0.679,0.903-1.196,1.562-1.556c0.658-0.357,1.409-0.527,2.252-0.509
		c1.065,0.023,1.943,0.296,2.63,0.816c0.688,0.521,1.144,1.253,1.368,2.194l-1.968-0.043c-0.15-0.439-0.398-0.786-0.745-1.039
		c-0.347-0.252-0.786-0.385-1.318-0.396c-0.747-0.017-1.348,0.234-1.802,0.751c-0.454,0.518-0.692,1.249-0.713,2.196
		c-0.021,0.947,0.185,1.692,0.615,2.233c0.431,0.542,1.02,0.82,1.767,0.837c1.055,0.023,1.763-0.424,2.125-1.342l1.968,0.043
		c-0.275,0.889-0.771,1.588-1.486,2.1c-0.716,0.511-1.597,0.755-2.641,0.731c-0.843-0.019-1.586-0.224-2.228-0.615
		c-0.643-0.392-1.141-0.936-1.492-1.63c-0.353-0.694-0.52-1.494-0.499-2.398C367.725,153.442,367.927,152.65,368.31,151.973z"/>
	<path d="M384.359,150.609c0.521,0.299,0.927,0.733,1.219,1.305c0.292,0.57,0.429,1.255,0.411,2.053l-0.115,5.188l-1.807-0.04
		l0.108-4.916c0.018-0.787-0.166-1.396-0.552-1.824c-0.385-0.429-0.919-0.651-1.602-0.666c-0.683-0.016-1.229,0.184-1.638,0.595
		s-0.622,1.011-0.64,1.798l-0.108,4.916l-1.824-0.04l0.261-11.812l1.824,0.04l-0.089,4.038c0.316-0.365,0.715-0.644,1.193-0.836
		c0.479-0.191,1.001-0.281,1.566-0.269C383.24,150.153,383.838,150.311,384.359,150.609z"/>
	<path d="M391.779,154.893l3.965,4.479l-2.464-0.054l-3.179-3.855l-0.084,3.783l-1.823-0.04l0.261-11.812l1.823,0.04l-0.151,6.864
		l3.283-3.776l2.528,0.056L391.779,154.893z"/>
	<path d="M405.151,155.858l-6.733-0.148c0.038,0.704,0.287,1.274,0.746,1.709c0.461,0.437,1.032,0.662,1.714,0.677
		c0.981,0.022,1.683-0.372,2.106-1.183l1.967,0.043c-0.284,0.803-0.781,1.455-1.49,1.956c-0.71,0.5-1.583,0.739-2.617,0.716
		c-0.842-0.019-1.593-0.224-2.251-0.616c-0.658-0.392-1.17-0.936-1.532-1.631c-0.364-0.694-0.535-1.494-0.515-2.398
		c0.02-0.904,0.221-1.696,0.604-2.374c0.383-0.679,0.912-1.196,1.588-1.555c0.674-0.356,1.443-0.526,2.307-0.508
		c0.832,0.019,1.569,0.216,2.212,0.592s1.138,0.896,1.486,1.558c0.348,0.663,0.513,1.42,0.494,2.271
		C405.229,155.296,405.2,155.594,405.151,155.858z M403.346,154.35c0.004-0.67-0.225-1.213-0.685-1.628
		c-0.461-0.415-1.037-0.63-1.73-0.645c-0.629-0.015-1.172,0.174-1.629,0.562c-0.457,0.39-0.735,0.924-0.835,1.603L403.346,154.35z"
		/>
	<path d="M408.943,150.864l-0.194,8.795l-1.823-0.04l0.194-8.795L408.943,150.864z M407.249,149.325
		c-0.219-0.228-0.325-0.507-0.317-0.837c0.007-0.33,0.125-0.604,0.354-0.823s0.509-0.324,0.84-0.316
		c0.32,0.007,0.589,0.125,0.808,0.354s0.325,0.508,0.318,0.837c-0.008,0.33-0.126,0.604-0.354,0.823
		c-0.229,0.218-0.503,0.323-0.823,0.316C407.742,149.672,407.468,149.554,407.249,149.325z"/>
	<path d="M413.437,152.448l-0.106,4.869c-0.008,0.329,0.064,0.567,0.215,0.715c0.152,0.147,0.415,0.225,0.788,0.233l1.12,0.024
		l-0.034,1.516l-1.439-0.031c-0.821-0.019-1.445-0.224-1.875-0.616c-0.429-0.393-0.633-1.02-0.613-1.882l0.106-4.868l-1.04-0.023
		l0.033-1.484l1.04,0.023l0.048-2.188l1.839,0.041l-0.048,2.187l2.144,0.047l-0.033,1.484L413.437,152.448z"/>
	<path d="M419.147,157.7l-2.034,4.363l-1.183-0.026l1.232-4.381L419.147,157.7z"/>
	<path d="M122.435,170.241l-4.654-0.103l-0.85,2.249l-1.904-0.042l4.228-11.022l2.111,0.047l3.739,11.197l-1.92-0.042
		L122.435,170.241z M121.955,168.745l-1.693-5.195l-1.938,5.115L121.955,168.745z"/>
	<path d="M133.33,164.237c0.543,0.299,0.962,0.734,1.259,1.306c0.297,0.57,0.437,1.255,0.419,2.053l-0.114,5.188l-1.807-0.04
		l0.108-4.917c0.017-0.787-0.167-1.396-0.552-1.824c-0.386-0.43-0.92-0.651-1.603-0.667c-0.683-0.015-1.228,0.184-1.637,0.596
		c-0.41,0.411-0.623,1.011-0.64,1.798l-0.108,4.917l-1.824-0.04l0.194-8.796l1.824,0.04l-0.022,1.006
		c0.306-0.355,0.694-0.629,1.163-0.82c0.467-0.192,0.962-0.282,1.486-0.271C132.168,163.78,132.788,163.938,133.33,164.237z"/>
	<path d="M139.502,165.57l-0.107,4.869c-0.007,0.33,0.064,0.568,0.216,0.716c0.152,0.147,0.414,0.225,0.787,0.233l1.12,0.024
		l-0.033,1.516l-1.439-0.031c-0.821-0.019-1.447-0.224-1.876-0.616c-0.428-0.394-0.632-1.021-0.613-1.883l0.107-4.868l-1.04-0.023
		l0.033-1.484l1.04,0.023l0.048-2.188l1.839,0.041l-0.048,2.187l2.144,0.048l-0.033,1.484L139.502,165.57z"/>
	<path d="M145.182,164.211l-0.194,8.796l-1.824-0.041l0.194-8.795L145.182,164.211z M143.487,162.673
		c-0.219-0.229-0.325-0.508-0.318-0.838s0.126-0.604,0.354-0.822s0.508-0.324,0.839-0.317c0.32,0.007,0.589,0.125,0.809,0.354
		c0.219,0.229,0.325,0.508,0.317,0.837c-0.007,0.33-0.125,0.604-0.354,0.823c-0.229,0.219-0.503,0.324-0.824,0.317
		C143.98,163.019,143.706,162.901,143.487,162.673z"/>
	<path d="M148.728,172.857c-0.544-0.263-0.971-0.612-1.281-1.051c-0.311-0.438-0.471-0.923-0.481-1.456l1.889,0.042
		c0.023,0.373,0.195,0.688,0.515,0.946c0.321,0.257,0.724,0.391,1.215,0.401c0.512,0.011,0.912-0.078,1.198-0.269
		c0.288-0.191,0.435-0.44,0.441-0.749c0.007-0.33-0.146-0.578-0.457-0.745s-0.806-0.353-1.484-0.56
		c-0.656-0.195-1.19-0.383-1.603-0.562c-0.413-0.18-0.767-0.448-1.063-0.806c-0.297-0.358-0.438-0.824-0.425-1.398
		c0.01-0.469,0.158-0.894,0.444-1.276c0.286-0.382,0.689-0.68,1.211-0.892s1.12-0.311,1.791-0.296
		c1.003,0.022,1.805,0.293,2.407,0.812c0.602,0.52,0.915,1.216,0.939,2.089l-1.824-0.04c-0.023-0.395-0.176-0.712-0.459-0.952
		c-0.283-0.24-0.67-0.366-1.16-0.377c-0.479-0.011-0.85,0.071-1.109,0.247s-0.393,0.412-0.4,0.71
		c-0.005,0.234,0.076,0.433,0.243,0.596c0.167,0.164,0.373,0.294,0.616,0.389c0.242,0.097,0.603,0.219,1.079,0.367
		c0.636,0.185,1.158,0.369,1.565,0.554c0.406,0.185,0.756,0.451,1.046,0.798c0.292,0.348,0.437,0.803,0.435,1.367
		c-0.011,0.5-0.16,0.944-0.446,1.331c-0.287,0.388-0.686,0.688-1.197,0.9c-0.511,0.212-1.109,0.311-1.791,0.296
		C149.889,173.258,149.271,173.119,148.728,172.857z"/>
	<path d="M164.024,169.705l-6.733-0.148c0.037,0.703,0.286,1.273,0.746,1.709c0.459,0.437,1.031,0.661,1.713,0.677
		c0.981,0.021,1.683-0.373,2.107-1.184l1.967,0.044c-0.285,0.803-0.783,1.454-1.492,1.955c-0.708,0.501-1.582,0.74-2.616,0.717
		c-0.843-0.019-1.593-0.224-2.251-0.616s-1.169-0.937-1.532-1.631c-0.364-0.694-0.536-1.494-0.516-2.399
		c0.02-0.904,0.222-1.695,0.604-2.374c0.383-0.678,0.913-1.195,1.588-1.554c0.673-0.357,1.443-0.527,2.307-0.508
		c0.832,0.018,1.569,0.216,2.212,0.592c0.641,0.376,1.137,0.896,1.486,1.558c0.348,0.662,0.513,1.419,0.494,2.271
		C164.101,169.143,164.073,169.44,164.024,169.705z M162.218,168.196c0.004-0.671-0.225-1.214-0.684-1.629
		c-0.461-0.414-1.038-0.629-1.731-0.645c-0.63-0.014-1.172,0.174-1.628,0.562c-0.457,0.39-0.735,0.924-0.835,1.603L162.218,168.196z
		"/>
	<path d="M178.519,165.233c0.542,0.3,0.965,0.735,1.268,1.306c0.302,0.571,0.444,1.256,0.427,2.054l-0.114,5.188l-1.808-0.039
		l0.108-4.917c0.017-0.787-0.167-1.396-0.552-1.824c-0.386-0.43-0.919-0.651-1.602-0.667c-0.683-0.015-1.229,0.184-1.638,0.596
		c-0.409,0.411-0.623,1.011-0.64,1.798l-0.108,4.917l-1.808-0.04l0.108-4.917c0.017-0.787-0.167-1.396-0.552-1.824
		c-0.386-0.43-0.92-0.651-1.602-0.667c-0.683-0.015-1.229,0.184-1.638,0.596c-0.41,0.411-0.623,1.011-0.64,1.798l-0.108,4.917
		l-1.823-0.041l0.194-8.795l1.823,0.04l-0.022,1.006c0.306-0.355,0.691-0.629,1.155-0.821c0.462-0.191,0.956-0.282,1.477-0.271
		c0.704,0.016,1.33,0.179,1.878,0.488c0.548,0.311,0.965,0.751,1.252,1.321c0.278-0.525,0.704-0.939,1.275-1.241
		c0.572-0.302,1.184-0.445,1.834-0.431C177.358,164.777,177.976,164.935,178.519,165.233z"/>
	<path d="M184.436,165.076l-0.194,8.796l-1.824-0.04l0.194-8.796L184.436,165.076z M182.741,163.538
		c-0.219-0.229-0.324-0.508-0.317-0.838c0.007-0.329,0.125-0.604,0.354-0.822s0.508-0.324,0.839-0.316
		c0.32,0.007,0.589,0.125,0.809,0.354c0.219,0.229,0.325,0.507,0.317,0.837s-0.125,0.604-0.354,0.823
		c-0.229,0.218-0.503,0.323-0.824,0.316C183.234,163.885,182.959,163.767,182.741,163.538z"/>
	<path d="M188.93,166.661l-0.107,4.868c-0.007,0.33,0.064,0.568,0.216,0.716c0.152,0.147,0.414,0.225,0.787,0.233l1.119,0.024
		l-0.033,1.517l-1.438-0.032c-0.821-0.018-1.447-0.224-1.876-0.616c-0.429-0.393-0.633-1.02-0.614-1.882l0.107-4.869l-1.039-0.022
		l0.033-1.484l1.039,0.022l0.048-2.187l1.84,0.04l-0.048,2.188l2.143,0.047l-0.033,1.484L188.93,166.661z"/>
	<path d="M194.609,165.301l-0.194,8.796l-1.823-0.04l0.194-8.796L194.609,165.301z M192.915,163.763
		c-0.219-0.229-0.325-0.508-0.318-0.838c0.007-0.329,0.126-0.604,0.354-0.822s0.508-0.324,0.839-0.317
		c0.32,0.008,0.589,0.125,0.809,0.354c0.218,0.229,0.324,0.508,0.316,0.837c-0.007,0.33-0.125,0.604-0.353,0.823
		c-0.229,0.219-0.503,0.324-0.824,0.317C193.408,164.108,193.133,163.991,192.915,163.763z"/>
	<path d="M198.155,173.947c-0.544-0.262-0.971-0.612-1.281-1.051c-0.311-0.438-0.471-0.923-0.481-1.455l1.889,0.041
		c0.023,0.373,0.194,0.688,0.514,0.946c0.321,0.257,0.725,0.391,1.216,0.401c0.512,0.011,0.912-0.078,1.198-0.269
		c0.288-0.19,0.435-0.44,0.441-0.749c0.007-0.33-0.146-0.578-0.457-0.745c-0.311-0.166-0.806-0.353-1.484-0.56
		c-0.657-0.194-1.191-0.383-1.603-0.562c-0.413-0.179-0.767-0.448-1.063-0.806c-0.297-0.358-0.438-0.824-0.425-1.398
		c0.01-0.469,0.158-0.894,0.444-1.275c0.286-0.383,0.689-0.681,1.211-0.892c0.521-0.213,1.119-0.312,1.791-0.297
		c1.003,0.022,1.805,0.293,2.407,0.812c0.601,0.519,0.914,1.215,0.938,2.088l-1.823-0.04c-0.023-0.395-0.176-0.712-0.459-0.952
		c-0.283-0.24-0.67-0.366-1.16-0.377c-0.48-0.011-0.851,0.071-1.11,0.247s-0.392,0.412-0.399,0.71
		c-0.005,0.234,0.076,0.433,0.242,0.597c0.167,0.163,0.373,0.293,0.616,0.388c0.243,0.097,0.604,0.219,1.08,0.367
		c0.636,0.185,1.158,0.37,1.565,0.554c0.406,0.186,0.755,0.451,1.045,0.798c0.292,0.348,0.437,0.803,0.435,1.367
		c-0.011,0.5-0.16,0.944-0.446,1.331c-0.287,0.389-0.685,0.688-1.196,0.9c-0.511,0.212-1.109,0.312-1.791,0.296
		C199.316,174.348,198.698,174.209,198.155,173.947z"/>
	<path d="M218.077,166.106c0.542,0.299,0.964,0.734,1.267,1.306c0.302,0.57,0.444,1.255,0.427,2.053l-0.114,5.188l-1.807-0.04
		l0.108-4.917c0.017-0.787-0.167-1.396-0.553-1.824c-0.386-0.429-0.919-0.651-1.602-0.666c-0.683-0.016-1.229,0.183-1.637,0.595
		c-0.41,0.411-0.624,1.011-0.641,1.798l-0.108,4.917l-1.808-0.04l0.108-4.916c0.017-0.787-0.167-1.396-0.552-1.825
		c-0.386-0.429-0.919-0.651-1.602-0.666c-0.683-0.016-1.229,0.184-1.638,0.595c-0.41,0.411-0.623,1.011-0.64,1.798l-0.108,4.917
		l-1.823-0.04l0.194-8.796l1.823,0.04l-0.022,1.006c0.306-0.354,0.691-0.629,1.155-0.82c0.462-0.192,0.956-0.282,1.478-0.271
		c0.704,0.016,1.329,0.179,1.877,0.488c0.548,0.311,0.965,0.752,1.252,1.321c0.278-0.525,0.704-0.939,1.276-1.241
		c0.571-0.301,1.183-0.444,1.833-0.431C216.916,165.649,217.534,165.807,218.077,166.106z"/>
	<path d="M230.152,166.085l-0.194,8.795l-1.823-0.04l0.022-1.037c-0.296,0.355-0.678,0.632-1.146,0.829s-0.964,0.29-1.486,0.278
		c-0.693-0.015-1.312-0.173-1.855-0.472c-0.542-0.3-0.965-0.734-1.267-1.306c-0.302-0.571-0.444-1.256-0.427-2.054l0.114-5.172
		l1.807,0.04l-0.108,4.9c-0.018,0.787,0.167,1.396,0.552,1.824c0.385,0.43,0.919,0.651,1.602,0.666s1.229-0.183,1.637-0.594
		c0.41-0.412,0.623-1.012,0.641-1.799l0.108-4.9L230.152,166.085z"/>
	<path d="M233.698,174.731c-0.544-0.263-0.971-0.613-1.281-1.051c-0.311-0.438-0.471-0.923-0.481-1.456l1.889,0.042
		c0.023,0.373,0.195,0.688,0.515,0.945c0.321,0.258,0.724,0.391,1.215,0.402c0.512,0.011,0.912-0.078,1.198-0.27
		c0.288-0.19,0.435-0.439,0.441-0.748c0.007-0.33-0.146-0.579-0.457-0.745c-0.311-0.167-0.806-0.353-1.484-0.56
		c-0.656-0.195-1.19-0.383-1.603-0.562c-0.413-0.18-0.767-0.448-1.063-0.806c-0.297-0.358-0.438-0.824-0.425-1.399
		c0.01-0.468,0.158-0.893,0.444-1.275c0.286-0.382,0.689-0.68,1.211-0.892s1.119-0.311,1.791-0.296
		c1.003,0.022,1.805,0.293,2.407,0.812c0.602,0.52,0.914,1.216,0.938,2.089l-1.823-0.04c-0.023-0.395-0.176-0.712-0.459-0.953
		c-0.283-0.24-0.67-0.365-1.16-0.376c-0.48-0.011-0.85,0.071-1.109,0.247c-0.26,0.175-0.393,0.411-0.4,0.709
		c-0.005,0.234,0.076,0.434,0.243,0.597c0.167,0.164,0.373,0.294,0.615,0.389c0.243,0.096,0.604,0.219,1.08,0.367
		c0.636,0.185,1.158,0.369,1.565,0.554c0.406,0.185,0.756,0.451,1.046,0.798c0.291,0.348,0.436,0.803,0.434,1.367
		c-0.011,0.5-0.16,0.944-0.445,1.331c-0.287,0.388-0.686,0.688-1.197,0.9c-0.511,0.212-1.109,0.311-1.791,0.296
		C234.859,175.132,234.242,174.993,233.698,174.731z"/>
	<path d="M246.635,174.824c-0.664-0.392-1.179-0.936-1.549-1.631c-0.369-0.694-0.542-1.494-0.522-2.399
		c0.02-0.894,0.234-1.682,0.644-2.365c0.41-0.683,0.959-1.202,1.651-1.561c0.689-0.356,1.457-0.526,2.298-0.508
		c0.843,0.019,1.602,0.222,2.275,0.609c0.674,0.388,1.202,0.931,1.581,1.632c0.379,0.7,0.559,1.497,0.54,2.391
		c-0.02,0.895-0.24,1.683-0.66,2.365c-0.42,0.684-0.985,1.206-1.691,1.567c-0.706,0.363-1.481,0.535-2.323,0.517
		C248.046,175.423,247.299,175.218,246.635,174.824z M250.24,173.555c0.416-0.214,0.755-0.542,1.021-0.983s0.406-0.981,0.42-1.62
		c0.014-0.639-0.096-1.181-0.332-1.628c-0.236-0.447-0.553-0.787-0.954-1.02s-0.835-0.354-1.304-0.364
		c-0.47-0.01-0.907,0.092-1.312,0.307c-0.404,0.215-0.729,0.541-0.972,0.977c-0.245,0.438-0.375,0.974-0.388,1.612
		c-0.021,0.947,0.205,1.685,0.679,2.211c0.474,0.527,1.079,0.799,1.815,0.814C249.382,173.871,249.825,173.77,250.24,173.555z"/>
	<path d="M255.356,168.653c0.383-0.674,0.897-1.191,1.54-1.555c0.642-0.364,1.354-0.538,2.132-0.521
		c0.575,0.013,1.141,0.15,1.694,0.412c0.556,0.263,0.993,0.605,1.314,1.028l0.094-4.246l1.84,0.04l-0.261,11.812l-1.84-0.041
		l0.029-1.325c-0.309,0.419-0.729,0.762-1.263,1.026c-0.534,0.266-1.143,0.39-1.824,0.375c-0.768-0.017-1.466-0.227-2.091-0.629
		c-0.626-0.402-1.116-0.956-1.469-1.661c-0.351-0.705-0.518-1.499-0.499-2.383C254.773,170.104,254.975,169.326,255.356,168.653z
		 M261.626,169.59c-0.24-0.452-0.561-0.801-0.961-1.044c-0.4-0.242-0.835-0.369-1.305-0.38c-0.469-0.01-0.908,0.095-1.318,0.314
		s-0.745,0.548-1.006,0.984c-0.261,0.437-0.398,0.957-0.411,1.563s0.1,1.142,0.341,1.604c0.241,0.464,0.563,0.819,0.969,1.067
		c0.405,0.249,0.838,0.378,1.295,0.388c0.47,0.011,0.91-0.096,1.32-0.321s0.746-0.562,1.006-1.008
		c0.262-0.447,0.398-0.974,0.411-1.58C261.98,170.571,261.867,170.043,261.626,169.59z"/>
	<path d="M274.205,172.135l-6.734-0.148c0.037,0.703,0.286,1.273,0.746,1.709c0.46,0.437,1.031,0.661,1.714,0.677
		c0.981,0.021,1.682-0.372,2.106-1.184l1.968,0.044c-0.284,0.803-0.782,1.454-1.492,1.955s-1.581,0.74-2.615,0.717
		c-0.843-0.019-1.594-0.224-2.253-0.616c-0.656-0.393-1.168-0.937-1.531-1.631s-0.535-1.494-0.516-2.398
		c0.021-0.904,0.223-1.696,0.604-2.375c0.384-0.678,0.913-1.195,1.587-1.554c0.674-0.357,1.444-0.527,2.309-0.508
		c0.832,0.019,1.568,0.216,2.21,0.592c0.643,0.376,1.139,0.896,1.487,1.558c0.348,0.663,0.513,1.419,0.494,2.271
		C274.282,171.572,274.254,171.87,274.205,172.135z M272.397,170.626c0.004-0.671-0.225-1.213-0.685-1.629
		c-0.46-0.414-1.036-0.629-1.729-0.645c-0.63-0.014-1.172,0.174-1.629,0.563c-0.457,0.389-0.736,0.923-0.836,1.602L272.397,170.626z
		"/>
	<path d="M279.055,167.395c0.447-0.24,0.976-0.354,1.584-0.34l-0.042,1.883l-0.464-0.01c-0.715-0.016-1.259,0.153-1.635,0.507
		s-0.573,0.978-0.594,1.871l-0.102,4.63l-1.824-0.04l0.193-8.796l1.824,0.04l-0.027,1.277
		C278.244,167.976,278.607,167.636,279.055,167.395z"/>
	<path d="M293.032,174.004l-4.655-0.104l-0.85,2.249l-1.903-0.042l4.229-11.021l2.11,0.047l3.738,11.197l-1.919-0.042
		L293.032,174.004z M292.553,172.508l-1.693-5.196l-1.938,5.116L292.553,172.508z"/>
	<path d="M305.604,167.749l-0.193,8.795l-1.823-0.04l0.022-1.037c-0.296,0.355-0.677,0.632-1.146,0.829
		c-0.47,0.197-0.965,0.29-1.487,0.278c-0.693-0.015-1.312-0.173-1.854-0.472c-0.543-0.3-0.966-0.735-1.269-1.306
		c-0.302-0.571-0.443-1.256-0.426-2.054l0.113-5.172l1.808,0.04l-0.107,4.9c-0.018,0.787,0.165,1.396,0.551,1.824
		c0.385,0.43,0.92,0.65,1.603,0.666c0.683,0.015,1.229-0.183,1.638-0.594c0.408-0.412,0.622-1.012,0.64-1.799l0.107-4.9
		L305.604,167.749z"/>
	<path d="M309.151,176.396c-0.544-0.263-0.972-0.613-1.281-1.051c-0.311-0.438-0.471-0.923-0.48-1.456l1.889,0.042
		c0.022,0.373,0.194,0.688,0.515,0.945c0.32,0.258,0.725,0.391,1.216,0.401c0.511,0.012,0.91-0.077,1.197-0.269
		c0.287-0.19,0.435-0.439,0.441-0.749c0.007-0.329-0.146-0.578-0.456-0.744c-0.312-0.167-0.806-0.354-1.484-0.56
		c-0.656-0.195-1.191-0.383-1.604-0.562s-0.767-0.448-1.062-0.806c-0.297-0.358-0.438-0.824-0.426-1.399
		c0.011-0.468,0.159-0.893,0.444-1.275c0.286-0.382,0.689-0.68,1.212-0.892s1.12-0.311,1.792-0.296
		c1.002,0.022,1.804,0.293,2.406,0.812c0.602,0.52,0.915,1.215,0.938,2.089l-1.824-0.04c-0.023-0.395-0.176-0.712-0.459-0.953
		c-0.283-0.24-0.669-0.365-1.159-0.376c-0.48-0.011-0.851,0.071-1.11,0.247c-0.26,0.175-0.394,0.411-0.399,0.709
		c-0.006,0.234,0.075,0.434,0.242,0.597c0.168,0.164,0.373,0.294,0.616,0.389c0.243,0.096,0.604,0.219,1.08,0.367
		c0.635,0.185,1.156,0.369,1.563,0.554c0.406,0.185,0.757,0.451,1.047,0.798c0.291,0.348,0.437,0.803,0.435,1.366
		c-0.011,0.501-0.159,0.945-0.445,1.332c-0.287,0.388-0.686,0.688-1.197,0.9c-0.511,0.212-1.108,0.311-1.789,0.296
		C310.313,176.796,309.694,176.657,309.151,176.396z"/>
	<path d="M321.907,168.372c0.521,0.283,0.928,0.63,1.218,1.041l0.027-1.277l1.84,0.041l-0.196,8.938
		c-0.019,0.809-0.205,1.526-0.561,2.152c-0.355,0.625-0.86,1.111-1.512,1.459c-0.653,0.348-1.428,0.512-2.324,0.492
		c-1.193-0.026-2.18-0.327-2.956-0.904c-0.778-0.576-1.209-1.344-1.294-2.304l1.808,0.04c0.129,0.46,0.416,0.837,0.863,1.129
		c0.447,0.291,0.984,0.444,1.613,0.458c0.736,0.017,1.336-0.193,1.8-0.631c0.463-0.437,0.703-1.081,0.723-1.932l0.032-1.469
		c-0.319,0.408-0.744,0.747-1.279,1.018c-0.533,0.271-1.137,0.398-1.809,0.384c-0.767-0.018-1.465-0.227-2.09-0.629
		c-0.627-0.403-1.116-0.957-1.469-1.661c-0.353-0.706-0.52-1.5-0.5-2.383c0.02-0.884,0.222-1.662,0.604-2.335
		c0.383-0.673,0.896-1.19,1.54-1.555c0.642-0.364,1.349-0.537,2.115-0.521C320.783,167.939,321.386,168.089,321.907,168.372z
		 M322.715,170.938c-0.24-0.453-0.561-0.801-0.961-1.044s-0.835-0.37-1.305-0.38c-0.47-0.011-0.908,0.095-1.318,0.314
		s-0.746,0.548-1.006,0.983c-0.261,0.437-0.397,0.957-0.411,1.564c-0.014,0.606,0.1,1.142,0.341,1.604s0.563,0.819,0.969,1.067
		c0.405,0.249,0.837,0.377,1.295,0.388c0.47,0.01,0.91-0.097,1.32-0.322c0.41-0.225,0.746-0.561,1.006-1.008
		c0.262-0.447,0.398-0.973,0.411-1.58C323.069,171.919,322.956,171.39,322.715,170.938z"/>
	<path d="M330.273,168.524c0.448-0.24,0.977-0.354,1.584-0.34l-0.042,1.883l-0.463-0.01c-0.715-0.017-1.26,0.153-1.636,0.507
		s-0.573,0.978-0.594,1.871l-0.102,4.629l-1.823-0.04l0.193-8.795l1.823,0.04l-0.027,1.277
		C329.463,169.105,329.826,168.765,330.273,168.524z"/>
	<path d="M341.436,173.617l-6.733-0.148c0.037,0.704,0.286,1.273,0.746,1.71c0.459,0.436,1.03,0.661,1.713,0.676
		c0.981,0.021,1.683-0.372,2.107-1.183l1.967,0.043c-0.284,0.803-0.782,1.455-1.492,1.955c-0.709,0.502-1.581,0.74-2.615,0.718
		c-0.843-0.019-1.593-0.224-2.252-0.617c-0.657-0.393-1.169-0.936-1.532-1.63c-0.363-0.695-0.535-1.495-0.516-2.399
		c0.021-0.904,0.223-1.696,0.604-2.374c0.384-0.679,0.913-1.196,1.588-1.555c0.674-0.357,1.443-0.526,2.308-0.508
		c0.832,0.019,1.569,0.216,2.211,0.592s1.138,0.896,1.486,1.558c0.348,0.663,0.513,1.419,0.494,2.271
		C341.513,173.055,341.484,173.353,341.436,173.617z M339.629,172.108c0.004-0.67-0.225-1.213-0.685-1.628s-1.037-0.63-1.73-0.646
		c-0.63-0.014-1.172,0.174-1.628,0.563c-0.457,0.39-0.736,0.924-0.836,1.603L339.629,172.108z"/>
	<path d="M349.707,169.009c0.543,0.3,0.963,0.734,1.26,1.306c0.297,0.57,0.437,1.255,0.419,2.053l-0.114,5.188l-1.808-0.04
		l0.108-4.916c0.018-0.787-0.167-1.396-0.552-1.825c-0.386-0.429-0.92-0.651-1.602-0.666c-0.683-0.016-1.229,0.184-1.638,0.595
		c-0.41,0.412-0.622,1.012-0.64,1.799l-0.108,4.916l-1.823-0.04l0.193-8.796l1.823,0.041l-0.021,1.006
		c0.306-0.355,0.693-0.63,1.162-0.821c0.468-0.192,0.964-0.282,1.486-0.271C348.546,168.552,349.164,168.709,349.707,169.009z"/>
	<path d="M355.239,176.158l3.999,0.088l-0.032,1.484l-6.111-0.135l0.032-1.484l4.144-5.738l-4.015-0.088l0.032-1.484l6.111,0.135
		l-0.032,1.484L355.239,176.158z"/>
	<path d="M369.3,169.153l-0.193,8.796l-1.822-0.04l0.022-1.038c-0.296,0.355-0.678,0.632-1.146,0.829
		c-0.47,0.197-0.965,0.29-1.487,0.279c-0.693-0.016-1.311-0.174-1.854-0.473c-0.543-0.3-0.966-0.734-1.269-1.306
		c-0.302-0.57-0.443-1.256-0.426-2.054l0.113-5.172l1.808,0.04l-0.107,4.9c-0.018,0.787,0.166,1.396,0.552,1.825
		c0.384,0.429,0.919,0.65,1.602,0.665c0.683,0.016,1.229-0.183,1.638-0.594s0.623-1.011,0.641-1.798l0.107-4.901L369.3,169.153z"/>
	<path d="M378.004,169.633c0.543,0.3,0.963,0.734,1.26,1.306c0.297,0.57,0.437,1.255,0.419,2.053l-0.114,5.188l-1.808-0.04
		l0.108-4.916c0.018-0.787-0.167-1.396-0.552-1.825c-0.386-0.429-0.92-0.651-1.602-0.666c-0.683-0.016-1.229,0.184-1.638,0.595
		c-0.41,0.412-0.622,1.012-0.64,1.799l-0.108,4.916l-1.823-0.04l0.193-8.796l1.823,0.041l-0.021,1.006
		c0.306-0.355,0.693-0.63,1.162-0.821c0.468-0.192,0.964-0.282,1.486-0.271C376.843,169.176,377.461,169.333,378.004,169.633z"/>
	<path d="M387.442,169.817c0.521,0.283,0.927,0.63,1.217,1.041l0.027-1.277l1.841,0.041l-0.196,8.938
		c-0.019,0.809-0.205,1.526-0.561,2.151c-0.355,0.626-0.86,1.112-1.513,1.46s-1.427,0.512-2.323,0.492
		c-1.194-0.026-2.18-0.327-2.956-0.904c-0.778-0.576-1.209-1.344-1.294-2.304l1.808,0.04c0.129,0.46,0.415,0.836,0.862,1.129
		c0.447,0.291,0.985,0.444,1.614,0.458c0.736,0.017,1.336-0.193,1.8-0.631c0.462-0.437,0.702-1.081,0.722-1.933l0.032-1.469
		c-0.319,0.409-0.743,0.748-1.278,1.019c-0.533,0.271-1.137,0.398-1.809,0.383c-0.768-0.017-1.466-0.226-2.09-0.628
		c-0.627-0.403-1.116-0.957-1.469-1.661c-0.353-0.706-0.52-1.5-0.5-2.383c0.02-0.884,0.222-1.662,0.604-2.335
		c0.383-0.673,0.896-1.19,1.54-1.555c0.641-0.364,1.348-0.537,2.115-0.521C386.318,169.385,386.921,169.534,387.442,169.817z
		 M388.249,172.382c-0.239-0.452-0.56-0.8-0.96-1.043s-0.835-0.37-1.305-0.38c-0.47-0.011-0.909,0.095-1.319,0.314
		s-0.745,0.548-1.005,0.983c-0.261,0.437-0.397,0.957-0.411,1.564c-0.014,0.606,0.1,1.142,0.341,1.604s0.562,0.818,0.968,1.067
		c0.405,0.248,0.838,0.377,1.296,0.388c0.47,0.01,0.91-0.097,1.32-0.322c0.41-0.225,0.746-0.561,1.005-1.008
		c0.262-0.447,0.398-0.974,0.411-1.58C388.604,173.364,388.49,172.835,388.249,172.382z"/>
	<path d="M392.641,178.244c-0.219-0.229-0.325-0.508-0.317-0.838c0.007-0.33,0.125-0.604,0.354-0.821
		c0.229-0.219,0.51-0.325,0.84-0.317c0.32,0.007,0.59,0.125,0.809,0.354c0.219,0.228,0.325,0.507,0.318,0.837
		c-0.008,0.33-0.126,0.604-0.354,0.822s-0.504,0.325-0.824,0.317C393.135,178.591,392.86,178.473,392.641,178.244z"/>
</g>
</svg>
