<?xml version="1.0" encoding="iso-8859-1"?>
<!-- Generator: Adobe Illustrator 29.4.0, SVG Export Plug-In . SVG Version: 9.03 Build 0)  -->
<svg version="1.1" id="Ebene_1" xmlns="http://www.w3.org/2000/svg" xmlns:xlink="http://www.w3.org/1999/xlink" x="0px" y="0px"
	 viewBox="0 0 512 338.648" style="enable-background:new 0 0 512 338.648;" xml:space="preserve">
<linearGradient id="SVGID_1_" gradientUnits="userSpaceOnUse" x1="242.6367" y1="277.5021" x2="271.9597" y2="277.5021">
	<stop  offset="0" style="stop-color:#F2F0F0"/>
	<stop  offset="1" style="stop-color:#C4C4C4"/>
</linearGradient>
<path style="fill:url(#SVGID_1_);" d="M264.116,216.357H250.48c-4.332,0-7.843,3.512-7.843,7.843v106.605
	c0,4.332,3.512,7.843,7.843,7.843h13.636c4.332,0,7.843-3.512,7.843-7.843V224.2C271.96,219.868,268.448,216.357,264.116,216.357z"
	/>
<g>
	<path style="fill:#FBDF83;" d="M504.574,17.582v209.325c-0.476,2.295-0.94,4.583-1.838,6.756c-2.137,5.17-6.179,9.176-11.6,10.805
		l-4.914,0.977H28.383c-10.604-0.712-17.49-8.949-18.36-19.206V18.25C10.753,7.429,19.072,0.904,29.436,0L485.36,0.001
		C495.206,0.83,503.628,7.354,504.574,17.582z M30.083,5.474c-8.802,0.899-14.146,5.722-14.651,14.707
		c0.182,68.916-0.325,137.885,0.255,206.769c1.085,7.107,5.776,12.384,13.17,12.904l457.082-0.002
		c8.084-0.636,12.759-7.044,13.235-14.771l-0.001-205.673c-0.592-8.82-6.91-13.484-15.357-14.001L30.083,5.474z"/>
	<path style="fill:#040505;" d="M30.083,5.474l453.733-0.067c8.447,0.518,14.764,5.182,15.357,14.001l0.001,205.673
		c-0.476,7.727-5.151,14.134-13.235,14.771l-457.082,0.002c-7.394-0.52-12.086-5.797-13.17-12.904
		c-0.58-68.884-0.072-137.853-0.255-206.769C15.937,11.196,21.281,6.373,30.083,5.474z M30.275,13.777
		c-4.236,0.525-6.249,2.767-6.536,6.983c-0.848,12.439,0.817,25.735-0.194,38.233c0.048,47.565-0.122,95.169,0.21,142.705
		c0.053,7.571-0.649,16.603-0.015,23.96c0.306,3.555,3.099,5.543,6.47,5.891l454.377-0.001c3.066-0.317,5.73-2.195,6.25-5.339
		c0.301-60.405,0.427-120.903,0.013-181.296c-0.054-7.893,0.616-17.021,0.015-24.732c-0.323-4.144-3.032-6.189-7.049-6.471
		L30.275,13.777z"/>
	<path style="fill:#FBDF83;" d="M30.275,13.777l453.54-0.066c4.017,0.282,6.726,2.326,7.049,6.471
		c0.601,7.711-0.069,16.839-0.015,24.732c0.413,60.392,0.287,120.891-0.013,181.296c-0.52,3.144-3.184,5.022-6.25,5.339
		L30.21,231.55c-3.371-0.348-6.164-2.336-6.47-5.891c-0.634-7.357,0.068-16.389,0.015-23.96
		c-0.333-47.536-0.162-95.141-0.21-142.705c1.012-12.499-0.653-25.794,0.194-38.233C24.026,16.544,26.039,14.302,30.275,13.777z"/>
</g>
<g>
	<path d="M98.174,103.633l13.68,28.4c-1.708,0.373-3.56,0.506-5.56,0.4c-2-0.106-3.854-0.187-5.56-0.24
		c-1.12-1.28-2.16-2.812-3.12-4.6c-0.96-1.787-1.88-3.64-2.76-5.56c-0.88-1.92-1.748-3.812-2.6-5.68
		c-0.854-1.866-1.708-3.546-2.56-5.04c-0.054,1.547-0.067,3.214-0.04,5c0.026,1.788,0.066,3.587,0.12,5.4
		c0.053,1.814,0.093,3.6,0.12,5.36c0.026,1.76,0.04,3.387,0.04,4.88c-0.748,0.214-1.627,0.36-2.64,0.44
		c-1.014,0.08-2.08,0.12-3.2,0.12c-1.12,0-2.2-0.054-3.24-0.16s-1.908-0.24-2.6-0.4c-0.427-9.172-0.494-18.386-0.2-27.64
		c0.292-9.252,0.412-18.546,0.36-27.88c1.76-0.053,3.56-0.04,5.4,0.04s3.612,0.12,5.32,0.12c0.106,3.04,0.133,6.24,0.08,9.6
		c-0.054,3.36-0.027,6.56,0.08,9.6c0,0.054,0.04,0.014,0.12-0.12c0.08-0.132,0.172-0.252,0.28-0.36c1.12-1.44,2.133-2.933,3.04-4.48
		c0.906-1.546,1.772-3.12,2.6-4.72c0.826-1.6,1.68-3.2,2.56-4.8s1.88-3.2,3-4.8c1.706,0.107,3.52,0.107,5.44,0
		c1.92-0.106,3.732-0.026,5.44,0.24c-0.64,2.24-1.534,4.48-2.68,6.72c-1.147,2.24-2.374,4.48-3.68,6.72
		c-1.308,2.24-2.6,4.48-3.88,6.72C100.254,99.153,99.134,101.393,98.174,103.633z"/>
	<path d="M144.895,84.593c0.373,0.8,0.652,1.613,0.84,2.44c0.187,0.827,0.333,1.667,0.44,2.52c0.106,1.333,0.172,2.653,0.2,3.96
		c0.026,1.307,0.013,2.627-0.04,3.96c-0.16,2.827-0.214,5.574-0.16,8.24c0.052,2.667-0.028,5.388-0.24,8.16l-0.24,2.64
		c-0.107,1.867-0.4,3.748-0.88,5.64c-0.48,1.894-1.2,3.614-2.16,5.16c-0.908,1.28-2.094,2.308-3.56,3.08
		c-1.468,0.774-3.028,1.374-4.68,1.8c-1.494,0.426-3,0.693-4.52,0.8c-1.52,0.106-3.054,0.106-4.6,0c-1.12-0.107-2.2-0.254-3.24-0.44
		c-1.04-0.188-2.028-0.493-2.96-0.92c-0.934-0.426-1.774-0.972-2.52-1.64c-0.748-0.667-1.36-1.533-1.84-2.6
		c-0.747-1.333-1.24-2.76-1.48-4.28c-0.24-1.52-0.387-3.052-0.44-4.6c-0.16-4.16-0.333-8.333-0.52-12.52
		c-0.188-4.187-0.147-8.386,0.12-12.6c0.053-2.4,0.36-4.812,0.92-7.24c0.56-2.426,1.667-4.572,3.32-6.44
		c0.532-0.532,1.146-1.012,1.84-1.44c1.76-0.853,3.666-1.48,5.72-1.88c2.053-0.4,4.106-0.546,6.16-0.44
		c2.053,0.107,4.053,0.467,6,1.08c1.946,0.614,3.692,1.507,5.24,2.68C143.161,81.1,144.255,82.726,144.895,84.593z M126.415,71.713
		l-7.76-0.08h-0.24c-0.107-0.532-0.174-1.186-0.2-1.96c-0.027-0.772-0.027-1.56,0-2.36c0.026-0.8,0.053-1.546,0.08-2.24
		c0.026-0.693,0.04-1.2,0.04-1.52c0.48-0.16,1.133-0.292,1.96-0.4c0.826-0.106,1.68-0.16,2.56-0.16s1.707,0.04,2.48,0.12
		c0.772,0.08,1.346,0.2,1.72,0.36c0,0.054-0.028,0.427-0.08,1.12c-0.054,0.693-0.107,1.507-0.16,2.44
		c-0.054,0.934-0.107,1.827-0.16,2.68c-0.054,0.854-0.08,1.468-0.08,1.84v0.08v0.08H126.415z M136.335,104.113l-0.16-5.44
		c0-0.052-0.04-0.6-0.12-1.64s-0.147-2.013-0.2-2.92c-0.107-1.492-0.52-2.852-1.24-4.08c-0.72-1.227-1.694-2.133-2.92-2.72
		c-1.067-0.426-2.16-0.506-3.28-0.24c-1.12,0.267-2.107,0.72-2.96,1.36c-1.868,1.44-3.12,3.28-3.76,5.52
		c-0.427,2.027-0.68,4.16-0.76,6.4s-0.067,4.48,0.04,6.72c0.266,1.867,0.453,3.773,0.56,5.72c0.106,1.948,0.426,3.8,0.96,5.56
		c0.532,1.067,1.306,1.894,2.32,2.48c1.013,0.587,2.106,0.92,3.28,1c1.172,0.08,2.346-0.08,3.52-0.48
		c1.172-0.4,2.16-1.053,2.96-1.96c0.48-0.64,0.826-1.16,1.04-1.56c0.212-0.4,0.346-0.84,0.4-1.32c0.052-0.48,0.066-1.053,0.04-1.72
		c-0.028-0.666,0.012-1.56,0.12-2.68c0.052-1.066,0.092-2,0.12-2.8c0.026-0.8,0.04-1.252,0.04-1.36V104.113z M140.335,71.713
		l-7.76-0.08h-0.24c-0.107-0.532-0.174-1.186-0.2-1.96c-0.028-0.772-0.028-1.56,0-2.36c0.026-0.8,0.052-1.546,0.08-2.24
		c0.026-0.693,0.04-1.2,0.04-1.52c0.48-0.16,1.133-0.292,1.96-0.4c0.827-0.106,1.68-0.16,2.56-0.16c0.88,0,1.707,0.04,2.48,0.12
		c0.772,0.08,1.346,0.2,1.72,0.36c0,0.054-0.027,0.427-0.08,1.12c-0.054,0.693-0.107,1.507-0.16,2.44
		c-0.054,0.934-0.107,1.827-0.16,2.68c-0.054,0.854-0.08,1.468-0.08,1.84v0.08v0.08H140.335z"/>
	<path d="M182.575,132.753c-1.067,0-2.293-0.067-3.68-0.2c-1.388-0.134-2.614-0.2-3.68-0.2c-1.76-3.946-3.507-7.772-5.24-11.48
		c-1.733-3.706-3.213-7.266-4.44-10.68l-0.8-2.4c-0.214-0.586-0.414-1.132-0.6-1.64c-0.188-0.506-0.333-0.76-0.44-0.76
		c-0.054,0-0.12,0.64-0.2,1.92c-0.08,1.28-0.147,2.908-0.2,4.88c-0.054,1.974-0.094,4.16-0.12,6.56c-0.027,2.4-0.04,4.72-0.04,6.96
		c0,1.228,0,2.414,0,3.56c0,1.147,0.026,2.174,0.08,3.08c-0.587,0.16-1.174,0.266-1.76,0.32c-0.587,0.053-1.173,0.08-1.76,0.08
		c-1.28,0-2.574-0.08-3.88-0.24c-1.308-0.16-2.574-0.24-3.8-0.24v-5.6c0-5.066-0.04-9.892-0.12-14.48
		c-0.08-4.586-0.12-9.386-0.12-14.4c0-3.68,0.052-7.32,0.16-10.92c0.106-3.6,0.292-7.106,0.56-10.52
		c0.533-0.106,1.106-0.186,1.72-0.24c0.612-0.052,1.24-0.08,1.88-0.08c0.32,0,0.853,0.014,1.6,0.04
		c0.746,0.027,1.493,0.08,2.24,0.16c0.747,0.08,1.4,0.174,1.96,0.28c0.56,0.107,0.84,0.213,0.84,0.32c0.373,0.96,0.72,1.76,1.04,2.4
		c0.32,0.64,0.626,1.254,0.92,1.84c0.292,0.587,0.612,1.24,0.96,1.96c0.346,0.72,0.76,1.64,1.24,2.76
		c0.106,0.268,0.346,0.774,0.72,1.52c0.373,0.748,0.8,1.614,1.28,2.6c0.48,0.987,0.986,2.027,1.52,3.12
		c0.533,1.094,1.026,2.08,1.48,2.96c0.452,0.88,0.84,1.627,1.16,2.24c0.32,0.614,0.506,0.92,0.56,0.92
		c0.16-0.106,0.292-0.64,0.4-1.6c0.106-0.96,0.16-1.893,0.16-2.8c0-2.132-0.04-4.12-0.12-5.96s-0.12-3.72-0.12-5.64
		c0-1.12,0.013-2.252,0.04-3.4c0.026-1.146,0.066-2.386,0.12-3.72c1.812-0.32,3.732-0.48,5.76-0.48c1.972,0,3.732,0.16,5.28,0.48
		v25.76c0.053,2.24,0.08,4.507,0.08,6.8c0,2.293,0,4.587,0,6.88c0,1.547-0.014,3.04-0.04,4.48c-0.027,1.44-0.04,2.907-0.04,4.4
		c0,1.067,0.013,2.134,0.04,3.2c0.026,1.067,0.04,2.134,0.04,3.2v1.6c-0.107,0.053-0.348,0.132-0.72,0.24
		C184.121,132.699,183.481,132.753,182.575,132.753z"/>
	<path d="M204.333,76.113h1.92v0.32c0,4.587-0.067,9.2-0.2,13.84c-0.134,4.64-0.24,9.294-0.32,13.96
		c-0.08,4.667-0.094,9.32-0.04,13.96c0.052,4.64,0.212,9.228,0.48,13.76c-0.428,0.426-1.32,0.68-2.68,0.76s-2.828,0.093-4.4,0.04
		c-1.574-0.054-3.08-0.12-4.52-0.2c-1.44-0.08-2.428-0.04-2.96,0.12c0.373-4.8,0.532-9.626,0.48-14.48
		c-0.054-4.853-0.147-9.666-0.28-14.44c-0.134-4.772-0.213-9.492-0.24-14.16c-0.027-4.667,0.2-9.24,0.68-13.72v-0.16
		c0.267-0.052,0.787-0.04,1.56,0.04c0.772,0.08,1.346,0.12,1.72,0.12c0.96,0.054,2.066,0.12,3.32,0.2
		C200.106,76.153,201.934,76.167,204.333,76.113z"/>
	<path d="M228.733,104.513c0.692-0.426,1.826-0.68,3.4-0.76c1.573-0.08,3.24-0.092,5-0.04c1.76,0.054,3.4,0.147,4.92,0.28
		c1.52,0.134,2.546,0.2,3.08,0.2h0.16l0.08,0.08c0.32,2.828,0.532,5.828,0.64,9c0.106,3.174-0.108,6.2-0.64,9.08
		c-0.268,2.72-1.094,4.8-2.48,6.24c-1.388,1.44-3.094,2.534-5.12,3.28c-1.333,0.374-2.72,0.706-4.16,1
		c-1.44,0.292-2.907,0.506-4.4,0.64c-1.494,0.132-2.947,0.12-4.36-0.04c-1.414-0.16-2.76-0.508-4.04-1.04
		c-2.134-0.906-3.76-2.133-4.88-3.68c-1.12-1.546-2-3.466-2.64-5.76c-0.16-0.586-0.334-1.4-0.52-2.44
		c-0.188-1.04-0.333-2.093-0.44-3.16c-0.16-1.706-0.294-3.252-0.4-4.64c-0.107-1.386-0.2-2.76-0.28-4.12
		c-0.08-1.36-0.134-2.8-0.16-4.32c-0.028-1.52-0.014-3.266,0.04-5.24c0.052-1.707,0.132-3.453,0.24-5.24
		c0.106-1.786,0.292-3.533,0.56-5.24c0.266-1.76,0.732-3.466,1.4-5.12c0.667-1.653,1.772-3.013,3.32-4.08
		c1.066-0.906,2.267-1.573,3.6-2c1.333-0.426,2.72-0.746,4.16-0.96c2.933-0.373,5.732-0.28,8.4,0.28c2.667,0.56,4.96,1.56,6.88,3
		c1.92,1.44,3.36,3.348,4.32,5.72c0.96,2.374,1.252,5.188,0.88,8.44l-0.08,0.48c-0.107,0.16-0.348,0.24-0.72,0.24
		c-0.374,0-0.988,0.027-1.84,0.08c-0.8,0-1.48,0.014-2.04,0.04c-0.56,0.028-1.12,0.04-1.68,0.04s-1.134-0.026-1.72-0.08
		c-0.587-0.052-1.28-0.132-2.08-0.24c-0.16-0.533-0.387-1.187-0.68-1.96c-0.294-0.772-0.667-1.493-1.12-2.16
		c-0.454-0.666-0.974-1.252-1.56-1.76c-0.587-0.506-1.28-0.76-2.08-0.76c-0.907-0.052-1.788-0.08-2.64-0.08
		c-0.854,0-1.6,0.32-2.24,0.96c-0.107,0.108-0.254,0.388-0.44,0.84c-0.188,0.454-0.334,0.894-0.44,1.32
		c-0.374,1.28-0.68,2.828-0.92,4.64c-0.24,1.813-0.414,3.748-0.52,5.8c-0.108,2.054-0.134,4.174-0.08,6.36
		c0.052,2.188,0.16,4.268,0.32,6.24c0.106,1.174,0.32,2.454,0.64,3.84c0.32,1.388,0.986,2.48,2,3.28c0.48,0.32,1.092,0.56,1.84,0.72
		c0.8,0.107,1.64,0.08,2.52-0.08c0.88-0.16,1.692-0.372,2.44-0.64c0.586-0.267,1.093-0.626,1.52-1.08
		c0.426-0.453,0.747-1.053,0.96-1.8c0.053-0.212,0.12-0.572,0.2-1.08c0.08-0.506,0.132-1.026,0.16-1.56
		c0.026-0.533,0.026-1.013,0-1.44c-0.028-0.426-0.12-0.667-0.28-0.72c-0.32-0.052-0.76-0.066-1.32-0.04
		c-0.56,0.027-1.147,0.054-1.76,0.08c-0.614,0.027-1.174,0.027-1.68,0c-0.508-0.026-0.894-0.092-1.16-0.2
		c-0.107-0.853-0.174-1.6-0.2-2.24c-0.027-0.64-0.027-1.266,0-1.88c0.026-0.613,0.04-1.24,0.04-1.88c0-0.64-0.054-1.44-0.16-2.4
		v-0.08c0-0.052,0.026-0.08,0.08-0.08L228.733,104.513z"/>
	<path d="M284.812,94.433h-0.08c-1.867,0.32-3.867,0.52-6,0.6c-2.134,0.08-4.134-0.146-6-0.68c0.32-1.44,0.026-2.64-0.88-3.6
		c-0.907-0.96-2-1.572-3.28-1.84c-1.28-0.266-2.52-0.132-3.72,0.4c-1.2,0.534-1.908,1.547-2.12,3.04
		c-0.107,0.374-0.147,0.734-0.12,1.08c0.026,0.348,0.066,0.708,0.12,1.08c0.426,1.28,1.12,2.134,2.08,2.56
		c0.96,0.427,2,0.72,3.12,0.88c2.826,0.32,5.452,1.228,7.88,2.72c2.426,1.494,4.412,3.388,5.96,5.68
		c0.96,1.228,1.68,2.547,2.16,3.96c0.479,1.414,0.76,2.868,0.84,4.36c0.08,1.494-0.027,3-0.32,4.52s-0.76,2.974-1.399,4.36
		c-0.641,1.653-1.494,3.067-2.561,4.24c-1.067,1.174-2.279,2.134-3.64,2.88c-1.36,0.748-2.827,1.294-4.4,1.64
		s-3.188,0.493-4.84,0.44c-2.348-0.054-4.68-0.466-7-1.24c-2.32-0.772-4.387-1.853-6.2-3.24c-1.814-1.386-3.254-3.08-4.32-5.08
		c-1.067-2-1.52-4.28-1.36-6.84v-0.24v-0.24c1.866-0.266,3.92-0.333,6.16-0.2c2.239,0.134,4.266,0.174,6.08,0.12
		c0.105,1.708,0.786,2.988,2.04,3.84c1.252,0.854,2.586,1.268,4,1.24c1.412-0.026,2.64-0.493,3.68-1.4
		c1.04-0.906,1.4-2.292,1.08-4.16c-0.16-1.28-0.64-2.306-1.44-3.08c-0.8-0.772-1.747-1.4-2.84-1.88c-1.094-0.48-2.28-0.84-3.56-1.08
		c-1.28-0.24-2.48-0.466-3.601-0.68c-1.067-0.213-2.054-0.56-2.96-1.04c-0.907-0.48-1.733-1.04-2.479-1.68
		c-2.454-2.346-4.04-4.933-4.76-7.76c-0.72-2.826-0.76-5.572-0.12-8.24c0.64-2.667,1.852-5.092,3.64-7.28
		c1.786-2.187,3.96-3.812,6.52-4.88c1.28-0.532,2.692-0.893,4.24-1.08c1.547-0.186,3.106-0.24,4.681-0.16
		c1.572,0.08,3.12,0.308,4.64,0.68c1.521,0.374,2.92,0.854,4.2,1.44c2.56,1.333,4.532,3.307,5.92,5.92
		C285.238,87.127,285.559,90.433,284.812,94.433z"/>
	<path d="M318.011,82.993c1.172,1.813,2.146,3.694,2.92,5.64c0.772,1.948,1.399,3.988,1.88,6.12c0.266,0.854,0.439,1.694,0.52,2.52
		c0.08,0.828,0.146,1.667,0.2,2.52c-0.107,2.507-0.2,5.027-0.28,7.56c-0.08,2.534-0.359,5.027-0.84,7.48
		c0,0.054-0.014,0.08-0.04,0.08c-0.027,0-0.04,0.027-0.04,0.08c-1.067,3.147-2.52,6.134-4.359,8.96
		c-1.841,2.828-3.774,5.494-5.801,8c-3.52,0.107-7.067,0.174-10.64,0.2c-3.573,0.028-7.04,0.04-10.4,0.04l-0.079,0.08
		c-0.588-4.212-0.961-8.572-1.12-13.08c-0.16-4.506-0.24-9.08-0.24-13.72c0-4.64,0.04-9.32,0.12-14.04
		c0.08-4.72,0.066-9.4-0.04-14.04c0.053-0.053,0.093-0.106,0.12-0.16c0.026-0.052,0.066-0.106,0.12-0.16
		c1.492-0.373,3.052-0.626,4.68-0.76c1.626-0.132,3.267-0.186,4.92-0.16c1.652,0.028,3.292,0.068,4.92,0.12
		c1.626,0.054,3.213,0.054,4.76,0c1.706,0.428,3.347,1.268,4.92,2.52C315.783,80.047,317.051,81.447,318.011,82.993z
		 M310.65,112.033c0.906-1.386,1.56-2.906,1.96-4.56c0.4-1.653,0.386-3.466-0.04-5.44c-0.16-0.8-0.348-1.64-0.56-2.52
		c-0.214-0.88-0.521-1.72-0.921-2.52c-0.399-0.8-0.894-1.506-1.479-2.12c-0.588-0.612-1.334-1.08-2.24-1.4
		c-0.907-0.106-1.894-0.173-2.96-0.2c-1.067-0.026-2.08,0.067-3.04,0.28h-0.16h-0.08v0.32c0.106,1.44,0.16,2.987,0.16,4.64
		c0,1.654-0.027,3.374-0.08,5.16c-0.054,1.788-0.08,3.6-0.08,5.44c0,1.84,0.053,3.668,0.16,5.48c0.587,0.534,1.4,0.773,2.44,0.72
		c1.04-0.052,2.04-0.132,3-0.24c0.266,0.054,0.506,0.014,0.72-0.12c0.213-0.133,0.452-0.252,0.72-0.36c0.533-0.32,1-0.707,1.4-1.16
		C309.971,112.98,310.33,112.513,310.65,112.033z"/>
	<path d="M360.091,84.993c0.372,0.8,0.652,1.614,0.84,2.44c0.187,0.828,0.333,1.667,0.44,2.52c0.106,1.333,0.172,2.654,0.2,3.96
		c0.025,1.308,0.012,2.627-0.04,3.96c-0.16,2.828-0.214,5.574-0.16,8.24c0.053,2.668-0.027,5.388-0.24,8.16l-0.24,2.64
		c-0.107,1.868-0.399,3.748-0.88,5.64c-0.479,1.894-1.2,3.614-2.16,5.16c-0.907,1.28-2.094,2.308-3.56,3.08
		c-1.468,0.774-3.027,1.374-4.68,1.8c-1.494,0.426-3,0.692-4.521,0.8c-1.52,0.106-3.054,0.106-4.6,0
		c-1.12-0.107-2.2-0.254-3.24-0.44c-1.04-0.188-2.027-0.494-2.96-0.92c-0.934-0.426-1.773-0.973-2.521-1.64
		c-0.747-0.667-1.359-1.533-1.84-2.6c-0.747-1.333-1.24-2.76-1.479-4.28c-0.24-1.52-0.388-3.053-0.44-4.6
		c-0.16-4.16-0.334-8.333-0.52-12.52c-0.188-4.187-0.147-8.386,0.12-12.6c0.052-2.4,0.359-4.812,0.92-7.24
		c0.56-2.426,1.666-4.573,3.319-6.44c0.533-0.532,1.146-1.012,1.84-1.44c1.761-0.853,3.667-1.48,5.721-1.88
		c2.052-0.4,4.106-0.546,6.16-0.44c2.052,0.107,4.052,0.467,6,1.08c1.946,0.614,3.692,1.507,5.239,2.68
		C358.357,81.5,359.451,83.127,360.091,84.993z M351.531,104.513l-0.16-5.44c0-0.053-0.04-0.6-0.12-1.64s-0.147-2.013-0.2-2.92
		c-0.107-1.493-0.52-2.853-1.24-4.08c-0.72-1.227-1.693-2.133-2.92-2.72c-1.067-0.426-2.16-0.506-3.279-0.24
		c-1.12,0.268-2.108,0.72-2.961,1.36c-1.867,1.44-3.119,3.28-3.76,5.52c-0.428,2.027-0.68,4.16-0.76,6.4
		c-0.08,2.24-0.067,4.48,0.04,6.72c0.267,1.867,0.452,3.773,0.56,5.72c0.106,1.948,0.427,3.8,0.96,5.56
		c0.533,1.067,1.307,1.894,2.32,2.48c1.013,0.587,2.106,0.92,3.28,1c1.172,0.08,2.346-0.08,3.52-0.48
		c1.173-0.4,2.16-1.052,2.96-1.96c0.48-0.64,0.826-1.16,1.04-1.56c0.213-0.4,0.347-0.84,0.4-1.32c0.053-0.48,0.066-1.053,0.04-1.72
		c-0.027-0.666,0.013-1.56,0.12-2.68c0.053-1.066,0.092-2,0.12-2.8c0.026-0.8,0.04-1.252,0.04-1.36V104.513z"/>
	<path d="M405.05,132.113h0.08c-1.868,0-3.948,0.068-6.24,0.2c-2.294,0.132-4.64,0.12-7.04-0.04h-0.08c-0.534-1.226-1.2-2.692-2-4.4
		c-0.8-1.706-1.68-3.493-2.64-5.36c-0.96-1.866-2-3.707-3.12-5.52c-1.12-1.812-2.24-3.413-3.36-4.8l-0.16-0.24
		c-0.16,1.228-0.239,2.734-0.239,4.52c0,1.788,0.039,3.627,0.119,5.52c0.08,1.894,0.173,3.694,0.28,5.4
		c0.106,1.708,0.187,3.067,0.24,4.08c-0.907,0.374-2.094,0.614-3.561,0.72c-1.467,0.107-2.92,0.173-4.359,0.2
		c-1.44,0.026-2.734,0.013-3.88-0.04c-1.147-0.053-1.854-0.053-2.12,0c0.106,0,0.187-0.732,0.24-2.2
		c0.052-1.466,0.079-3.4,0.079-5.8s0-5.16,0-8.28c0-3.12-0.014-6.347-0.039-9.68c-0.028-3.333-0.08-6.64-0.16-9.92
		c-0.08-3.28-0.147-6.292-0.2-9.04c-0.054-2.746-0.12-5.093-0.2-7.04c-0.08-1.946-0.174-3.266-0.28-3.96
		c2.986-0.426,6.267-0.826,9.841-1.2c3.572-0.373,7.306-0.346,11.199,0.08c3.146,0.16,5.973,1.067,8.48,2.72
		c2.506,1.654,4.452,3.708,5.84,6.16c1.387,2.454,2.12,5.16,2.2,8.12s-0.708,5.828-2.36,8.6c-1.014,1.92-2.359,3.52-4.04,4.8
		c-1.68,1.28-3.8,2-6.359,2.16h-0.32h-0.08v0.08c1.12,1.974,2.347,3.934,3.68,5.88c1.333,1.948,2.641,3.908,3.92,5.88
		c1.28,1.974,2.507,3.988,3.681,6.04C403.262,127.806,404.25,129.927,405.05,132.113z M378.09,87.633
		c0.052,0.694,0.092,1.48,0.12,2.36c0.025,0.88,0.04,1.773,0.04,2.68c0,0.908,0.012,1.788,0.039,2.64
		c0.026,0.854,0.093,1.574,0.2,2.16h0.08c1.227,0.107,2.561,0.188,4,0.24c1.44,0.054,2.8-0.026,4.08-0.24
		c1.013-0.212,1.8-0.732,2.36-1.56c0.56-0.826,0.893-1.732,1-2.72c0.106-0.986,0-1.972-0.32-2.96c-0.32-0.986-0.854-1.772-1.6-2.36
		c-1.174-1.066-2.668-1.56-4.48-1.48C381.796,86.473,379.956,86.886,378.09,87.633z"/>
	<path d="M433.449,111.473c-1.654,0.268-3.374,0.467-5.16,0.6c-1.787,0.133-3.48,0.333-5.08,0.6h-0.08
		c-0.268,3.36-0.428,6.708-0.479,10.04c-0.054,3.334-0.108,6.52-0.16,9.56c-1.067,0.106-2.334,0.187-3.8,0.24
		c-1.468,0.052-2.921,0.08-4.36,0.08c-1.44,0-2.708-0.028-3.8-0.08c-1.094-0.054-1.748-0.134-1.96-0.24l-0.08-0.08c0-3.2,0-6.2,0-9
		c0-2.8,0.013-5.506,0.04-8.12c0.026-2.613,0.04-5.24,0.04-7.88c0-2.64,0.012-5.426,0.04-8.36c0.025-2.933,0.04-6.092,0.04-9.48
		c0-3.386,0-7.16,0-11.32v-0.08c0.906-0.16,2.212-0.32,3.92-0.48c1.706-0.16,3.64-0.32,5.8-0.48c2.16-0.16,4.452-0.28,6.88-0.36
		c2.426-0.08,4.812-0.106,7.16-0.08c2.346,0.027,4.56,0.147,6.64,0.36c2.08,0.214,3.866,0.507,5.36,0.88
		c0,0.694,0.013,1.574,0.04,2.64c0.026,1.067,0.04,2.174,0.04,3.32c0,1.147,0,2.24,0,3.28s-0.027,1.907-0.08,2.6
		c-1.44,0.108-3.054,0.214-4.84,0.32c-1.788,0.107-3.628,0.2-5.521,0.28c-1.894,0.08-3.787,0.174-5.68,0.28
		c-1.894,0.107-3.668,0.24-5.32,0.4c-0.587,1.387-0.827,2.72-0.72,4c0.106,1.28,0.399,2.348,0.88,3.2
		c0.053,0.054,0.106,0.08,0.16,0.08c0.746,0.107,1.586,0.174,2.52,0.2c0.933,0.027,1.853,0.04,2.761,0.04
		c0.906,0,1.786-0.026,2.64-0.08c0.853-0.053,1.572-0.106,2.16-0.16c0.16,0.374,0.252,1.094,0.279,2.16
		c0.026,1.067,0.013,2.254-0.039,3.56c-0.055,1.308-0.094,2.627-0.12,3.96c-0.028,1.333,0.012,2.48,0.12,3.44
		C433.689,111.42,433.609,111.473,433.449,111.473z"/>
</g>
<g>
	<path d="M126.838,154.494c0.979-0.572,2.172-0.858,3.58-0.858v3.103h-0.792c-3.366,0-5.049,1.826-5.049,5.478v9.834h-3.003v-18.084
		h3.003v2.938C125.105,155.869,125.859,155.066,126.838,154.494z"/>
	<path d="M149.921,153.966v18.084h-3.003v-2.673c-0.573,0.924-1.37,1.645-2.393,2.161c-1.023,0.518-2.151,0.776-3.383,0.776
		c-1.408,0-2.673-0.292-3.795-0.875s-2.008-1.457-2.656-2.623c-0.649-1.166-0.974-2.585-0.974-4.258v-10.593h2.97v10.197
		c0,1.782,0.451,3.151,1.353,4.108c0.901,0.957,2.133,1.436,3.696,1.436c1.605,0,2.871-0.495,3.795-1.485
		c0.924-0.989,1.386-2.431,1.386-4.322v-9.934H149.921z M138.025,151.029c-0.341-0.33-0.512-0.737-0.512-1.222
		c0-0.483,0.17-0.896,0.512-1.237c0.341-0.341,0.753-0.512,1.237-0.512c0.462,0,0.863,0.171,1.205,0.512
		c0.341,0.342,0.512,0.754,0.512,1.237c0,0.484-0.171,0.892-0.512,1.222c-0.341,0.33-0.743,0.495-1.205,0.495
		C138.778,151.524,138.366,151.359,138.025,151.029z M143.387,151.029c-0.33-0.33-0.495-0.737-0.495-1.222
		c0-0.483,0.165-0.896,0.495-1.237c0.33-0.341,0.737-0.512,1.221-0.512c0.483,0,0.896,0.171,1.237,0.512
		c0.341,0.342,0.512,0.754,0.512,1.237c0,0.484-0.171,0.892-0.512,1.222c-0.341,0.33-0.754,0.495-1.237,0.495
		C144.124,151.524,143.717,151.359,143.387,151.029z"/>
	<path d="M155.003,158.074c0.748-1.396,1.787-2.479,3.119-3.25c1.331-0.77,2.854-1.155,4.57-1.155c2.222,0,4.053,0.539,5.495,1.617
		c1.44,1.078,2.393,2.574,2.854,4.488h-3.234c-0.309-1.101-0.908-1.969-1.799-2.607c-0.891-0.638-1.997-0.957-3.316-0.957
		c-1.716,0-3.102,0.589-4.158,1.766c-1.056,1.177-1.584,2.844-1.584,4.999c0,2.179,0.528,3.861,1.584,5.05
		c1.056,1.188,2.442,1.781,4.158,1.781c1.32,0,2.42-0.308,3.3-0.924c0.88-0.615,1.485-1.496,1.815-2.64h3.234
		c-0.484,1.848-1.452,3.328-2.904,4.438c-1.452,1.111-3.267,1.666-5.445,1.666c-1.716,0-3.24-0.385-4.57-1.154
		c-1.332-0.771-2.371-1.859-3.119-3.268c-0.748-1.407-1.122-3.058-1.122-4.95C153.881,161.105,154.255,159.471,155.003,158.074z"/>
	<path d="M185.132,172.05l-7.095-7.985v7.985h-3.003v-24.42h3.003v14.355l6.963-8.02h4.191l-8.514,9.009l8.547,9.075H185.132z"/>
	<path d="M195.692,156.441v10.658c0,0.881,0.187,1.502,0.561,1.865c0.374,0.362,1.023,0.544,1.947,0.544h2.211v2.541h-2.706
		c-1.672,0-2.926-0.385-3.762-1.154c-0.836-0.771-1.254-2.035-1.254-3.796v-10.658h-2.343v-2.476h2.343v-4.554h3.003v4.554h4.719
		v2.476H195.692z"/>
	<path d="M215.096,169.575h8.877v2.475h-12.309v-2.475l8.778-13.167h-8.712v-2.442h12.177v2.442L215.096,169.575z"/>
	<path d="M243.905,153.966v18.084h-3.003v-2.673c-0.573,0.924-1.37,1.645-2.393,2.161c-1.023,0.518-2.151,0.776-3.383,0.776
		c-1.408,0-2.673-0.292-3.795-0.875s-2.008-1.457-2.656-2.623c-0.649-1.166-0.974-2.585-0.974-4.258v-10.593h2.97v10.197
		c0,1.782,0.451,3.151,1.353,4.108c0.901,0.957,2.133,1.436,3.696,1.436c1.605,0,2.871-0.495,3.795-1.485
		c0.924-0.989,1.386-2.431,1.386-4.322v-9.934H243.905z"/>
	<path d="M251.66,171.637c-1.1-0.473-1.969-1.133-2.607-1.98c-0.638-0.847-0.99-1.82-1.056-2.92h3.102
		c0.088,0.902,0.512,1.639,1.271,2.211c0.759,0.572,1.754,0.857,2.987,0.857c1.144,0,2.046-0.252,2.707-0.759
		c0.66-0.506,0.99-1.144,0.99-1.914c0-0.792-0.354-1.38-1.057-1.766c-0.705-0.385-1.793-0.764-3.267-1.138
		c-1.342-0.353-2.437-0.71-3.284-1.073c-0.847-0.362-1.573-0.901-2.178-1.617c-0.605-0.714-0.907-1.654-0.907-2.821
		c0-0.924,0.275-1.771,0.825-2.541c0.55-0.77,1.331-1.38,2.343-1.831c1.012-0.451,2.167-0.677,3.465-0.677
		c2.001,0,3.619,0.507,4.851,1.519s1.893,2.397,1.98,4.157h-3.004c-0.066-0.945-0.445-1.704-1.139-2.276
		c-0.692-0.572-1.622-0.858-2.788-0.858c-1.079,0-1.937,0.231-2.574,0.693c-0.638,0.462-0.957,1.067-0.957,1.814
		c0,0.595,0.192,1.084,0.578,1.469c0.385,0.385,0.869,0.693,1.452,0.924c0.583,0.231,1.392,0.49,2.426,0.775
		c1.297,0.353,2.354,0.699,3.168,1.04c0.812,0.341,1.512,0.853,2.096,1.534c0.582,0.683,0.885,1.573,0.906,2.673
		c0,0.99-0.275,1.881-0.824,2.673c-0.551,0.792-1.326,1.414-2.326,1.865c-1.002,0.45-2.151,0.676-3.449,0.676
		C254.003,172.346,252.76,172.11,251.66,171.637z"/>
	<path d="M266.213,158.074c0.748-1.396,1.776-2.479,3.086-3.25c1.309-0.77,2.766-1.155,4.372-1.155c1.584,0,2.959,0.342,4.125,1.023
		s2.034,1.54,2.607,2.573v-3.3h3.035v18.084h-3.035v-3.366c-0.595,1.057-1.48,1.931-2.657,2.624s-2.547,1.039-4.108,1.039
		c-1.606,0-3.058-0.396-4.355-1.188c-1.299-0.792-2.321-1.902-3.069-3.333c-0.748-1.43-1.122-3.058-1.122-4.884
		C265.091,161.094,265.465,159.471,266.213,158.074z M279.578,159.411c-0.551-1.012-1.293-1.787-2.228-2.326
		c-0.936-0.539-1.964-0.809-3.086-0.809s-2.145,0.264-3.068,0.792c-0.925,0.527-1.662,1.298-2.211,2.31
		c-0.551,1.013-0.825,2.2-0.825,3.564c0,1.386,0.274,2.59,0.825,3.613c0.549,1.022,1.286,1.804,2.211,2.343
		c0.924,0.539,1.946,0.809,3.068,0.809s2.15-0.27,3.086-0.809c0.935-0.539,1.677-1.32,2.228-2.343
		c0.55-1.023,0.825-2.216,0.825-3.581C280.403,161.611,280.128,160.423,279.578,159.411z"/>
	<path d="M314.029,154.511c1.1,0.583,1.969,1.457,2.607,2.623c0.638,1.167,0.957,2.586,0.957,4.257v10.659h-2.971V161.82
		c0-1.804-0.445-3.185-1.336-4.142c-0.892-0.957-2.096-1.436-3.613-1.436c-1.562,0-2.806,0.501-3.729,1.501
		c-0.924,1.002-1.386,2.448-1.386,4.34v9.966h-2.97V161.82c0-1.804-0.446-3.185-1.337-4.142s-2.096-1.436-3.613-1.436
		c-1.562,0-2.806,0.501-3.729,1.501c-0.924,1.002-1.386,2.448-1.386,4.34v9.966h-3.003v-18.084h3.003v2.607
		c0.594-0.946,1.392-1.672,2.393-2.178s2.106-0.76,3.316-0.76c1.519,0,2.859,0.342,4.026,1.023c1.166,0.682,2.034,1.683,2.606,3.003
		c0.506-1.275,1.342-2.266,2.508-2.97s2.464-1.057,3.895-1.057C311.675,153.636,312.929,153.928,314.029,154.511z"/>
	<path d="M348.02,154.511c1.1,0.583,1.969,1.457,2.607,2.623c0.638,1.167,0.957,2.586,0.957,4.257v10.659h-2.971V161.82
		c0-1.804-0.445-3.185-1.336-4.142c-0.892-0.957-2.096-1.436-3.613-1.436c-1.562,0-2.806,0.501-3.729,1.501
		c-0.924,1.002-1.386,2.448-1.386,4.34v9.966h-2.97V161.82c0-1.804-0.446-3.185-1.337-4.142s-2.096-1.436-3.613-1.436
		c-1.562,0-2.806,0.501-3.729,1.501c-0.924,1.002-1.386,2.448-1.386,4.34v9.966h-3.003v-18.084h3.003v2.607
		c0.594-0.946,1.392-1.672,2.393-2.178s2.106-0.76,3.316-0.76c1.519,0,2.859,0.342,4.026,1.023c1.166,0.682,2.034,1.683,2.606,3.003
		c0.506-1.275,1.342-2.266,2.508-2.97s2.464-1.057,3.895-1.057C345.665,153.636,346.919,153.928,348.02,154.511z"/>
	<path d="M372.902,164.13h-14.454c0.109,1.782,0.72,3.174,1.831,4.175c1.11,1.001,2.459,1.501,4.043,1.501
		c1.298,0,2.381-0.302,3.25-0.907c0.869-0.604,1.479-1.413,1.832-2.426h3.233c-0.484,1.738-1.452,3.152-2.903,4.241
		c-1.452,1.089-3.257,1.633-5.412,1.633c-1.716,0-3.251-0.385-4.604-1.154c-1.354-0.771-2.415-1.865-3.185-3.284
		c-0.771-1.419-1.155-3.062-1.155-4.934c0-1.869,0.374-3.509,1.122-4.917c0.748-1.407,1.799-2.491,3.151-3.25
		c1.354-0.759,2.909-1.139,4.67-1.139c1.716,0,3.233,0.374,4.554,1.122s2.337,1.777,3.053,3.086
		c0.715,1.309,1.072,2.788,1.072,4.438C373.001,162.887,372.968,163.492,372.902,164.13z M369.14,158.734
		c-0.506-0.825-1.193-1.452-2.062-1.881s-1.831-0.644-2.887-0.644c-1.519,0-2.812,0.484-3.878,1.452
		c-1.067,0.969-1.678,2.31-1.831,4.026h11.418C369.899,160.544,369.646,159.559,369.14,158.734z"/>
	<path d="M391.118,155.633c1.363,1.331,2.046,3.25,2.046,5.758v10.659h-2.97V161.82c0-1.804-0.451-3.185-1.354-4.142
		s-2.134-1.436-3.696-1.436c-1.584,0-2.844,0.495-3.778,1.485c-0.936,0.989-1.402,2.431-1.402,4.322v9.999h-3.003v-18.084h3.003
		v2.574c0.594-0.924,1.402-1.639,2.426-2.145c1.022-0.506,2.15-0.76,3.382-0.76C387.972,153.636,389.754,154.302,391.118,155.633z"
		/>
</g>
</svg>
