<?xml version="1.0" encoding="iso-8859-1"?>
<!-- Generator: Adobe Illustrator 29.4.0, SVG Export Plug-In . SVG Version: 9.03 Build 0)  -->
<svg version="1.1" id="Ebene_1" xmlns="http://www.w3.org/2000/svg" xmlns:xlink="http://www.w3.org/1999/xlink" x="0px" y="0px"
	 viewBox="0 0 384 384" style="enable-background:new 0 0 384 384;" xml:space="preserve">
<g>
	<ellipse cx="300.007" cy="157.499" rx="40.517" ry="40.522"/>
	<path d="M189.58,0.933c9.538-1.465,16.669,5.164,17.469,14.415c1.44,16.634-0.981,35.485-0.205,52.348
		c-4.204,17.559-28.237,15.971-29.848-2.041c-1.482-16.567,1.005-35.521,0.227-52.334C178.112,6.993,183.257,1.904,189.58,0.933z"/>
	<path d="M87.644,38.42c3.217-0.179,6.933,0.955,9.513,2.834c13.043,9.499,25.955,28.512,38.948,39.047
		c8.677,13.706-7.655,29.864-21.273,20.525c-4.752-3.259-35.362-33.872-38.62-38.625C69.633,52.606,76.157,39.059,87.644,38.42z"/>
	<path d="M294.618,38.42c12.444-0.692,20.195,13.606,13.219,23.782c-8.668,12.643-28.685,25.991-38.622,38.623
		c-14.127,8.814-29.368-6.12-21.286-20.539c13.057-10.834,25.447-28.656,38.567-38.678C288.819,39.833,291.648,38.585,294.618,38.42
		z"/>
	<g>
		<path d="M0.049,306c2.136-45.005,21.166-91.757,71.085-99.531c14.523-2.262,24.212,1.452,37.283,1.136
			c10.749-0.26,25.729-16.888,31.726-25.119c9.92-13.616,18.526-37.713,39.819-21.546c6.449,4.897,9.032,9.696,11.301,17.206
			c0.323,1.069-0.471,1.325,1.508,1.107c3.036-17.269,23.675-32.605,38.267-16.145c12.277,13.848,16.309,30.016,34.465,40.531
			c11.423,6.615,18.312,2.376,30.349,1.826c60.206-2.751,85.733,49.012,88.15,101.286V315l-2.357,27.268
			c-3.323,16.424-2.366,37.006-22.39,41.732h-34.496c-0.994-1.213-0.399-2.125-0.04-3.361c7.813-26.919,16.888-53.667,13.443-82.418
			c-1.158-9.66-9.085-9.144-9.648-3.028c-0.383,4.154,1.563,11.517,1.526,16.463c-0.064,8.623-1.834,19.538-3.388,28.112
			c-2.735,15.096-7.402,29.787-12.391,44.232h-73.491c-9.963-2.751-17.519-10.142-18.653-20.719
			c-3.582-33.397,0.451-78.418,12.08-109.98c1.292-3.507,9.067-15.933,4.155-18.048c-8.108-3.492-8.025,8.608-12.286,12.214
			c-1.474,0.256-10.579-12.517-12.153-14.73c-9.634-13.542-18.916-28.51-21.519-45.24l-4.306,13.69
			c-4.455,11.275-10.945,21.707-17.948,31.55c-1.574,2.213-10.679,14.986-12.153,14.73c-4.262-3.606-4.178-15.706-12.286-12.214
			c-4.49,1.934,0.638,9.639,1.681,12.273c13.645,34.461,18.473,78.882,14.554,115.756c-1.13,10.635-8.667,18.028-18.654,20.719
			H69.79c-9.63-28.123-18.585-58.794-14.252-88.807c-3.399-8.074-8.685-4.541-9.65,3.027c-3.518,27.592,5.415,56.46,13.455,82.406
			c0.384,1.241,0.916,2.171-0.051,3.374H24.796c-20.067-4.771-19.051-25.285-22.39-41.732L0.049,315.75
			C0.159,312.518-0.104,309.227,0.049,306z"/>
		<ellipse cx="84.034" cy="157.499" rx="40.517" ry="40.522"/>
	</g>
</g>
</svg>
